<svg xmlns="http://www.w3.org/2000/svg" xmlns:xlink="http://www.w3.org/1999/xlink" width="93.988" height="100" viewBox="0 0 93.988 100">
  <defs>
    <linearGradient id="linear-gradient" x1="0.5" x2="0.5" y2="1" gradientUnits="objectBoundingBox">
      <stop offset="0" stop-color="#53e5d6"/>
      <stop offset="0.869" stop-color="#40bad6"/>
    </linearGradient>
  </defs>
  <g id="_2992775" data-name="2992775" transform="translate(-53.33 -36.36)">
    <g id="Background_Complete" transform="translate(53.33 38.293)">
      <g id="Group_56370" data-name="Group 56370" transform="translate(0 39.449)">
        <path id="Path_42454" data-name="Path 42454" d="M53.33,211.986v11.471a3.759,3.759,0,0,0,3.759,3.759H98.216a3.759,3.759,0,0,0,3.759-3.759v-9.691l5.119-5.379L57.1,208.23A3.758,3.758,0,0,0,53.33,211.986Z" transform="translate(-53.33 -208.23)" fill="#f5f5f5"/>
        <g id="Group_56367" data-name="Group 56367" transform="translate(5.261 5.629)">
          <path id="Path_42455" data-name="Path 42455" d="M112.5,232.929l-37.318-.173,0-1.146,37.321.173Z" transform="translate(-75.18 -231.61)" fill="#cbe2ef"/>
        </g>
        <g id="Group_56368" data-name="Group 56368" transform="translate(5.261 9.402)">
          <path id="Path_42456" data-name="Path 42456" d="M112.5,248.6l-37.318-.171,0-1.148,37.321.173Z" transform="translate(-75.18 -247.28)" fill="#cbe2ef"/>
        </g>
        <g id="Group_56369" data-name="Group 56369" transform="translate(27.813 13.181)">
          <rect id="Rectangle_19245" data-name="Rectangle 19245" width="1.146" height="14.767" transform="translate(0 1.146) rotate(-89.718)" fill="#e0e0e0"/>
        </g>
      </g>
      <g id="Group_56374" data-name="Group 56374" transform="translate(38.108 79.081)" opacity="0.312">
        <path id="Path_42457" data-name="Path 42457" d="M211.6,376.586v11.471a3.759,3.759,0,0,0,3.759,3.759h41.127a3.759,3.759,0,0,0,3.759-3.759v-9.691l5.119-5.379-49.993-.156A3.758,3.758,0,0,0,211.6,376.586Z" transform="translate(-211.6 -372.83)" fill="#cbe2ef"/>
        <g id="Group_56371" data-name="Group 56371" transform="translate(5.439 5.331)">
          <path id="Path_42458" data-name="Path 42458" d="M271.511,396.289l-37.321-.171,0-1.149,37.321.173Z" transform="translate(-234.19 -394.97)" fill="#e0e0e0"/>
        </g>
        <g id="Group_56372" data-name="Group 56372" transform="translate(5.439 9.104)">
          <path id="Path_42459" data-name="Path 42459" d="M271.511,411.959l-37.321-.171,0-1.148,37.321.173Z" transform="translate(-234.19 -410.64)" fill="#e0e0e0"/>
        </g>
        <g id="Group_56373" data-name="Group 56373" transform="translate(27.992 12.883)">
          <rect id="Rectangle_19246" data-name="Rectangle 19246" width="1.146" height="14.767" transform="translate(0 1.146) rotate(-89.718)" fill="#e0e0e0"/>
        </g>
      </g>
      <path id="Path_42460" data-name="Path 42460" d="M144.63,44.39h24.256a2.173,2.173,0,0,1,2.174,2.174V58.43a2.173,2.173,0,0,1-2.174,2.174H148.3a2.173,2.173,0,0,1-2.174-2.174V45.89Z" transform="translate(-122.647 -44.39)" fill="#f5f5f5"/>
      <g id="Group_56378" data-name="Group 56378" transform="translate(0.388 9.039)">
        <path id="Path_42461" data-name="Path 42461" d="M90.6,84.424v7.606A2.491,2.491,0,0,1,88.1,94.523H60.827a2.491,2.491,0,0,1-2.492-2.492V85.6L54.94,82.034l33.158-.1A2.5,2.5,0,0,1,90.6,84.424Z" transform="translate(-54.94 -81.93)" fill="#cbe2ef"/>
        <g id="Group_56375" data-name="Group 56375" transform="translate(7.414 3.737)">
          <path id="Path_42462" data-name="Path 42462" d="M85.732,98.324l24.754-.113,0-.761-24.752.116Z" transform="translate(-85.73 -97.45)" fill="#f5f5f5"/>
        </g>
        <g id="Group_56376" data-name="Group 56376" transform="translate(7.414 6.241)">
          <path id="Path_42463" data-name="Path 42463" d="M85.732,108.724l24.754-.113,0-.761-24.752.113Z" transform="translate(-85.73 -107.85)" fill="#f5f5f5"/>
        </g>
        <g id="Group_56377" data-name="Group 56377" transform="translate(7.414 8.745)">
          <rect id="Rectangle_19247" data-name="Rectangle 19247" width="9.795" height="0.761" transform="translate(0 0.048) rotate(-0.282)" fill="#f5f5f5"/>
        </g>
      </g>
      <g id="Group_56382" data-name="Group 56382" transform="translate(52.063 44.315)">
        <path id="Path_42464" data-name="Path 42464" d="M305.214,230.934v7.606a2.491,2.491,0,0,1-2.492,2.492H275.447a2.491,2.491,0,0,1-2.492-2.492v-6.429l-3.395-3.568,33.158-.1A2.5,2.5,0,0,1,305.214,230.934Z" transform="translate(-269.56 -228.44)" fill="#cbe2ef"/>
        <g id="Group_56379" data-name="Group 56379" transform="translate(7.411 3.737)">
          <path id="Path_42465" data-name="Path 42465" d="M300.342,244.836l24.754-.116,0-.761-24.752.116Z" transform="translate(-300.34 -243.96)" fill="#f5f5f5"/>
        </g>
        <g id="Group_56380" data-name="Group 56380" transform="translate(7.411 6.241)">
          <path id="Path_42466" data-name="Path 42466" d="M300.342,255.234l24.754-.113,0-.761-24.752.113Z" transform="translate(-300.34 -254.36)" fill="#f5f5f5"/>
        </g>
        <g id="Group_56381" data-name="Group 56381" transform="translate(7.412 8.746)">
          <rect id="Rectangle_19248" data-name="Rectangle 19248" width="9.795" height="0.761" transform="translate(0 0.048) rotate(-0.282)" fill="#f5f5f5"/>
        </g>
      </g>
    </g>
    <g id="Plants" transform="translate(68.387 60.454)">
      <g id="Group_56400" data-name="Group 56400" transform="translate(45.635 33.297)">
        <g id="Group_56384" data-name="Group 56384">
          <g id="Group_56383" data-name="Group 56383">
            <path id="Path_42467" data-name="Path 42467" d="M309.057,303.835c-4.076-3.97-4.144-10.11-3.082-15.446a5.9,5.9,0,0,1,.787-2.567,1.849,1.849,0,0,1,2.376-.583c.614.421.778,1.242,1.045,1.943a5.314,5.314,0,0,0,1.772,2.35,2.021,2.021,0,0,0,1.813.467c.843-.3,1.108-1.353,1.25-2.244q.394-2.492.785-4.987a8.394,8.394,0,0,1,.7-2.6,2.8,2.8,0,0,1,2.042-1.584,1.7,1.7,0,0,1,1.89,1.464,8.354,8.354,0,0,1-.156,1.112.952.952,0,0,0,.4.973,1.088,1.088,0,0,0,1.045-.248,12.03,12.03,0,0,0,2.653-2.863,16.737,16.737,0,0,1,2.526-2.988,4.873,4.873,0,0,1,3.564-1.3,2.924,2.924,0,0,1,2.637,2.451c.118,1.31-.823,2.463-1.787,3.349a20.2,20.2,0,0,1-4.787,3.27,1.658,1.658,0,0,0-.814.631c-.291.563.176,1.245.73,1.536a10.6,10.6,0,0,0,2.042.575,2.029,2.029,0,0,1,1.539,1.324c.217.97-.7,1.8-1.553,2.3a17.259,17.259,0,0,1-5.519,2.085,5.794,5.794,0,0,0-2.023.6,1.669,1.669,0,0,0-.838,1.8,1.7,1.7,0,0,0,1.71,1,12.014,12.014,0,0,0,2.078-.426,3.159,3.159,0,0,1,3.479,1.269,2.853,2.853,0,0,1-.108,2.543,6.613,6.613,0,0,1-1.712,1.982,17.365,17.365,0,0,1-8.155,3.944,11.95,11.95,0,0,1-8.336-1.144" transform="translate(-305.396 -274.717)" fill="url(#linear-gradient)"/>
          </g>
        </g>
        <g id="Group_56387" data-name="Group 56387" transform="translate(2.938 1.041)">
          <g id="Group_56386" data-name="Group 56386">
            <g id="Group_56385" data-name="Group 56385">
              <path id="Path_42468" data-name="Path 42468" d="M317.6,311.085a39.539,39.539,0,0,1,2.658-7.1,81.141,81.141,0,0,1,4.575-8.076c.441-.693.879-1.38,1.307-2.056s.857-1.341,1.317-1.97a40.35,40.35,0,0,1,2.841-3.455c.956-1.055,1.9-2.023,2.793-2.918s1.743-1.714,2.547-2.429A32.062,32.062,0,0,1,339.687,280c.506-.325.9-.566,1.177-.722l.311-.178a.8.8,0,0,1,.108-.055.512.512,0,0,1-.1.07l-.3.193c-.267.169-.662.417-1.161.749a33.888,33.888,0,0,0-4,3.116c-.8.717-1.64,1.539-2.528,2.439s-1.828,1.868-2.779,2.925a40.864,40.864,0,0,0-2.822,3.448c-.455.624-.879,1.288-1.31,1.962s-.864,1.36-1.307,2.054a82.82,82.82,0,0,0-4.58,8.054,40.361,40.361,0,0,0-2.682,7.067" transform="translate(-317.6 -279.039)" fill="#263238"/>
            </g>
          </g>
        </g>
        <g id="Group_56390" data-name="Group 56390" transform="translate(12.816 3.865)">
          <g id="Group_56389" data-name="Group 56389">
            <g id="Group_56388" data-name="Group 56388">
              <path id="Path_42469" data-name="Path 42469" d="M358.651,300.786a1.769,1.769,0,0,1-.024-.395c-.007-.253,0-.621.007-1.076.019-.908.089-2.16.171-3.542s.132-2.632.14-3.537c0-.453,0-.819,0-1.071a1.7,1.7,0,0,1,.014-.395,1.778,1.778,0,0,1,.051.392c.024.253.041.621.053,1.074.024.908-.007,2.165-.089,3.547-.084,1.363-.161,2.6-.219,3.537-.024.426-.043.785-.06,1.071A1.761,1.761,0,0,1,358.651,300.786Z" transform="translate(-358.623 -290.77)" fill="#263238"/>
            </g>
          </g>
        </g>
        <g id="Group_56393" data-name="Group 56393" transform="translate(12.844 13.285)">
          <g id="Group_56392" data-name="Group 56392">
            <g id="Group_56391" data-name="Group 56391">
              <path id="Path_42470" data-name="Path 42470" d="M370.545,330.226a2.6,2.6,0,0,1-.465-.019c-.3-.022-.73-.055-1.264-.082-1.067-.058-2.545-.087-4.178-.048s-3.108.142-4.173.246c-.532.048-.963.1-1.262.132a2.465,2.465,0,0,1-.465.036,2.542,2.542,0,0,1,.455-.1c.3-.053.725-.12,1.257-.185,1.064-.135,2.545-.255,4.182-.3a41.086,41.086,0,0,1,4.187.1c.535.041.966.091,1.262.135A2.39,2.39,0,0,1,370.545,330.226Z" transform="translate(-358.74 -329.894)" fill="#263238"/>
            </g>
          </g>
        </g>
        <g id="Group_56396" data-name="Group 56396" transform="translate(2.395 10.222)">
          <g id="Group_56395" data-name="Group 56395">
            <g id="Group_56394" data-name="Group 56394">
              <path id="Path_42471" data-name="Path 42471" d="M318.721,332.741a.622.622,0,0,1-.055-.152c-.034-.12-.077-.267-.128-.445-.108-.388-.253-.953-.421-1.657-.337-1.4-.744-3.354-1.163-5.514s-.807-4.115-1.115-5.521c-.152-.684-.277-1.247-.371-1.666-.039-.181-.072-.332-.1-.455a.613.613,0,0,1-.024-.161.681.681,0,0,1,.055.152c.034.12.077.267.128.445.108.388.253.953.421,1.657.337,1.4.744,3.354,1.163,5.516s.807,4.112,1.112,5.521c.152.684.277,1.247.371,1.666.039.181.072.332.1.455A.57.57,0,0,1,318.721,332.741Z" transform="translate(-315.344 -317.17)" fill="#263238"/>
            </g>
          </g>
        </g>
        <g id="Group_56399" data-name="Group 56399" transform="translate(5.77 23.376)">
          <g id="Group_56398" data-name="Group 56398">
            <g id="Group_56397" data-name="Group 56397">
              <path id="Path_42472" data-name="Path 42472" d="M345.386,371.807a.671.671,0,0,1-.161.039c-.125.019-.279.046-.467.075l-1.717.262c-1.449.222-3.448.549-5.656.915s-4.211.677-5.666.867c-.727.1-1.317.166-1.724.21-.188.017-.344.031-.47.046a.8.8,0,0,1-.166,0,.669.669,0,0,1,.161-.039c.125-.019.279-.046.467-.075l1.717-.262c1.449-.222,3.448-.549,5.656-.915s4.211-.677,5.666-.867c.727-.1,1.317-.166,1.724-.209.188-.017.344-.034.47-.046A.518.518,0,0,1,345.386,371.807Z" transform="translate(-329.36 -371.803)" fill="#263238"/>
            </g>
          </g>
        </g>
      </g>
      <g id="Group_56404" data-name="Group 56404">
        <path id="Path_42473" data-name="Path 42473" d="M149.356,154.492a2.684,2.684,0,0,1-.922-2.528,3.574,3.574,0,0,1,1.531-2.285,1.5,1.5,0,0,1,1.223-.318,1.147,1.147,0,0,1,.742.893,2.33,2.33,0,0,1-.14,1.2,4.612,4.612,0,0,1-2.434,3.039" transform="translate(-140.563 -146.218)" fill="#455a64"/>
        <path id="Path_42474" data-name="Path 42474" d="M126.249,175.1a6.266,6.266,0,0,0-5.54-1.449c-.494.113-1.047.373-1.129.874s.366.925.8,1.177a5.357,5.357,0,0,0,5.923-.477" transform="translate(-118.677 -164.573)" fill="#455a64"/>
        <path id="Path_42475" data-name="Path 42475" d="M116.365,136.52a3.143,3.143,0,0,1,2.425.417,5.518,5.518,0,0,1,1.734,1.811,9.791,9.791,0,0,1,1.218,4.861,6.611,6.611,0,0,1-4.1-2.268c-1.17-1.216-2.543-4.127-1.281-4.82" transform="translate(-115.863 -136.428)" fill="#455a64"/>
        <g id="Group_56401" data-name="Group 56401" transform="translate(8.732 5.244)">
          <path id="Path_42476" data-name="Path 42476" d="M153.707,165.955a6.58,6.58,0,0,1-.453-.681,11.509,11.509,0,0,1-1.018-2.906,5.745,5.745,0,0,1,.226-3.065,3.753,3.753,0,0,1,.438-.831,1.075,1.075,0,0,1,.224-.262,7.855,7.855,0,0,0-.539,1.136,6.062,6.062,0,0,0-.169,2.99,13.243,13.243,0,0,0,.958,2.885" transform="translate(-152.129 -158.209)" fill="#263238"/>
        </g>
        <g id="Group_56402" data-name="Group 56402" transform="translate(1.74 2.22)">
          <path id="Path_42477" data-name="Path 42477" d="M131.675,156.441c-.243-.313-.559-.722-.944-1.216-.792-1.028-1.893-2.446-3.128-4s-2.372-2.937-3.2-3.939c-.395-.484-.725-.884-.975-1.189a3.751,3.751,0,0,1-.342-.45,3.59,3.59,0,0,1,.395.4c.246.267.595.662,1.018,1.153.852.982,2.006,2.36,3.241,3.91s2.321,2.983,3.087,4.033c.383.525.691.951.9,1.252" transform="translate(-123.089 -145.649)" fill="#263238"/>
        </g>
        <g id="Group_56403" data-name="Group 56403" transform="translate(3.161 9.911)">
          <path id="Path_42478" data-name="Path 42478" d="M128.99,177.829a1.151,1.151,0,0,1,.313-.1,2.718,2.718,0,0,1,.378-.072,4.619,4.619,0,0,1,.508-.055,6.592,6.592,0,0,1,1.329.051,7.058,7.058,0,0,1,3.022,1.175,6.494,6.494,0,0,1,1.014.862,4.415,4.415,0,0,1,.337.383,2.688,2.688,0,0,1,.231.308c.118.176.1.258.091.265a11.154,11.154,0,0,0-.749-.867,7.3,7.3,0,0,0-1.018-.814,7.432,7.432,0,0,0-2.95-1.146,7.381,7.381,0,0,0-1.3-.089C129.45,177.752,129,177.863,128.99,177.829Z" transform="translate(-128.99 -177.591)" fill="#263238"/>
        </g>
      </g>
    </g>
    <g id="Device" transform="translate(78.099 36.36)">
      <g id="Group_56413" data-name="Group 56413" transform="translate(0 13.717)">
        <g id="Group_56412" data-name="Group 56412">
          <g id="Group_56408" data-name="Group 56408">
            <g id="Group_56407" data-name="Group 56407">
              <g id="Group_56405" data-name="Group 56405">
                <path id="Path_42479" data-name="Path 42479" d="M190.039,175.293l-27.81-.128a6.056,6.056,0,0,1-6.029-6.084l.294-69.72a6.057,6.057,0,0,1,6.087-6.031l27.81.128a6.056,6.056,0,0,1,6.029,6.084l-.294,69.72A6.06,6.06,0,0,1,190.039,175.293Z" transform="translate(-156.2 -93.33)" fill="#263238"/>
              </g>
              <g id="Group_56406" data-name="Group 56406" transform="translate(1.852 2.405)">
                <path id="Path_42480" data-name="Path 42480" d="M196.19,103.448l-5.391-.024a1.34,1.34,0,0,0-1.315,1.363l0,.978a1.34,1.34,0,0,1-1.315,1.363l-10.51-.048a1.339,1.339,0,0,1-1.3-1.375l0-.978a1.34,1.34,0,0,0-1.3-1.375l-1.9-.01-4.719-.022a4.243,4.243,0,0,0-4.262,4.226L163.89,175.6a4.245,4.245,0,0,0,4.223,4.262l27.754.128a4.242,4.242,0,0,0,4.262-4.226l.287-68.051A4.247,4.247,0,0,0,196.19,103.448Z" transform="translate(-163.89 -103.32)" fill="#fafafa"/>
              </g>
            </g>
          </g>
          <g id="Group_56409" data-name="Group 56409" transform="translate(17.298 72.06)">
            <path id="Path_42481" data-name="Path 42481" d="M229.186,393.1a.58.58,0,1,1-.571-.494A.536.536,0,0,1,229.186,393.1Z" transform="translate(-228.04 -392.61)" fill="#455a64"/>
          </g>
          <g id="Group_56410" data-name="Group 56410" transform="translate(19.072 72.07)">
            <path id="Path_42482" data-name="Path 42482" d="M236.556,393.144a.534.534,0,0,1-.575.489.54.54,0,0,1-.571-.494.58.58,0,0,1,1.146,0Z" transform="translate(-235.41 -392.65)" fill="#455a64"/>
          </g>
          <g id="Group_56411" data-name="Group 56411" transform="translate(20.847 72.077)">
            <path id="Path_42483" data-name="Path 42483" d="M243.926,393.174a.534.534,0,0,1-.575.489.5.5,0,1,1,.575-.489Z" transform="translate(-242.78 -392.68)" fill="#455a64"/>
          </g>
        </g>
      </g>
      <path id="Path_42484" data-name="Path 42484" d="M199.52,240.1c.453.065,27.733,5.415,27.733,5.415V240.1Z" transform="translate(-189.089 -191.044)" fill="#ebebeb"/>
      <path id="Path_42485" data-name="Path 42485" d="M163.87,370.06s29.678-4.2,29.418-4.069-29.418,0-29.418,0Z" transform="translate(-162.023 -286.621)" fill="#ebebeb"/>
      <g id="Group_56414" data-name="Group 56414" transform="translate(36.249 3.985)">
        <path id="Path_42486" data-name="Path 42486" d="M306.813,52.91c.034,0,.063,1.5.063,3.352s-.029,3.352-.063,3.352-.063-1.5-.063-3.352S306.776,52.91,306.813,52.91Z" transform="translate(-306.75 -52.91)" fill="#263238"/>
      </g>
      <g id="Group_56415" data-name="Group 56415" transform="translate(42.054 11.696)">
        <path id="Path_42487" data-name="Path 42487" d="M336.992,84.936c.014.031-1.348.662-3.041,1.411s-3.077,1.327-3.092,1.3,1.346-.662,3.041-1.411S336.978,84.9,336.992,84.936Z" transform="translate(-330.859 -84.934)" fill="#263238"/>
      </g>
      <g id="Group_56416" data-name="Group 56416" transform="translate(40.18)">
        <path id="Path_42488" data-name="Path 42488" d="M330.783,36.36a.58.58,0,0,1-.065.128c-.053.094-.123.209-.207.354-.181.308-.448.749-.785,1.288-.674,1.081-1.645,2.552-2.742,4.156s-2.08,3.065-2.774,4.132l-.819,1.266c-.091.14-.166.253-.226.342a.59.59,0,0,1-.087.116.579.579,0,0,1,.065-.128c.053-.094.123-.209.2-.354.181-.308.448-.746.785-1.288.674-1.081,1.645-2.552,2.745-4.156s2.08-3.063,2.771-4.132l.819-1.266c.091-.14.166-.253.226-.342A1.154,1.154,0,0,1,330.783,36.36Z" transform="translate(-323.078 -36.36)" fill="#263238"/>
      </g>
    </g>
    <g id="Speech_Bubbles" transform="translate(61.894 64.706)">
      <g id="Group_56422" data-name="Group 56422" transform="translate(24.333 0)">
        <path id="Path_42489" data-name="Path 42489" d="M246.367,154.09H192.084a2.124,2.124,0,0,0-2.124,2.124v16.838a2.124,2.124,0,0,0,2.124,2.124h4.045c.325,1.758.708,3.978.708,3.978l3.66-3.978h45.871a2.124,2.124,0,0,0,2.124-2.124V156.214A2.126,2.126,0,0,0,246.367,154.09Z" transform="translate(-189.96 -154.09)" fill="#077dbb"/>
        <g id="Group_56421" data-name="Group 56421" transform="translate(5.153 6.484)">
          <g id="Group_56417" data-name="Group 56417" transform="translate(0 2.586)">
            <path id="Path_42490" data-name="Path 42490" d="M240.217,191.823c0,.034-6.46.063-14.427.063s-14.43-.029-14.43-.063,6.46-.063,14.43-.063S240.217,191.789,240.217,191.823Z" transform="translate(-211.36 -191.76)" fill="#f5f5f5"/>
          </g>
          <g id="Group_56418" data-name="Group 56418">
            <path id="Path_42491" data-name="Path 42491" d="M240.217,181.083c0,.034-6.46.063-14.427.063s-14.43-.029-14.43-.063,6.46-.063,14.43-.063S240.217,181.046,240.217,181.083Z" transform="translate(-211.36 -181.02)" fill="#f5f5f5"/>
          </g>
          <g id="Group_56419" data-name="Group 56419" transform="translate(0 5.148)">
            <path id="Path_42492" data-name="Path 42492" d="M240.217,202.463c0,.034-6.46.063-14.427.063s-14.43-.029-14.43-.063,6.46-.063,14.43-.063S240.217,202.426,240.217,202.463Z" transform="translate(-211.36 -202.4)" fill="#f5f5f5"/>
          </g>
          <g id="Group_56420" data-name="Group 56420" transform="translate(0 7.799)">
            <path id="Path_42493" data-name="Path 42493" d="M230.261,213.473c0,.034-4.233.063-9.451.063s-9.451-.029-9.451-.063,4.23-.063,9.451-.063S230.261,213.436,230.261,213.473Z" transform="translate(-211.36 -213.41)" fill="#f5f5f5"/>
          </g>
        </g>
      </g>
      <g id="Group_56428" data-name="Group 56428" transform="translate(0 30.273)">
        <path id="Path_42494" data-name="Path 42494" d="M145.112,279.82H90.386a1.485,1.485,0,0,0-1.486,1.486v17.815a1.485,1.485,0,0,0,1.486,1.486h39.748l3.619,3.932s.38-2.21.7-3.932h10.662a1.485,1.485,0,0,0,1.486-1.486V281.306A1.485,1.485,0,0,0,145.112,279.82Z" transform="translate(-88.9 -279.82)" fill="#455a64"/>
        <g id="Group_56427" data-name="Group 56427" transform="translate(25.209 6.535)">
          <g id="Group_56423" data-name="Group 56423" transform="translate(0 2.588)">
            <path id="Path_42495" data-name="Path 42495" d="M222.457,317.773c0,.034-6.46.063-14.427.063s-14.43-.029-14.43-.063,6.46-.063,14.43-.063S222.457,317.736,222.457,317.773Z" transform="translate(-193.6 -317.71)" fill="#f5f5f5"/>
          </g>
          <g id="Group_56424" data-name="Group 56424">
            <path id="Path_42496" data-name="Path 42496" d="M222.457,307.023c0,.034-6.46.063-14.427.063s-14.43-.029-14.43-.063,6.46-.063,14.43-.063S222.457,306.986,222.457,307.023Z" transform="translate(-193.6 -306.96)" fill="#f5f5f5"/>
          </g>
          <g id="Group_56425" data-name="Group 56425" transform="translate(0 5.148)">
            <path id="Path_42497" data-name="Path 42497" d="M222.457,328.4c0,.034-6.46.063-14.427.063s-14.43-.029-14.43-.063,6.46-.063,14.43-.063S222.457,328.369,222.457,328.4Z" transform="translate(-193.6 -328.34)" fill="#f5f5f5"/>
          </g>
          <g id="Group_56426" data-name="Group 56426" transform="translate(0 7.799)">
            <path id="Path_42498" data-name="Path 42498" d="M212.5,339.413c0,.034-4.233.063-9.451.063s-9.451-.029-9.451-.063,4.23-.063,9.451-.063S212.5,339.379,212.5,339.413Z" transform="translate(-193.6 -339.35)" fill="#f5f5f5"/>
          </g>
        </g>
      </g>
    </g>
    <g id="Character_2" transform="translate(121.192 50.073)">
      <g id="Group_56484" data-name="Group 56484" transform="translate(0 0)">
        <g id="Group_56472" data-name="Group 56472">
          <path id="Path_42499" data-name="Path 42499" d="M372.557,100.806a2.191,2.191,0,0,1,.727-1.4,1.441,1.441,0,0,0,.4-1.534c-.147-.547-.494-.506-.631-.828a2.468,2.468,0,0,1-.079-.768,1.6,1.6,0,0,0-1.907-1.358,2.216,2.216,0,0,0-4.086-.424,1.7,1.7,0,0,0-2.482,1.384,1.244,1.244,0,0,0-1.613.243,1.528,1.528,0,0,0-.116,1.683,2,2,0,0,0,1.447.953,2.935,2.935,0,0,0,1.738-.315,5.641,5.641,0,0,0,1.425-1.076" transform="translate(-354.226 -93.314)" fill="#263238"/>
          <ellipse id="Ellipse_4279" data-name="Ellipse 4279" cx="10.423" cy="10.18" rx="10.423" ry="10.18" transform="translate(3.97 14.802)" fill="#e0e0e0"/>
          <g id="Group_56467" data-name="Group 56467" transform="translate(0 2.484)">
            <g id="Group_56461" data-name="Group 56461" transform="translate(2.815)">
              <path id="Path_42500" data-name="Path 42500" d="M405.41,187.769l1.153-2.959,4.134,2.6-3.684,5.682A9.752,9.752,0,0,1,405.41,187.769Z" transform="translate(-404.298 -165.264)" fill="#eb996e"/>
              <g id="Group_56452" data-name="Group 56452" transform="translate(6.501)">
                <g id="Group_56451" data-name="Group 56451">
                  <g id="Group_56450" data-name="Group 56450" transform="translate(0.405 0.417)">
                    <g id="Group_56447" data-name="Group 56447">
                      <g id="Group_56442" data-name="Group 56442" transform="translate(0)">
                        <g id="Group_56441" data-name="Group 56441">
                          <g id="Group_56429" data-name="Group 56429">
                            <path id="Path_42501" data-name="Path 42501" d="M374.031,121.045h0a2.774,2.774,0,0,1-2.786-2.622c-.06-1.226-.113-2.405-.113-2.405a2.7,2.7,0,0,1-2.485-2.389c-.209-2.225-.238-7.365-.238-7.365h0a7.9,7.9,0,0,1,7.924.344l.217.14.262,11.507A2.773,2.773,0,0,1,374.031,121.045Z" transform="translate(-368.409 -105.361)" fill="#ffbe9d"/>
                          </g>
                          <g id="Group_56433" data-name="Group 56433" transform="translate(3.688 4.088)">
                            <g id="Group_56430" data-name="Group 56430" transform="translate(0.405 0.218)">
                              <path id="Path_42502" data-name="Path 42502" d="M383.813,123.265a.323.323,0,0,0-.207.409.327.327,0,0,0,.414.2.323.323,0,0,0,.207-.409A.327.327,0,0,0,383.813,123.265Z" transform="translate(-383.589 -123.248)" fill="#263238"/>
                            </g>
                            <g id="Group_56432" data-name="Group 56432" transform="translate(0)">
                              <g id="Group_56431" data-name="Group 56431">
                                <path id="Path_42503" data-name="Path 42503" d="M383.25,122.693c.039.036.248-.144.559-.164s.544.125.575.084c.017-.019-.024-.087-.125-.154a.764.764,0,0,0-.9.065C383.262,122.6,383.231,122.676,383.25,122.693Z" transform="translate(-383.245 -122.341)" fill="#263238"/>
                              </g>
                            </g>
                          </g>
                          <g id="Group_56437" data-name="Group 56437" transform="translate(0.252 4.094)">
                            <g id="Group_56434" data-name="Group 56434" transform="translate(0.446 0.213)">
                              <path id="Path_42504" data-name="Path 42504" d="M397.913,123.265a.323.323,0,0,0-.207.409.327.327,0,0,0,.414.2.323.323,0,0,0,.207-.409A.327.327,0,0,0,397.913,123.265Z" transform="translate(-397.689 -123.248)" fill="#263238"/>
                            </g>
                            <g id="Group_56436" data-name="Group 56436">
                              <g id="Group_56435" data-name="Group 56435">
                                <path id="Path_42505" data-name="Path 42505" d="M397.52,122.714c.039.036.248-.144.559-.164s.544.125.575.084c.017-.019-.024-.087-.125-.154a.772.772,0,0,0-.462-.116.754.754,0,0,0-.441.181C397.53,122.628,397.5,122.7,397.52,122.714Z" transform="translate(-397.515 -122.364)" fill="#263238"/>
                              </g>
                            </g>
                          </g>
                          <g id="Group_56439" data-name="Group 56439" transform="translate(1.767 4.17)">
                            <g id="Group_56438" data-name="Group 56438" transform="translate(0)">
                              <path id="Path_42506" data-name="Path 42506" d="M393.366,125.359a1.5,1.5,0,0,0-.508-.065c-.082,0-.147-.014-.156-.058a.418.418,0,0,1,.039-.234c.063-.209.128-.421.193-.643a8.382,8.382,0,0,0,.395-1.681,8.51,8.51,0,0,0-.566,1.632c-.063.224-.123.436-.181.645a.51.51,0,0,0-.017.337.217.217,0,0,0,.149.118.581.581,0,0,0,.14.007A1.522,1.522,0,0,0,393.366,125.359Z" transform="translate(-392.54 -122.679)" fill="#263238"/>
                            </g>
                          </g>
                          <g id="Group_56440" data-name="Group 56440" transform="translate(2.718 9.563)">
                            <path id="Path_42507" data-name="Path 42507" d="M380.14,146.142A5.271,5.271,0,0,0,383,145.08a2.774,2.774,0,0,1-2.82,1.637Z" transform="translate(-380.14 -145.08)" fill="#eb996e"/>
                          </g>
                        </g>
                      </g>
                      <g id="Group_56446" data-name="Group 56446" transform="translate(8.196 4.306)">
                        <g id="Group_56443" data-name="Group 56443" transform="translate(0)">
                          <path id="Path_42508" data-name="Path 42508" d="M362.952,123.59a.339.339,0,0,1,.318-.344c.419-.019,1.11.132,1.2,1.279a1.079,1.079,0,0,1-1.481,1.214C362.979,125.7,362.959,124.228,362.952,123.59Z" transform="translate(-362.952 -123.244)" fill="#ffbe9d"/>
                        </g>
                        <g id="Group_56445" data-name="Group 56445" transform="translate(0.382 0.521)">
                          <g id="Group_56444" data-name="Group 56444">
                            <path id="Path_42509" data-name="Path 42509" d="M364.8,126.729c.007,0,.031.017.079.036a.293.293,0,0,0,.214-.012.707.707,0,0,0,.282-.657.932.932,0,0,0-.111-.4.331.331,0,0,0-.234-.2.146.146,0,0,0-.164.091c-.019.048,0,.079-.014.082s-.039-.024-.029-.094a.193.193,0,0,1,.058-.108.21.21,0,0,1,.157-.053.409.409,0,0,1,.32.231,1,1,0,0,1,.135.448.743.743,0,0,1-.366.739.31.31,0,0,1-.267-.024C364.8,126.77,364.792,126.734,364.8,126.729Z" transform="translate(-364.796 -125.409)" fill="#eb996e"/>
                          </g>
                        </g>
                      </g>
                    </g>
                    <g id="Group_56448" data-name="Group 56448" transform="translate(3.688 3.121)">
                      <path id="Path_42510" data-name="Path 42510" d="M383.287,118.768c-.082.106-.366.055-.737.041s-.657-.014-.725-.13.282-.392.756-.352C383.058,118.346,383.379,118.659,383.287,118.768Z" transform="translate(-381.815 -118.323)" fill="#263238"/>
                    </g>
                    <g id="Group_56449" data-name="Group 56449" transform="translate(0.321 3.106)">
                      <path id="Path_42511" data-name="Path 42511" d="M398.071,118.611c-.046.142-.315.185-.616.183s-.571-.055-.612-.2.231-.342.619-.335S398.117,118.471,398.071,118.611Z" transform="translate(-396.839 -118.259)" fill="#263238"/>
                    </g>
                  </g>
                  <path id="Path_42512" data-name="Path 42512" d="M368.428,105.653a3.7,3.7,0,0,0,3.106-.224c1.153-.575,2.494-.857,2.791-.624s.359,1.418,1.5,1.765c0,0-.079,2.266.826,2.184s.34-3.59.34-3.59l-2.21-1.079-2.41-.455-2.273.32-1.758.482Z" transform="translate(-368.339 -103.63)" fill="#263238"/>
                </g>
              </g>
              <g id="Group_56460" data-name="Group 56460" transform="translate(0 11.283)">
                <g id="Group_56456" data-name="Group 56456" transform="translate(0 1.679)">
                  <path id="Path_42513" data-name="Path 42513" d="M363.523,159.635c-2.362-2.429-6.518-2.162-6.518-2.162l-3.446,2.466-1.953-2.275a12.7,12.7,0,0,0-3.978,1.23l-.132.041,0,.026a35.684,35.684,0,0,0-5.69,4.7l2.439,2.263,2.7,2.4a.079.079,0,0,0,0,.048c.029.144-.376,3.443-.79,5.947a10.157,10.157,0,0,0,9.073,2.74,26.277,26.277,0,0,0,2.661-.732,3.7,3.7,0,0,0,2.742-3.265h0c.183-2.1.325-4.7.325-4.7" transform="translate(-341.81 -157.464)" fill="#455a64"/>
                  <g id="Group_56453" data-name="Group 56453" transform="translate(5.161 0.623)">
                    <path id="Path_42514" data-name="Path 42514" d="M402.743,160.05a2.884,2.884,0,0,0-.149.388c-.089.253-.209.619-.352,1.074-.284.91-.648,2.179-.99,3.595s-.6,2.711-.761,3.65c-.082.47-.142.852-.178,1.115a3.166,3.166,0,0,0-.046.412,2.494,2.494,0,0,0,.094-.4c.055-.282.128-.655.217-1.108.185-.934.455-2.225.795-3.638s.689-2.682.951-3.6c.128-.443.234-.809.313-1.086A2.569,2.569,0,0,0,402.743,160.05Z" transform="translate(-400.266 -160.05)" fill="#263238"/>
                  </g>
                  <g id="Group_56454" data-name="Group 56454" transform="translate(0.741 5.488)">
                    <path id="Path_42515" data-name="Path 42515" d="M414.157,184.072c.022-.026-1.009-.9-2.3-1.955s-2.357-1.885-2.379-1.859,1.009.9,2.3,1.955S414.133,184.1,414.157,184.072Z" transform="translate(-409.479 -180.257)" fill="#263238"/>
                  </g>
                  <path id="Path_42516" data-name="Path 42516" d="M346.026,180.32l2.114,6.951-.787.409-.775-1.967S345.783,181.584,346.026,180.32Z" transform="translate(-327.431 -174.817)" opacity="0.2"/>
                  <g id="Group_56455" data-name="Group 56455" transform="translate(7.604 0.165)" opacity="0.2">
                    <path id="Path_42517" data-name="Path 42517" d="M387.1,158.612c-1.139.6,1.717,2.047,3,2.008l-.937-2.47A12.623,12.623,0,0,0,387.1,158.612Z" transform="translate(-386.84 -158.15)"/>
                  </g>
                </g>
                <path id="Path_42518" data-name="Path 42518" d="M373.769,152.332V150.49s-3.595.925-3.727,3.077c0,0-.457-2.379-2.309-2.492l-.262,3.344,2.155,1.876h2.186l1.731-1.493.226-2.324" transform="translate(-358.234 -150.49)" fill="#455a64"/>
                <g id="Group_56457" data-name="Group 56457" transform="translate(10.894 3.405)">
                  <path id="Path_42519" data-name="Path 42519" d="M382.96,174.622a2.413,2.413,0,0,0,.007-.395c0-.255-.01-.624-.012-1.076,0-.91.026-2.165.14-3.547s.294-2.627.448-3.523c.077-.431.14-.79.188-1.059a2.747,2.747,0,0,0,.06-.392,2.253,2.253,0,0,0-.106.38c-.063.248-.14.607-.229,1.055a33,33,0,0,0-.59,7.086c.012.455.031.823.051,1.079A2.99,2.99,0,0,0,382.96,174.622Z" transform="translate(-382.854 -164.63)" fill="#263238"/>
                </g>
                <g id="Group_56458" data-name="Group 56458" transform="translate(11.974 1.493)">
                  <path id="Path_42520" data-name="Path 42520" d="M366.921,157.655a.424.424,0,0,1,.214.019c.137.043.26.214.361.46a10.369,10.369,0,0,1,.684,1.989l.019.082.072-.043c.214-.13.436-.27.657-.421a12.682,12.682,0,0,0,1.165-.886,1.459,1.459,0,0,0,.4-.52,1.576,1.576,0,0,0,.12-.556,3.232,3.232,0,0,0-.079-.8,1.1,1.1,0,0,0-.079-.284,1.384,1.384,0,0,0,.031.294,3.746,3.746,0,0,1,.039.792,1.568,1.568,0,0,1-.128.518,1.367,1.367,0,0,1-.378.474c-.339.284-.734.58-1.161.869-.219.149-.438.289-.65.419l.091.039a9.011,9.011,0,0,0-.732-2,1.587,1.587,0,0,0-.19-.311.489.489,0,0,0-.229-.157C367,157.593,366.916,157.653,366.921,157.655Z" transform="translate(-366.921 -156.69)" fill="#263238"/>
                </g>
                <g id="Group_56459" data-name="Group 56459" transform="translate(9.208 0.585)">
                  <path id="Path_42521" data-name="Path 42521" d="M384.378,152.92a1.269,1.269,0,0,0-.034.287c-.014.212-.034.474-.058.783-.026.33-.067.722-.135,1.153a1.928,1.928,0,0,0-.043.705,1.21,1.21,0,0,0,.472.6,5.16,5.16,0,0,1,.792.6l.1.108.01-.144a4.294,4.294,0,0,1,.532-1.794c.229-.409.417-.621.4-.633s-.055.043-.142.142a3.329,3.329,0,0,0-.325.453,4.087,4.087,0,0,0-.585,1.823l.106-.036a4.945,4.945,0,0,0-.807-.621,1.12,1.12,0,0,1-.429-.535,1.917,1.917,0,0,1,.039-.66c.063-.436.094-.833.108-1.165s.019-.6.017-.787A1.173,1.173,0,0,0,384.378,152.92Z" transform="translate(-384.087 -152.92)" fill="#263238"/>
                </g>
              </g>
            </g>
            <g id="Group_56466" data-name="Group 56466" transform="translate(0 12.33)">
              <g id="Group_56463" data-name="Group 56463" transform="translate(0)">
                <path id="Path_42522" data-name="Path 42522" d="M418.759,154.84c.147.173,5.439,7.25,5.439,7.25l-.746.421-5.432-6.987Z" transform="translate(-418.02 -154.84)" fill="#263238"/>
                <path id="Path_42523" data-name="Path 42523" d="M360.84,170.961s-5.569,8.016-5.9,8.174c-.662.311-8.28-6.275-9.008-6.9-.1-.135-.306-.417-.713-.978,0,0-.6-2.75-1.242-2.54s.352,1.4-.067,2.444-2.331-1.447-2.408-1.671l-.494-.645a8.411,8.411,0,0,0-.482,2.08c.113,1.962,1.97,4.3,1.97,4.3s8.338,10.329,14.049,10.65c1.645.091,4.568-4.575,6.523-8.076a4.788,4.788,0,0,0-1.365-6.2Z" transform="translate(-338.833 -165.365)" fill="#ffbe9d"/>
                <g id="Group_56462" data-name="Group 56462" transform="translate(1.907 4.452)">
                  <path id="Path_42524" data-name="Path 42524" d="M433.484,174.782a122.407,122.407,0,0,0-.717-1.452,4.546,4.546,0,0,0,.717,1.452Z" transform="translate(-432.764 -173.33)" fill="#eb996e"/>
                </g>
              </g>
              <g id="Group_56465" data-name="Group 56465" transform="translate(17.5 1.683)">
                <path id="Path_42525" data-name="Path 42525" d="M340.541,161.83s5.979,2.126,1.534,12.176l-6.9-4.165.982-2.35Z" transform="translate(-335.092 -161.83)" fill="#cbe2ef"/>
                <g id="Group_56464" data-name="Group 56464" transform="translate(0 0.167)">
                  <path id="Path_42526" data-name="Path 42526" d="M347.916,162.532a2.071,2.071,0,0,0-.72.06,2.976,2.976,0,0,0-.785.33,4.206,4.206,0,0,0-.872.715,10.424,10.424,0,0,0-1.623,2.425c-.506.978-.978,2.09-1.462,3.26-.144.352-.289.7-.424,1.023l-.022.053.048.026c2,1.088,3.734,2.107,4.965,2.87.614.38,1.105.693,1.44.91l.388.248a.7.7,0,0,0,.14.079.78.78,0,0,0-.125-.1c-.084-.063-.209-.154-.376-.267-.327-.229-.811-.554-1.421-.944-1.218-.783-2.952-1.815-4.948-2.909l.026.079c.135-.327.279-.672.424-1.023.484-1.17.951-2.28,1.449-3.255A10.666,10.666,0,0,1,345.6,163.7a4.258,4.258,0,0,1,.843-.715,3.083,3.083,0,0,1,.758-.344A4.281,4.281,0,0,1,347.916,162.532Z" transform="translate(-342.01 -162.523)" fill="#263238"/>
                </g>
              </g>
            </g>
          </g>
          <g id="Group_56468" data-name="Group 56468" transform="translate(10.5 1.769)">
            <path id="Path_42527" data-name="Path 42527" d="M379.858,100.66a.344.344,0,0,0-.029.106,1.271,1.271,0,0,0-.017.313,1.647,1.647,0,0,0,.455,1.043,1.629,1.629,0,0,0,1.608.407,1.415,1.415,0,0,0,.823-.6.847.847,0,0,0,.123-.544.7.7,0,0,0-.3-.5.6.6,0,0,0-.578-.036.734.734,0,0,0-.395.4,1.054,1.054,0,0,0,.159,1,1.259,1.259,0,0,0,1.579.344,2.706,2.706,0,0,1,.595-.229.762.762,0,0,1,.46.048,2.129,2.129,0,0,1,.342.226.411.411,0,0,0-.07-.082.629.629,0,0,0-.1-.089.741.741,0,0,0-.154-.1.776.776,0,0,0-.494-.072,2.649,2.649,0,0,0-.619.217,1.831,1.831,0,0,1-.347.116,1.054,1.054,0,0,1-.388-.007,1.137,1.137,0,0,1-.715-.438.944.944,0,0,1-.137-.886.57.57,0,0,1,.792-.3.585.585,0,0,1,.241.409.706.706,0,0,1-.106.465,1.308,1.308,0,0,1-.751.549,1.537,1.537,0,0,1-1.515-.359,1.624,1.624,0,0,1-.47-.985A3.746,3.746,0,0,1,379.858,100.66Z" transform="translate(-379.809 -100.66)" fill="#455a64"/>
          </g>
          <g id="Group_56469" data-name="Group 56469" transform="translate(11.851 10.253)">
            <path id="Path_42528" data-name="Path 42528" d="M389.552,136.492c0,.014.075.046.207.053a1.043,1.043,0,0,0,.5-.116,1.059,1.059,0,0,0,.39-.335c.075-.111.094-.19.079-.2a2.83,2.83,0,0,1-.527.419A2.763,2.763,0,0,1,389.552,136.492Z" transform="translate(-389.552 -135.896)" fill="#263238"/>
          </g>
          <g id="Group_56470" data-name="Group 56470" transform="translate(18.129 9.375)">
            <path id="Path_42529" data-name="Path 42529" d="M365,132.66c-.012-.01-.079.106.01.272a.406.406,0,0,0,.246.2.411.411,0,0,0,.373-.1.452.452,0,0,0,.159-.349.486.486,0,0,0-.111-.289c-.116-.135-.234-.149-.236-.135s.084.06.164.188a.373.373,0,0,1-.058.491.317.317,0,0,1-.265.079.331.331,0,0,1-.2-.13C365,132.769,365.024,132.663,365,132.66Z" transform="translate(-364.969 -132.251)" fill="#263238"/>
          </g>
          <g id="Group_56471" data-name="Group 56471" transform="translate(10.034 2.58)">
            <path id="Path_42530" data-name="Path 42530" d="M394.668,104.03a.782.782,0,0,0-.116.443,1.518,1.518,0,0,0,.356,1.043,1.5,1.5,0,0,0,.982.5.788.788,0,0,0,.455-.053c0-.022-.176.01-.443-.036a1.488,1.488,0,0,1-1.262-1.454C394.634,104.2,394.689,104.034,394.668,104.03Z" transform="translate(-394.55 -104.03)" fill="#455a64"/>
          </g>
        </g>
        <g id="Group_56473" data-name="Group 56473" transform="translate(18.294 22.725)">
          <path id="Path_42531" data-name="Path 42531" d="M338.01,187.7c-.014.031,1.572.848,3.547,1.823s3.585,1.741,3.6,1.712-1.572-.848-3.547-1.823S338.024,187.666,338.01,187.7Z" transform="translate(-338.01 -187.696)" fill="#e0e0e0"/>
        </g>
        <g id="Group_56474" data-name="Group 56474" transform="translate(19.741 19.995)">
          <path id="Path_42532" data-name="Path 42532" d="M335.22,176.357c-.017.031,1.4.821,3.157,1.765s3.2,1.685,3.217,1.654-1.4-.821-3.157-1.765S335.236,176.326,335.22,176.357Z" transform="translate(-335.219 -176.356)" fill="#e0e0e0"/>
        </g>
        <g id="Group_56475" data-name="Group 56475" transform="translate(21.14 17.786)">
          <path id="Path_42533" data-name="Path 42533" d="M335.609,167.185a5.855,5.855,0,0,0,.708.419l1.729.966,1.719.98a5.48,5.48,0,0,0,.725.388,4.892,4.892,0,0,0-.679-.465c-.429-.272-1.028-.633-1.7-1.014s-1.3-.708-1.748-.934A4.848,4.848,0,0,0,335.609,167.185Z" transform="translate(-335.609 -167.184)" fill="#e0e0e0"/>
        </g>
        <g id="Group_56476" data-name="Group 56476" transform="translate(15.85 15.261)">
          <path id="Path_42534" data-name="Path 42534" d="M367.486,158.7a1.132,1.132,0,0,0,.465-.125,3.537,3.537,0,0,0,.973-.633,6.706,6.706,0,0,0,.785-.85,1.743,1.743,0,0,0,.272-.395,1.911,1.911,0,0,0-.34.337,11.178,11.178,0,0,1-.8.814,4.468,4.468,0,0,1-.927.648A4.692,4.692,0,0,0,367.486,158.7Z" transform="translate(-367.486 -156.697)" fill="#e0e0e0"/>
        </g>
        <g id="Group_56477" data-name="Group 56477" transform="translate(12.336 15.96)">
          <path id="Path_42535" data-name="Path 42535" d="M387.043,159.6a1.681,1.681,0,0,0,1.3,1.093c.012-.036-.359-.161-.715-.465A8.511,8.511,0,0,1,387.043,159.6Z" transform="translate(-387.039 -159.598)" fill="#e0e0e0"/>
        </g>
        <g id="Group_56478" data-name="Group 56478" transform="translate(6.077 19.58)">
          <path id="Path_42536" data-name="Path 42536" d="M362.91,174.639a.56.56,0,0,0,.135.024l.388.048c.337.036.826.084,1.428.13,1.209.1,2.88.19,4.727.258s3.52.089,4.734.079c.607,0,1.1-.017,1.435-.029l.39-.019a.657.657,0,0,0,.135-.014.562.562,0,0,0-.137-.01l-.39,0-1.433-.012c-1.211-.012-2.882-.051-4.729-.116s-3.515-.147-4.724-.222c-.59-.039-1.076-.067-1.43-.092l-.39-.024A.509.509,0,0,0,362.91,174.639Z" transform="translate(-362.91 -174.635)" fill="#e0e0e0"/>
        </g>
        <g id="Group_56479" data-name="Group 56479" transform="translate(7.979 22.435)">
          <path id="Path_42537" data-name="Path 42537" d="M368.35,186.495a2.215,2.215,0,0,0,.395.063c.255.031.626.072,1.086.113.917.084,2.186.171,3.59.229s2.677.072,3.6.063c.46,0,.833-.014,1.091-.024a2.328,2.328,0,0,0,.4-.031,2.388,2.388,0,0,0-.4-.019c-.279,0-.645-.01-1.091-.014-.92-.012-2.191-.041-3.592-.1s-2.67-.13-3.59-.193c-.443-.029-.809-.055-1.088-.072A2.072,2.072,0,0,0,368.35,186.495Z" transform="translate(-368.35 -186.49)" fill="#e0e0e0"/>
        </g>
        <g id="Group_56480" data-name="Group 56480" transform="translate(12.297 25.953)">
          <path id="Path_42538" data-name="Path 42538" d="M369.84,201.107a4.682,4.682,0,0,0,.8.113c.5.051,1.18.106,1.938.144s1.445.051,1.943.051a4.815,4.815,0,0,0,.8-.034,5.838,5.838,0,0,0-.8-.055l-1.938-.087-1.938-.106A5.736,5.736,0,0,0,369.84,201.107Z" transform="translate(-369.84 -201.1)" fill="#e0e0e0"/>
        </g>
        <g id="Group_56481" data-name="Group 56481" transform="translate(17.813 17.547)">
          <path id="Path_42539" data-name="Path 42539" d="M356,166.248c0,.036.739.043,1.649.082s1.647.089,1.649.053a12.345,12.345,0,0,0-3.3-.135Z" transform="translate(-356 -166.191)" fill="#e0e0e0"/>
        </g>
        <g id="Group_56482" data-name="Group 56482" transform="translate(7.654 17.404)">
          <path id="Path_42540" data-name="Path 42540" d="M394.12,165.668a18.356,18.356,0,0,0,2.141.055,18.719,18.719,0,0,0,2.138-.07,18.355,18.355,0,0,0-2.141-.055A17.541,17.541,0,0,0,394.12,165.668Z" transform="translate(-394.12 -165.598)" fill="#e0e0e0"/>
        </g>
        <g id="Group_56483" data-name="Group 56483" transform="translate(7.286 32.124)">
          <path id="Path_42541" data-name="Path 42541" d="M387.68,226.735a.932.932,0,0,0,.219.125c.144.075.359.173.626.284a13.714,13.714,0,0,0,4.411,1.016c.291.017.525.022.689.017a1.07,1.07,0,0,0,.253-.017c0-.019-.359-.034-.934-.089a17.679,17.679,0,0,1-2.227-.359,17.241,17.241,0,0,1-2.157-.652C388.017,226.86,387.687,226.715,387.68,226.735Z" transform="translate(-387.68 -226.733)" fill="#e0e0e0"/>
        </g>
      </g>
    </g>
    <g id="Character_1" transform="translate(60.293 80.174)">
      <g id="Group_56540" data-name="Group 56540" transform="translate(0 0)">
        <ellipse id="Ellipse_4280" data-name="Ellipse 4280" cx="10.423" cy="9.944" rx="10.423" ry="9.944" transform="translate(0 14.909)" fill="#e0e0e0"/>
        <g id="Group_56517" data-name="Group 56517" transform="translate(1.822)">
          <path id="Path_42542" data-name="Path 42542" d="M116.2,221.98c1.654.087,2.3,1.811,2.5,2.2a3.343,3.343,0,0,1,.265,1.262,2.721,2.721,0,0,0,.318,1.245c.364.58,1.129.881,1.336,1.534.236.739-.368,1.529-.207,2.287.087.407.383.742.489,1.144a1.677,1.677,0,0,1-.224,1.25,3.28,3.28,0,0,1-2.747,1.44,9.662,9.662,0,0,1-3.166-.6" transform="translate(-105.473 -221.101)" fill="#263238"/>
          <path id="Path_42543" data-name="Path 42543" d="M161.949,230.88a1.026,1.026,0,0,1-.246,1.064,6.58,6.58,0,0,1-.9.73,1.463,1.463,0,0,0-.612.944c-.031.352.144.7.1,1.052-.123.9-1.56,1.173-1.637,2.078-.051.6.568,1.158.4,1.738a2.753,2.753,0,0,1-.359.595,1.766,1.766,0,0,0,.46,2.136,3.521,3.521,0,0,0,2.2.746,2.072,2.072,0,0,0,1.811-.616,2.474,2.474,0,0,0,.212-1.767,61.624,61.624,0,0,1-.219-8.514" transform="translate(-158.501 -227.858)" fill="#263238"/>
          <g id="Group_56508" data-name="Group 56508" transform="translate(2.728 0.678)">
            <g id="Group_56507" data-name="Group 56507">
              <g id="Group_56506" data-name="Group 56506">
                <g id="Group_56500" data-name="Group 56500" transform="translate(1.79 1.446)">
                  <g id="Group_56485" data-name="Group 56485">
                    <path id="Path_42544" data-name="Path 42544" d="M132.144,241.106c-.012-1.483,0-3.043,0-3.043a3.1,3.1,0,0,0,2.273-2.836,41.672,41.672,0,0,0-.243-7.5h0a6.829,6.829,0,0,0-7.8,1.555h0l.3,12.039a2.583,2.583,0,0,0,2.759,2.432h0A2.728,2.728,0,0,0,132.144,241.106Z" transform="translate(-126.372 -227.15)" fill="#ffbe9d"/>
                  </g>
                  <g id="Group_56489" data-name="Group 56489" transform="translate(6.535 3.932)">
                    <g id="Group_56486" data-name="Group 56486" transform="translate(0.113 0.291)">
                      <path id="Path_42545" data-name="Path 42545" d="M130.635,244.972a.317.317,0,0,1-.3.325.3.3,0,0,1-.332-.284.317.317,0,0,1,.3-.325A.306.306,0,0,1,130.635,244.972Z" transform="translate(-129.999 -244.688)" fill="#263238"/>
                    </g>
                    <g id="Group_56488" data-name="Group 56488" transform="translate(0)">
                      <g id="Group_56487" data-name="Group 56487">
                        <path id="Path_42546" data-name="Path 42546" d="M129.111,243.81c-.039.043-.284-.135-.626-.13-.648.094-.636.193-.631.137-.019-.019.022-.094.13-.176a.863.863,0,0,1,.506-.161.842.842,0,0,1,.5.154C129.094,243.716,129.13,243.79,129.111,243.81Z" transform="translate(-127.849 -243.48)" fill="#263238"/>
                      </g>
                    </g>
                  </g>
                  <g id="Group_56493" data-name="Group 56493" transform="translate(2.95 4.05)">
                    <g id="Group_56490" data-name="Group 56490" transform="translate(0.178 0.276)">
                      <path id="Path_42547" data-name="Path 42547" d="M145.255,245.4a.317.317,0,0,1-.3.325.3.3,0,0,1-.332-.284.317.317,0,0,1,.3-.325A.3.3,0,0,1,145.255,245.4Z" transform="translate(-144.619 -245.117)" fill="#263238"/>
                    </g>
                    <g id="Group_56492" data-name="Group 56492">
                      <g id="Group_56491" data-name="Group 56491">
                        <path id="Path_42548" data-name="Path 42548" d="M144,244.3c-.039.043-.284-.135-.626-.13s-.595.181-.631.137c-.019-.019.022-.094.13-.176a.863.863,0,0,1,.506-.161.842.842,0,0,1,.5.154C143.984,244.206,144.02,244.28,144,244.3Z" transform="translate(-142.739 -243.97)" fill="#263238"/>
                      </g>
                    </g>
                  </g>
                  <g id="Group_56495" data-name="Group 56495" transform="translate(5.294 3.982)">
                    <g id="Group_56494" data-name="Group 56494">
                      <path id="Path_42549" data-name="Path 42549" d="M134.023,246.555a2.387,2.387,0,0,1,.556-.108c.087-.01.171-.029.185-.089a.441.441,0,0,0-.063-.26q-.126-.318-.267-.665a11.907,11.907,0,0,1-.6-1.743,11.42,11.42,0,0,1,.742,1.69c.089.234.176.457.258.669a.512.512,0,0,1,.051.344.228.228,0,0,1-.142.13.6.6,0,0,1-.149.022A2.252,2.252,0,0,1,134.023,246.555Z" transform="translate(-133.827 -243.689)" fill="#263238"/>
                    </g>
                  </g>
                  <g id="Group_56496" data-name="Group 56496" transform="translate(2.427 10.06)">
                    <path id="Path_42550" data-name="Path 42550" d="M139.617,269.782a6.331,6.331,0,0,1-3.347-.852,3.158,3.158,0,0,0,3.32,1.44Z" transform="translate(-136.27 -268.93)" fill="#eb996e"/>
                  </g>
                  <g id="Group_56497" data-name="Group 56497" transform="translate(4.33 7.447)">
                    <path id="Path_42551" data-name="Path 42551" d="M138.9,258.309a.621.621,0,0,0-.559-.224.56.56,0,0,0-.388.214.356.356,0,0,0-.022.409.416.416,0,0,0,.453.108,1.3,1.3,0,0,0,.436-.267.392.392,0,0,0,.1-.1.117.117,0,0,0,0-.128" transform="translate(-137.876 -258.081)" fill="#eb996e"/>
                  </g>
                  <g id="Group_56499" data-name="Group 56499" transform="translate(4.425 7.096)">
                    <g id="Group_56498" data-name="Group 56498" transform="translate(0)">
                      <path id="Path_42552" data-name="Path 42552" d="M137.113,256.62c.055,0,.06.368.383.631s.72.217.722.267c0,.024-.087.075-.255.079a.931.931,0,0,1-.6-.2.81.81,0,0,1-.3-.53C137.048,256.711,137.089,256.617,137.113,256.62Z" transform="translate(-137.059 -256.62)" fill="#263238"/>
                    </g>
                  </g>
                </g>
                <g id="Group_56501" data-name="Group 56501" transform="translate(2.859)">
                  <path id="Path_42553" data-name="Path 42553" d="M126.276,222.944a9.243,9.243,0,0,0,5.054,2.947c-.2-.265-1.264-.92-1.466-1.185a6.138,6.138,0,0,0,2.945,1.421.613.613,0,0,0,.356-.055.481.481,0,0,0,.181-.392,10.422,10.422,0,0,0-.072-2.258,2.5,2.5,0,0,0-.9-1.611,4.306,4.306,0,0,0-2.516-.662,5.667,5.667,0,0,0-2.218.3,2.081,2.081,0,0,0-1.377,1.454" transform="translate(-126.264 -221.144)" fill="#263238"/>
                </g>
                <g id="Group_56502" data-name="Group 56502" transform="translate(0 0.288)">
                  <path id="Path_42554" data-name="Path 42554" d="M147.217,229.676a13.82,13.82,0,0,1-.248-1.666c-.075-1.286.3-6.031,4.731-5.649l.178,1.351s.686,4.621-2.181,4.657a5.157,5.157,0,0,1-1.457,2.716s-.754-.024-1.023-1.409" transform="translate(-146.961 -222.339)" fill="#263238"/>
                </g>
                <g id="Group_56503" data-name="Group 56503" transform="translate(1.277 6.287)">
                  <path id="Path_42555" data-name="Path 42555" d="M157.277,247.281a1.488,1.488,0,0,0-.8.06,1.031,1.031,0,0,0-.58.539,1.085,1.085,0,0,0,0,.8,1.82,1.82,0,0,0,.462.665,1.24,1.24,0,0,0,.486.315.6.6,0,0,0,.554-.091" transform="translate(-155.82 -247.253)" fill="#ffbe9d"/>
                </g>
                <g id="Group_56505" data-name="Group 56505" transform="translate(1.833 6.659)">
                  <g id="Group_56504" data-name="Group 56504" transform="translate(0)">
                    <path id="Path_42556" data-name="Path 42556" d="M157.612,250.072c.031.01-.084.171-.327.108a.519.519,0,0,1-.3-.26,1.155,1.155,0,0,1-.137-.441.682.682,0,0,1,.108-.47.468.468,0,0,1,.347-.212c.25-.01.33.164.3.169-.019.022-.118-.067-.282-.026a.45.45,0,0,0-.272.518.746.746,0,0,0,.289.585C157.487,250.121,157.6,250.051,157.612,250.072Z" transform="translate(-156.839 -248.798)" fill="#eb996e"/>
                  </g>
                </g>
              </g>
            </g>
          </g>
          <path id="Path_42557" data-name="Path 42557" d="M158.954,220.442a1.509,1.509,0,0,1-2.044-.537.966.966,0,0,1-.14-.722.993.993,0,0,1,.744-.645,1.528,1.528,0,0,1,1.4.335,1.337,1.337,0,0,1,.361,1.372,1.194,1.194,0,0,1-1.151.795" transform="translate(-153.976 -218.451)" fill="#263238"/>
          <path id="Path_42558" data-name="Path 42558" d="M156.117,256.44a3.536,3.536,0,0,1,.689.595,1.2,1.2,0,0,1,.3.838,2.127,2.127,0,0,0-.055.506,1.719,1.719,0,0,0,.349.6,1.425,1.425,0,0,1-.226,1.673,2.323,2.323,0,0,1-1.637.667,1.4,1.4,0,0,1-1.592-1.579" transform="translate(-151.542 -247.264)" fill="#263238"/>
          <g id="Group_56509" data-name="Group 56509" transform="translate(4.273 2.985)">
            <path id="Path_42559" data-name="Path 42559" d="M150.22,230.728a1.683,1.683,0,0,0,.262.455,5.271,5.271,0,0,0,1.907,1.637,1.641,1.641,0,0,0,.489.19,11.382,11.382,0,0,1-1.459-.99A11.143,11.143,0,0,1,150.22,230.728Z" transform="translate(-150.218 -230.727)" fill="#455a64"/>
          </g>
          <g id="Group_56510" data-name="Group 56510" transform="translate(3.809 2.959)">
            <path id="Path_42560" data-name="Path 42560" d="M154.492,230.62a1.934,1.934,0,0,0,.082.607,4.94,4.94,0,0,0,.563,1.37,4.884,4.884,0,0,0,.946,1.139,1.936,1.936,0,0,0,.5.356,7.607,7.607,0,0,1-1.339-1.56A7.477,7.477,0,0,1,154.492,230.62Z" transform="translate(-154.487 -230.62)" fill="#455a64"/>
          </g>
          <g id="Group_56511" data-name="Group 56511" transform="translate(12.915 4.968)">
            <path id="Path_42561" data-name="Path 42561" d="M123.645,238.96c-.036,0-.084.414-.229.908s-.323.872-.291.888a2.85,2.85,0,0,0,.52-1.8Z" transform="translate(-123.121 -238.96)" fill="#455a64"/>
          </g>
          <g id="Group_56512" data-name="Group 56512" transform="translate(1.468 5.487)">
            <path id="Path_42562" data-name="Path 42562" d="M164.529,249.118a.68.68,0,0,1-.366.118.746.746,0,0,1-.424-.135.846.846,0,0,1-.32-.486,1.562,1.562,0,0,1,0-.725c.053-.262.154-.532.243-.826a2.153,2.153,0,0,0,.106-.97,5.5,5.5,0,0,0-.395-.956,1.256,1.256,0,0,1,.732-1.555,4.493,4.493,0,0,0,.414-.181.818.818,0,0,0,.33-.3,1.383,1.383,0,0,0,.149-.758,2.593,2.593,0,0,1,.024-.612,1.018,1.018,0,0,1,.181-.414.579.579,0,0,1,.325-.2.237.237,0,0,0-.106.007.506.506,0,0,0-.258.161,1.017,1.017,0,0,0-.212.431,2.59,2.59,0,0,0-.046.628,1.318,1.318,0,0,1-.147.7,1.335,1.335,0,0,1-.7.426,1.366,1.366,0,0,0-.8,1.7,5.81,5.81,0,0,1,.392.934,2.1,2.1,0,0,1-.1.917c-.084.289-.183.566-.234.838a1.62,1.62,0,0,0,.022.77.923.923,0,0,0,.368.52.794.794,0,0,0,.465.125.571.571,0,0,0,.289-.094A.259.259,0,0,0,164.529,249.118Z" transform="translate(-163.179 -241.119)" fill="#455a64"/>
          </g>
          <g id="Group_56513" data-name="Group 56513" transform="translate(3.697 9.191)">
            <path id="Path_42563" data-name="Path 42563" d="M160.943,260.624c-.012-.007-.031.077-.149.13a.4.4,0,0,1-.467-.128.737.737,0,0,1,.039-.754,3.165,3.165,0,0,0,.479-.937.681.681,0,0,0-.135-.556c-.118-.144-.255-.243-.347-.361a1.058,1.058,0,0,1-.169-.768,3.173,3.173,0,0,1,.137-.547.619.619,0,0,0,.055-.2.744.744,0,0,0-.1.185,2.327,2.327,0,0,0-.181.551,1.117,1.117,0,0,0,.164.852c.1.137.243.241.342.366a.548.548,0,0,1,.106.46,3.391,3.391,0,0,1-.457.9.817.817,0,0,0-.007.86.428.428,0,0,0,.306.166.435.435,0,0,0,.255-.048C160.948,260.721,160.948,260.622,160.943,260.624Z" transform="translate(-160.084 -256.5)" fill="#455a64"/>
          </g>
          <g id="Group_56514" data-name="Group 56514" transform="translate(13.446 6.6)">
            <path id="Path_42564" data-name="Path 42564" d="M118.467,251.826a1.053,1.053,0,0,0,.2-.2,2.322,2.322,0,0,0,.419-.633,1.246,1.246,0,0,0,.1-.525.921.921,0,0,0-.212-.583c-.149-.173-.366-.262-.5-.424a.706.706,0,0,1-.1-.619,2.59,2.59,0,0,1,.265-.636,2.153,2.153,0,0,0,.234-.631.819.819,0,0,0-.125-.607,2.156,2.156,0,0,0-.366-.383,1.1,1.1,0,0,1-.412-.587.731.731,0,0,1,.01-.265s-.019.019-.036.063a.434.434,0,0,0-.022.209,1.1,1.1,0,0,0,.4.645,2.119,2.119,0,0,1,.34.373.727.727,0,0,1,.1.532,2.114,2.114,0,0,1-.229.595,2.661,2.661,0,0,0-.277.665.827.827,0,0,0,.128.725c.164.193.378.277.506.424a.814.814,0,0,1,.2.51,1.187,1.187,0,0,1-.079.489,2.62,2.62,0,0,1-.376.636A1.3,1.3,0,0,0,118.467,251.826Z" transform="translate(-117.918 -245.739)" fill="#455a64"/>
          </g>
          <g id="Group_56515" data-name="Group 56515" transform="translate(3.95 1.262)">
            <path id="Path_42565" data-name="Path 42565" d="M156.944,224.612a3.984,3.984,0,0,1,.587-.638,4.058,4.058,0,0,1,.773-.392,1.436,1.436,0,0,0-1.36,1.031Z" transform="translate(-156.94 -223.569)" fill="#e8505b"/>
          </g>
          <g id="Group_56516" data-name="Group 56516" transform="translate(3.38)">
            <path id="Path_42566" data-name="Path 42566" d="M162.154,218.329c-.012-.007-.094.087-.159.272a1.31,1.31,0,0,0-.022.763,1.324,1.324,0,0,0,.409.645c.152.128.27.166.277.154s-.089-.082-.214-.217a1.485,1.485,0,0,1-.352-.614,1.468,1.468,0,0,1-.014-.705A1.811,1.811,0,0,0,162.154,218.329Z" transform="translate(-161.927 -218.328)" fill="#455a64"/>
          </g>
        </g>
        <path id="Path_42567" data-name="Path 42567" d="M127.482,337.111s-5.981,5.68-9.537,4.652a7.021,7.021,0,0,1-4.608-3.7l-.087-.956.356-.234L127.3,335.77Z" transform="translate(-109.826 -307.493)" opacity="0.3"/>
        <g id="Group_56539" data-name="Group 56539" transform="translate(0.273 14.122)">
          <g id="Group_56520" data-name="Group 56520" transform="translate(0 0.563)">
            <path id="Path_42568" data-name="Path 42568" d="M103.847,309.909l-1.153-2.959-4.134,2.6,3.684,5.682A9.729,9.729,0,0,0,103.847,309.909Z" transform="translate(-82.927 -300.296)" fill="#eb996e"/>
            <g id="Group_56519" data-name="Group 56519">
              <g id="Group_56518" data-name="Group 56518">
                <path id="Path_42569" data-name="Path 42569" d="M113.966,280.757a14.819,14.819,0,0,0-4.416-1.3h0c-.722,1.447-3,1.63-4.382.643l-1.163-.787a4.282,4.282,0,0,0-.486.019,6.214,6.214,0,0,0-5.5,4.95,12.373,12.373,0,0,0-.291,3.128,3.137,3.137,0,0,0,2.875,2.868s.14,2.6.325,4.7h0a3.922,3.922,0,0,0,2.381,3.4,9.7,9.7,0,0,0,3.036.937,10.194,10.194,0,0,0,9.048-3.133c-.414-2.507-.809-5.75-.78-5.894a.079.079,0,0,0,0-.048l2.7-2.4,1.531-1.286s-3.359-4.984-4.869-5.8" transform="translate(-97.71 -279.316)" fill="url(#linear-gradient)"/>
              </g>
            </g>
          </g>
          <g id="Group_56521" data-name="Group 56521" transform="translate(12.909 3.348)">
            <path id="Path_42570" data-name="Path 42570" d="M114.336,291.161a1.424,1.424,0,0,1,.667-.185,1.1,1.1,0,0,1,.689.238,2.958,2.958,0,0,1,.306.33.793.793,0,0,0,.436.289.7.7,0,0,0,.508-.137c.14-.089.258-.185.378-.255a.825.825,0,0,1,.705-.063.9.9,0,0,1,.409.284c.075.094.1.157.113.154a.392.392,0,0,0-.075-.183.934.934,0,0,0-1.214-.294c-.135.075-.255.171-.388.253a.606.606,0,0,1-.421.118.7.7,0,0,1-.368-.248,2.869,2.869,0,0,0-.325-.337,1.163,1.163,0,0,0-.763-.238,1.1,1.1,0,0,0-.515.147C114.377,291.1,114.332,291.156,114.336,291.161Z" transform="translate(-114.336 -290.886)" fill="#fafafa"/>
          </g>
          <g id="Group_56522" data-name="Group 56522" transform="translate(10.167 6.157)">
            <path id="Path_42571" data-name="Path 42571" d="M125.759,303.612a1.419,1.419,0,0,1,.573-.388,1.1,1.1,0,0,1,.73.007,2.689,2.689,0,0,1,.395.214.785.785,0,0,0,.506.135.706.706,0,0,0,.438-.291c.1-.128.185-.258.277-.364a.824.824,0,0,1,.65-.284.929.929,0,0,1,.479.137c.1.065.149.116.157.108s-.029-.067-.128-.149a.931.931,0,0,0-1.242.111c-.1.113-.188.243-.287.364a.6.6,0,0,1-.361.246.7.7,0,0,1-.429-.118,2.724,2.724,0,0,0-.417-.214,1.146,1.146,0,0,0-.8.019,1.1,1.1,0,0,0-.441.3C125.778,303.542,125.754,303.607,125.759,303.612Z" transform="translate(-125.758 -302.55)" fill="#fafafa"/>
          </g>
          <g id="Group_56523" data-name="Group 56523" transform="translate(4.073 1.812)">
            <path id="Path_42572" data-name="Path 42572" d="M151.987,284.65a1.426,1.426,0,0,1,.691-.039,1.1,1.1,0,0,1,.621.378,2.745,2.745,0,0,1,.229.388.788.788,0,0,0,.366.376.7.7,0,0,0,.525-.026c.154-.058.291-.128.424-.169a.829.829,0,0,1,.7.089.944.944,0,0,1,.342.364c.053.108.067.176.079.173a.372.372,0,0,0-.034-.193.93.93,0,0,0-1.122-.544c-.147.043-.287.113-.431.164a.585.585,0,0,1-.436.024.7.7,0,0,1-.308-.32,3.038,3.038,0,0,0-.246-.4,1.144,1.144,0,0,0-.693-.392,1.1,1.1,0,0,0-.535.034A.4.4,0,0,0,151.987,284.65Z" transform="translate(-151.987 -284.507)" fill="#fafafa"/>
          </g>
          <g id="Group_56524" data-name="Group 56524" transform="translate(6.884 4.952)">
            <path id="Path_42573" data-name="Path 42573" d="M143.479,298.5a1.22,1.22,0,0,1,.433-.311.829.829,0,0,1,.554-.017,2.277,2.277,0,0,1,.311.152.637.637,0,0,0,.4.089.563.563,0,0,0,.337-.246c.075-.1.132-.207.2-.289a.634.634,0,0,1,.482-.241.888.888,0,0,1,.5.156s-.022-.053-.1-.116a.678.678,0,0,0-.4-.13.7.7,0,0,0-.568.255c-.077.091-.137.2-.209.289a.445.445,0,0,1-.262.2c-.222.039-.424-.161-.655-.226a.9.9,0,0,0-.621.046C143.542,298.263,143.465,298.5,143.479,298.5Z" transform="translate(-143.478 -297.548)" fill="#fafafa"/>
          </g>
          <g id="Group_56525" data-name="Group 56525" transform="translate(13.084 8.28)">
            <path id="Path_42574" data-name="Path 42574" d="M117.729,312.319a1.22,1.22,0,0,1,.433-.311.829.829,0,0,1,.554-.017,2.281,2.281,0,0,1,.311.152.637.637,0,0,0,.4.089.563.563,0,0,0,.337-.246c.075-.1.132-.207.2-.289a.634.634,0,0,1,.482-.241.878.878,0,0,1,.5.157s-.022-.053-.1-.116a.678.678,0,0,0-.4-.13.7.7,0,0,0-.568.255c-.077.091-.137.2-.209.289a.445.445,0,0,1-.262.2c-.222.039-.424-.161-.655-.226a.9.9,0,0,0-.621.046C117.794,312.083,117.717,312.324,117.729,312.319Z" transform="translate(-117.728 -311.368)" fill="#fafafa"/>
          </g>
          <g id="Group_56526" data-name="Group 56526" transform="translate(7.289 9.064)">
            <path id="Path_42575" data-name="Path 42575" d="M141.563,314.868a1.259,1.259,0,0,1,.51-.154.844.844,0,0,1,.53.164,2.321,2.321,0,0,1,.246.243.625.625,0,0,0,.354.214.562.562,0,0,0,.4-.123c.106-.075.193-.152.284-.209a.632.632,0,0,1,.532-.072.88.88,0,0,1,.421.311c.007,0,0-.058-.058-.142a.724.724,0,0,0-.956-.2c-.1.063-.2.14-.291.207a.439.439,0,0,1-.311.1c-.222-.036-.349-.289-.547-.426a.9.9,0,0,0-.6-.159A.64.64,0,0,0,141.563,314.868Z" transform="translate(-141.562 -314.624)" fill="#fafafa"/>
          </g>
          <g id="Group_56527" data-name="Group 56527" transform="translate(9.203 11.707)">
            <path id="Path_42576" data-name="Path 42576" d="M133.612,325.848a1.259,1.259,0,0,1,.51-.154.844.844,0,0,1,.53.164,2.321,2.321,0,0,1,.246.243.625.625,0,0,0,.354.214.562.562,0,0,0,.4-.123c.106-.075.193-.152.284-.209a.632.632,0,0,1,.532-.072.88.88,0,0,1,.421.311c.007,0,0-.058-.058-.142a.724.724,0,0,0-.956-.2c-.1.063-.2.14-.291.207a.439.439,0,0,1-.311.1c-.222-.034-.349-.289-.547-.426a.9.9,0,0,0-.6-.159A.646.646,0,0,0,133.612,325.848Z" transform="translate(-133.611 -325.604)" fill="#fafafa"/>
          </g>
          <g id="Group_56528" data-name="Group 56528" transform="translate(13.246 17.602)">
            <path id="Path_42577" data-name="Path 42577" d="M117.039,351a1.22,1.22,0,0,1,.436-.3.832.832,0,0,1,.554-.01,2.193,2.193,0,0,1,.308.156.631.631,0,0,0,.4.094.562.562,0,0,0,.34-.241c.077-.1.137-.2.2-.286a.637.637,0,0,1,.484-.234.878.878,0,0,1,.5.164s-.022-.053-.1-.116a.7.7,0,0,0-.4-.137.708.708,0,0,0-.573.248c-.079.091-.142.193-.214.286a.453.453,0,0,1-.265.193c-.222.036-.421-.166-.653-.236a.9.9,0,0,0-.624.036C117.109,350.764,117.027,351,117.039,351Z" transform="translate(-117.038 -350.086)" fill="#fafafa"/>
          </g>
          <g id="Group_56529" data-name="Group 56529" transform="translate(8.515 19.657)">
            <path id="Path_42578" data-name="Path 42578" d="M136.463,358.873a1.258,1.258,0,0,1,.508-.161.827.827,0,0,1,.532.156,2.083,2.083,0,0,1,.248.241.639.639,0,0,0,.356.209.545.545,0,0,0,.395-.13c.1-.075.19-.154.279-.214a.634.634,0,0,1,.532-.079.911.911,0,0,1,.426.3c.007,0,0-.058-.06-.14a.682.682,0,0,0-.337-.248.71.71,0,0,0-.621.065c-.1.063-.193.142-.289.209a.456.456,0,0,1-.311.106c-.222-.031-.354-.284-.554-.419a.9.9,0,0,0-.6-.149A.648.648,0,0,0,136.463,358.873Z" transform="translate(-136.462 -358.618)" fill="#fafafa"/>
          </g>
          <g id="Group_56534" data-name="Group 56534" transform="translate(0.074)">
            <g id="Group_56532" data-name="Group 56532" transform="translate(0.502)">
              <g id="Group_56531" data-name="Group 56531">
                <path id="Path_42579" data-name="Path 42579" d="M87.689,276.98c-.147.173-5.439,7.25-5.439,7.25l.746.421,5.432-6.987Z" transform="translate(-64.156 -276.98)" fill="#263238"/>
                <path id="Path_42580" data-name="Path 42580" d="M92.114,292.554s4.965,8.562,5.3,8.721c.662.311,8.28-6.275,9.007-6.9.1-.135.306-.417.713-.978,0,0,.6-2.75,1.242-2.54s-.352,1.4.067,2.444,2.331-1.447,2.408-1.671l.494-.645a8.412,8.412,0,0,1,.482,2.08c-.113,1.962-1.97,4.3-1.97,4.3s-7.544,9.453-13.257,9.776c-1.645.092-4.787-4.645-6.742-8.143a4.141,4.141,0,0,1,1.324-5.687Z" transform="translate(-89.242 -287.505)" fill="#ffbe9d"/>
                <g id="Group_56530" data-name="Group 56530" transform="translate(21.644 4.452)">
                  <path id="Path_42581" data-name="Path 42581" d="M90.172,296.922a4.546,4.546,0,0,0,.718-1.452c-.019-.007-.164.325-.361.725S90.155,296.912,90.172,296.922Z" transform="translate(-90.171 -295.47)" fill="#eb996e"/>
                </g>
              </g>
            </g>
            <path id="Path_42582" data-name="Path 42582" d="M153.777,288.06c.2.118,4.813,8.69,4.813,8.69l-5.942,4.657a68.985,68.985,0,0,1-2.362-6.906,9.91,9.91,0,0,1,.2-3.954c.443-1.23,1.112-.925,2.116-1.645Z" transform="translate(-150.17 -285.392)" fill="url(#linear-gradient)"/>
            <g id="Group_56533" data-name="Group 56533" transform="translate(1.654 2.422)" opacity="0.7">
              <path id="Path_42583" data-name="Path 42583" d="M149.85,287.284s.058-.034.169-.089a1,1,0,0,1,.522-.111,1.437,1.437,0,0,1,.775.323,3.834,3.834,0,0,1,.773.833c.25.342.457.761.713,1.194s.515.9.795,1.394c.561.982,1.18,2.059,1.828,3.19L156.563,296l.014-.077c-1.611,1.271-3.012,2.379-4.021,3.178-.489.392-.884.71-1.168.937-.128.106-.231.19-.308.255a.663.663,0,0,0-.1.094.813.813,0,0,0,.116-.077l.323-.238c.289-.219.691-.527,1.189-.908,1.016-.79,2.427-1.885,4.047-3.142l.041-.031-.026-.046c-.359-.628-.742-1.3-1.136-1.982-.65-1.129-1.269-2.206-1.835-3.185-.282-.489-.551-.953-.8-1.389a13.285,13.285,0,0,0-.732-1.2,3.84,3.84,0,0,0-.8-.838,1.455,1.455,0,0,0-.816-.315.981.981,0,0,0-.537.137.939.939,0,0,0-.12.079C149.86,287.272,149.848,287.282,149.85,287.284Z" transform="translate(-149.85 -287.038)"/>
            </g>
          </g>
          <g id="Group_56535" data-name="Group 56535" transform="translate(3.501 9.753)">
            <path id="Path_42584" data-name="Path 42584" d="M157.529,318.439a1.22,1.22,0,0,1,.433-.311.829.829,0,0,1,.554-.017,2.28,2.28,0,0,1,.311.152.637.637,0,0,0,.4.089.563.563,0,0,0,.337-.246c.075-.1.132-.207.2-.289a.634.634,0,0,1,.482-.241.878.878,0,0,1,.5.157s-.022-.053-.1-.116a.678.678,0,0,0-.4-.13.7.7,0,0,0-.568.255c-.077.091-.137.2-.209.289a.445.445,0,0,1-.262.2c-.222.039-.424-.161-.655-.226a.9.9,0,0,0-.621.046C157.592,318.2,157.515,318.442,157.529,318.439Z" transform="translate(-157.528 -317.488)" fill="#fafafa"/>
          </g>
          <g id="Group_56536" data-name="Group 56536" transform="translate(0.783 7.926)">
            <path id="Path_42585" data-name="Path 42585" d="M170.1,311.568a1.26,1.26,0,0,1,.332-.414.838.838,0,0,1,.53-.166,2.228,2.228,0,0,1,.34.063.636.636,0,0,0,.414-.024.558.558,0,0,0,.258-.327c.046-.12.072-.236.116-.332a.626.626,0,0,1,.4-.361.886.886,0,0,1,.522.017s-.036-.046-.128-.084a.722.722,0,0,0-.9.38c-.051.108-.079.226-.123.335a.442.442,0,0,1-.2.26c-.2.1-.453-.041-.693-.041a.9.9,0,0,0-.587.212A.639.639,0,0,0,170.1,311.568Z" transform="translate(-170.098 -309.897)" fill="#fafafa"/>
          </g>
          <g id="Group_56537" data-name="Group 56537" transform="translate(0.644 4.381)">
            <path id="Path_42586" data-name="Path 42586" d="M170.682,296.848a1.259,1.259,0,0,1,.332-.414.838.838,0,0,1,.53-.166,2.224,2.224,0,0,1,.339.063.636.636,0,0,0,.414-.024.558.558,0,0,0,.258-.327c.046-.12.072-.236.116-.332a.626.626,0,0,1,.4-.361.885.885,0,0,1,.522.017s-.036-.046-.128-.084a.722.722,0,0,0-.9.38c-.051.108-.079.226-.123.335a.442.442,0,0,1-.2.26c-.2.1-.453-.041-.693-.041a.9.9,0,0,0-.587.212A.645.645,0,0,0,170.682,296.848Z" transform="translate(-170.678 -295.177)" fill="#fafafa"/>
          </g>
          <g id="Group_56538" data-name="Group 56538" transform="translate(1.958 12.527)">
            <path id="Path_42587" data-name="Path 42587" d="M165.222,330.678a1.259,1.259,0,0,1,.332-.414.839.839,0,0,1,.53-.166,2.224,2.224,0,0,1,.339.063.636.636,0,0,0,.414-.024.558.558,0,0,0,.258-.327c.046-.12.072-.236.116-.332a.626.626,0,0,1,.4-.361.885.885,0,0,1,.522.017s-.036-.046-.128-.084a.722.722,0,0,0-.9.38c-.051.108-.079.226-.123.335a.442.442,0,0,1-.2.26c-.2.1-.453-.041-.693-.041a.9.9,0,0,0-.587.212A.645.645,0,0,0,165.222,330.678Z" transform="translate(-165.218 -329.007)" fill="#fafafa"/>
          </g>
        </g>
      </g>
    </g>
  </g>
</svg>
