<svg xmlns="http://www.w3.org/2000/svg" width="97.688" height="86" viewBox="0 0 97.688 86">
  <g id="Group_58459" data-name="Group 58459" transform="translate(23164 21183.633)">
    <g id="Group_58409" data-name="Group 58409" transform="translate(-23151.039 -21183.633)">
      <g id="Group_58402" data-name="Group 58402">
        <rect id="Rectangle_19597" data-name="Rectangle 19597" width="18.893" height="52.899" transform="translate(19.818 53.906) rotate(180)" fill="#f5f5f5"/>
        <g id="Group_58400" data-name="Group 58400" transform="translate(2.771 1.008)">
          <path id="Path_45678" data-name="Path 45678" d="M113.9,86.3h6.3l6.9,52.824h-6.3Z" transform="translate(-113.9 -86.3)" fill="#fafafa"/>
        </g>
        <g id="Group_58401" data-name="Group 58401">
          <path id="Path_45679" data-name="Path 45679" d="M102.9,82.3h20.807v54.738H102.9Zm19.22,1.587H104.487v51.564H122.12Z" transform="translate(-102.9 -82.3)" fill="#f0f0f0"/>
        </g>
      </g>
      <g id="Group_58405" data-name="Group 58405" transform="translate(26.651)">
        <rect id="Rectangle_19598" data-name="Rectangle 19598" width="18.893" height="52.899" transform="translate(19.827 53.906) rotate(180)" fill="#f5f5f5"/>
        <g id="Group_58403" data-name="Group 58403" transform="translate(2.796 1.008)">
          <path id="Path_45680" data-name="Path 45680" d="M219.8,86.3h6.3l6.877,52.824h-6.3Z" transform="translate(-219.8 -86.3)" fill="#fafafa"/>
        </g>
        <g id="Group_58404" data-name="Group 58404">
          <path id="Path_45681" data-name="Path 45681" d="M208.7,82.3h20.807v54.738H208.7Zm19.22,1.587H210.287v51.564H227.92Z" transform="translate(-208.7 -82.3)" fill="#f0f0f0"/>
        </g>
      </g>
      <g id="Group_58408" data-name="Group 58408" transform="translate(53.302)">
        <rect id="Rectangle_19599" data-name="Rectangle 19599" width="18.893" height="52.899" transform="translate(19.837 53.906) rotate(180)" fill="#f5f5f5"/>
        <g id="Group_58406" data-name="Group 58406" transform="translate(2.796 1.008)">
          <path id="Path_45682" data-name="Path 45682" d="M325.6,86.3h6.3l6.877,52.824h-6.3Z" transform="translate(-325.6 -86.3)" fill="#fafafa"/>
        </g>
        <g id="Group_58407" data-name="Group 58407">
          <path id="Path_45683" data-name="Path 45683" d="M314.5,82.3h20.807v54.738H314.5Zm19.22,1.587H316.087v51.564H333.72Z" transform="translate(-314.5 -82.3)" fill="#f0f0f0"/>
        </g>
      </g>
    </g>
    <g id="Group_58426" data-name="Group 58426" transform="translate(-23139.428 -21125.848)">
      <g id="Group_58419" data-name="Group 58419">
        <g id="Group_58418" data-name="Group 58418">
          <rect id="Rectangle_19600" data-name="Rectangle 19600" width="22.671" height="7.834" transform="translate(0.403 0.353)" fill="#ebebeb"/>
          <rect id="Rectangle_19601" data-name="Rectangle 19601" width="22.671" height="7.834" transform="translate(0.403 8.187)" fill="#ebebeb"/>
          <g id="Group_58410" data-name="Group 58410" transform="translate(4.66 0.353)">
            <path id="Path_45684" data-name="Path 45684" d="M171.858,320.934l2.821-7.834h-4.358l-2.821,7.834Z" transform="translate(-167.5 -313.1)" fill="#f5f5f5"/>
            <path id="Path_45685" data-name="Path 45685" d="M193.079,313.1h-.957l-2.821,7.834h.957Z" transform="translate(-183.809 -313.1)" fill="#f5f5f5"/>
          </g>
          <g id="Group_58411" data-name="Group 58411" transform="translate(1.839 8.187)">
            <path id="Path_45686" data-name="Path 45686" d="M160.658,352.009l2.821-7.809h-4.358l-2.821,7.809Z" transform="translate(-156.3 -344.2)" fill="#f5f5f5"/>
            <path id="Path_45687" data-name="Path 45687" d="M181.879,344.2h-.957l-2.821,7.809h.957Z" transform="translate(-172.609 -344.2)" fill="#f5f5f5"/>
          </g>
          <rect id="Rectangle_19602" data-name="Rectangle 19602" width="0.781" height="22.671" transform="translate(23.069 0.774) rotate(90)" fill="#e0e0e0"/>
          <rect id="Rectangle_19603" data-name="Rectangle 19603" width="0.781" height="22.671" transform="translate(23.049 8.538) rotate(90)" fill="#e0e0e0"/>
          <path id="Path_45688" data-name="Path 45688" d="M149,311.7v16.348h23.477V311.7Zm22.671,15.568h-21.89v-6.953h21.89Zm0-7.759h-21.89v-6.978h21.89Z" transform="translate(-149 -311.7)" fill="#f5f5f5"/>
          <g id="Group_58414" data-name="Group 58414" transform="translate(23.452)">
            <rect id="Rectangle_19604" data-name="Rectangle 19604" width="22.671" height="7.834" transform="translate(0.403 0.353)" fill="#ebebeb"/>
            <rect id="Rectangle_19605" data-name="Rectangle 19605" width="22.671" height="7.834" transform="translate(0.403 8.187)" fill="#ebebeb"/>
            <g id="Group_58412" data-name="Group 58412" transform="translate(7.053 0.353)">
              <path id="Path_45689" data-name="Path 45689" d="M274.433,320.934l2.821-7.834h-4.333l-2.821,7.834Z" transform="translate(-270.1 -313.1)" fill="#f5f5f5"/>
              <path id="Path_45690" data-name="Path 45690" d="M295.579,313.1h-.957l-2.821,7.834h.957Z" transform="translate(-286.334 -313.1)" fill="#f5f5f5"/>
            </g>
            <g id="Group_58413" data-name="Group 58413" transform="translate(4.232 8.187)">
              <path id="Path_45691" data-name="Path 45691" d="M263.233,352.009l2.821-7.809h-4.333l-2.821,7.809Z" transform="translate(-258.9 -344.2)" fill="#f5f5f5"/>
              <path id="Path_45692" data-name="Path 45692" d="M284.379,344.2h-.957l-2.821,7.809h.957Z" transform="translate(-275.134 -344.2)" fill="#f5f5f5"/>
            </g>
            <rect id="Rectangle_19606" data-name="Rectangle 19606" width="0.781" height="22.671" transform="translate(23.078 0.765) rotate(90)" fill="#e0e0e0"/>
            <rect id="Rectangle_19607" data-name="Rectangle 19607" width="0.781" height="22.671" transform="translate(23.058 8.529) rotate(90)" fill="#e0e0e0"/>
            <path id="Path_45693" data-name="Path 45693" d="M242.1,311.7v16.348h23.5V311.7Zm22.671,15.568h-21.89v-6.953h21.89Zm0-7.759h-21.89v-6.978h21.89Z" transform="translate(-242.1 -311.7)" fill="#f5f5f5"/>
          </g>
          <g id="Group_58417" data-name="Group 58417" transform="translate(46.929)">
            <rect id="Rectangle_19608" data-name="Rectangle 19608" width="22.671" height="7.834" transform="translate(0.378 0.353)" fill="#ebebeb"/>
            <rect id="Rectangle_19609" data-name="Rectangle 19609" width="22.671" height="7.834" transform="translate(0.378 8.187)" fill="#ebebeb"/>
            <g id="Group_58415" data-name="Group 58415" transform="translate(5.693 0.353)">
              <path id="Path_45694" data-name="Path 45694" d="M362.233,320.934l2.821-7.834h-4.333l-2.821,7.834Z" transform="translate(-357.9 -313.1)" fill="#f5f5f5"/>
              <path id="Path_45695" data-name="Path 45695" d="M383.479,313.1h-.957l-2.821,7.834h.957Z" transform="translate(-374.209 -313.1)" fill="#f5f5f5"/>
            </g>
            <g id="Group_58416" data-name="Group 58416" transform="translate(2.872 8.187)">
              <path id="Path_45696" data-name="Path 45696" d="M351.033,352.009l2.821-7.809h-4.333l-2.821,7.809Z" transform="translate(-346.7 -344.2)" fill="#f5f5f5"/>
              <path id="Path_45697" data-name="Path 45697" d="M372.279,344.2h-.957l-2.821,7.809h.957Z" transform="translate(-363.009 -344.2)" fill="#f5f5f5"/>
            </g>
            <rect id="Rectangle_19610" data-name="Rectangle 19610" width="0.781" height="22.671" transform="translate(23.062 0.781) rotate(90)" fill="#e0e0e0"/>
            <rect id="Rectangle_19611" data-name="Rectangle 19611" width="0.781" height="22.671" transform="translate(23.042 8.545) rotate(90)" fill="#e0e0e0"/>
            <path id="Path_45698" data-name="Path 45698" d="M335.3,311.7v16.348h23.5V311.7Zm22.671,15.568h-21.89v-6.953h21.89Zm0-7.759h-21.89v-6.978h21.89Z" transform="translate(-335.3 -311.7)" fill="#f5f5f5"/>
          </g>
        </g>
        <path id="Path_45699" data-name="Path 45699" d="M222.8,377.784H156.953L156.6,376.6h66.527Z" transform="translate(-154.686 -360.252)" fill="#e0e0e0"/>
      </g>
      <g id="Group_58420" data-name="Group 58420" transform="translate(34.511 4.131)">
        <path id="Path_45700" data-name="Path 45700" d="M287.36,329.58a.68.68,0,1,1-.68-.68A.677.677,0,0,1,287.36,329.58Z" transform="translate(-286 -328.699)" fill="#e0e0e0"/>
        <path id="Path_45701" data-name="Path 45701" d="M287.36,328.78a.68.68,0,1,1-.68-.68A.677.677,0,0,1,287.36,328.78Z" transform="translate(-286 -328.1)" fill="#fafafa"/>
      </g>
      <g id="Group_58421" data-name="Group 58421" transform="translate(34.511 11.31)">
        <path id="Path_45702" data-name="Path 45702" d="M287.36,358.08a.68.68,0,1,1-.68-.68A.677.677,0,0,1,287.36,358.08Z" transform="translate(-286 -357.199)" fill="#e0e0e0"/>
        <path id="Path_45703" data-name="Path 45703" d="M287.36,357.28a.68.68,0,1,1-.68-.68A.677.677,0,0,1,287.36,357.28Z" transform="translate(-286 -356.6)" fill="#fafafa"/>
      </g>
      <g id="Group_58422" data-name="Group 58422" transform="translate(11.059 4.131)">
        <path id="Path_45704" data-name="Path 45704" d="M194.26,329.58a.68.68,0,1,1-.68-.68A.677.677,0,0,1,194.26,329.58Z" transform="translate(-192.9 -328.699)" fill="#e0e0e0"/>
        <path id="Path_45705" data-name="Path 45705" d="M194.26,328.78a.68.68,0,1,1-.68-.68A.677.677,0,0,1,194.26,328.78Z" transform="translate(-192.9 -328.1)" fill="#fafafa"/>
      </g>
      <g id="Group_58423" data-name="Group 58423" transform="translate(11.059 11.31)">
        <path id="Path_45706" data-name="Path 45706" d="M194.26,358.08a.68.68,0,1,1-.68-.68A.677.677,0,0,1,194.26,358.08Z" transform="translate(-192.9 -357.199)" fill="#e0e0e0"/>
        <path id="Path_45707" data-name="Path 45707" d="M194.26,357.28a.68.68,0,1,1-.68-.68A.677.677,0,0,1,194.26,357.28Z" transform="translate(-192.9 -356.6)" fill="#fafafa"/>
      </g>
      <g id="Group_58424" data-name="Group 58424" transform="translate(58.391 4.131)">
        <path id="Path_45708" data-name="Path 45708" d="M382.16,329.58a.68.68,0,1,1-.68-.68A.677.677,0,0,1,382.16,329.58Z" transform="translate(-380.8 -328.699)" fill="#e0e0e0"/>
        <path id="Path_45709" data-name="Path 45709" d="M382.16,328.78a.68.68,0,1,1-.68-.68A.677.677,0,0,1,382.16,328.78Z" transform="translate(-380.8 -328.1)" fill="#fafafa"/>
      </g>
      <g id="Group_58425" data-name="Group 58425" transform="translate(58.391 11.31)">
        <path id="Path_45710" data-name="Path 45710" d="M382.16,358.08a.68.68,0,1,1-.68-.68A.677.677,0,0,1,382.16,358.08Z" transform="translate(-380.8 -357.199)" fill="#e0e0e0"/>
        <path id="Path_45711" data-name="Path 45711" d="M382.16,357.28a.68.68,0,1,1-.68-.68A.677.677,0,0,1,382.16,357.28Z" transform="translate(-380.8 -356.6)" fill="#fafafa"/>
      </g>
    </g>
    <g id="Group_58431" data-name="Group 58431" transform="translate(-23164 -21138.949)">
      <path id="Path_45712" data-name="Path 45712" d="M105.827,303.1l.176,8.665h-.5l.05-8.665Z" transform="translate(-95.701 -292.162)" fill="#ebebeb"/>
      <path id="Path_45713" data-name="Path 45713" d="M76.022,272.028c-.025.025.126.176-.579.176-1.763,0-4.786-.176-5.517-1.31-1.033-1.637,2.7-1.36,2.645-2.242-.025-.882-4.383-.3-4.711-1.562s2.544-.932,2.645-1.587-3.325.1-3.829-1.26c-.529-1.36,1.914-.554,1.688-1.108s-2.821-2.947-1.234-3.4,3.93,2.015,4.887,2.292c.982.277,2.091-2.04,3.2-1.209s-1.159,4.307.327,4.786c1.083.353.907-.907,2.393-.831C80,264.9,78.793,269.837,76.022,272.028Z" transform="translate(-66.602 -259.68)" fill="#e0e0e0"/>
      <path id="Path_45714" data-name="Path 45714" d="M110.656,310.1l-.756,6.8h.378l.68-6.8Z" transform="translate(-98.993 -297.399)" fill="#f5f5f5"/>
      <path id="Path_45715" data-name="Path 45715" d="M107.1,313.2l.5,6.02h-.4l-.4-6.02Z" transform="translate(-96.674 -299.718)" fill="#f5f5f5"/>
      <g id="Group_58428" data-name="Group 58428" transform="translate(11.586 5.949)">
        <path id="Path_45716" data-name="Path 45716" d="M112.671,290.578a6.445,6.445,0,0,0,4.559,1.26c1.159-.3-1.209-1.486-.655-2.04s2.922,2.166,3.879,1.511-1.058-1.965-.731-2.443c.3-.479,2.217,1.26,3.35.655s-.882-1.385-.4-1.637c.479-.227,3.5-.4,2.771-1.537-.731-1.159-3.653-.806-4.433-1.134s-.3-1.864-1.486-1.914-1.814,3.4-3.023,2.922c-.907-.353.025-1.411-1.008-1.814C113.653,283.7,112.243,290.2,112.671,290.578Z" transform="translate(-112.594 -283.298)" fill="#e6e6e6"/>
        <g id="Group_58427" data-name="Group 58427" opacity="0.3">
          <path id="Path_45717" data-name="Path 45717" d="M112.671,290.578a6.445,6.445,0,0,0,4.559,1.26c1.159-.3-1.209-1.486-.655-2.04s2.922,2.166,3.879,1.511-1.058-1.965-.731-2.443c.3-.479,2.217,1.26,3.35.655s-.882-1.385-.4-1.637c.479-.227,3.5-.4,2.771-1.537-.731-1.159-3.653-.806-4.433-1.134s-.3-1.864-1.486-1.914-1.814,3.4-3.023,2.922c-.907-.353.025-1.411-1.008-1.814C113.653,283.7,112.243,290.2,112.671,290.578Z" transform="translate(-112.594 -283.298)" fill="#e6e6e6"/>
        </g>
      </g>
      <g id="Group_58430" data-name="Group 58430" transform="translate(1.698 10.319)">
        <path id="Path_45718" data-name="Path 45718" d="M82.046,303.984a4.267,4.267,0,0,1-2.569,1.688c-.781.05.453-1.159,0-1.385s-1.36,1.914-2.091,1.688c-.705-.2.252-1.411-.025-1.637s-1.108,1.209-1.914,1.058.252-1.033-.076-1.083-2.217.453-2.015-.4c.227-.857,2.091-1.209,2.494-1.562s-.176-1.209.529-1.486,1.788,1.738,2.443,1.209c.479-.4-.3-.856.277-1.31C80.081,299.954,82.222,303.657,82.046,303.984Z" transform="translate(-73.34 -300.646)" fill="#ebebeb"/>
        <g id="Group_58429" data-name="Group 58429" opacity="0.3">
          <path id="Path_45719" data-name="Path 45719" d="M82.046,303.984a4.267,4.267,0,0,1-2.569,1.688c-.781.05.453-1.159,0-1.385s-1.36,1.914-2.091,1.688c-.705-.2.252-1.411-.025-1.637s-1.108,1.209-1.914,1.058.252-1.033-.076-1.083-2.217.453-2.015-.4c.227-.857,2.091-1.209,2.494-1.562s-.176-1.209.529-1.486,1.788,1.738,2.443,1.209c.479-.4-.3-.856.277-1.31C80.081,299.954,82.222,303.657,82.046,303.984Z" transform="translate(-73.34 -300.646)" fill="#ebebeb"/>
        </g>
      </g>
      <path id="Path_45720" data-name="Path 45720" d="M92.872,345.84c-1.436-2.7-2.242-11.033-1.159-11.94h8.414c1.083.907.277,9.245-1.159,11.94Z" transform="translate(-85.013 -315.204)" fill="#ebebeb"/>
    </g>
    <g id="Shadow" transform="translate(-23164 -21103.326)">
      <ellipse id="_x3C_Path_x3E__1_" cx="48.844" cy="2.846" rx="48.844" ry="2.846" fill="#f5f5f5"/>
    </g>
    <g id="Device" transform="translate(-23145.205 -21178.746)">
      <g id="Group_58458" data-name="Group 58458" transform="translate(0 0)">
        <g id="Group_58456" data-name="Group 58456" transform="translate(0)">
          <g id="Group_58433" data-name="Group 58433">
            <path id="Path_45721" data-name="Path 45721" d="M333.236,94.3h6.549l6.6,75.394h-6.549a6.137,6.137,0,0,1-5.97-5.491l-5.643-64.411A4.943,4.943,0,0,1,333.236,94.3Z" transform="translate(-328.12 -94.3)" fill="#407bff"/>
            <g id="Group_58432" data-name="Group 58432" transform="translate(0 7.053)">
              <path id="Path_45722" data-name="Path 45722" d="M395.752,122.829a.577.577,0,0,0-.579-.529.464.464,0,0,0-.479.529l.453,5.063a.577.577,0,0,0,.579.529.464.464,0,0,0,.479-.529Z" transform="translate(-394.692 -122.3)" fill="#407bff"/>
              <path id="Path_45723" data-name="Path 45723" d="M395.752,122.829a.577.577,0,0,0-.579-.529.464.464,0,0,0-.479.529l.453,5.063a.577.577,0,0,0,.579.529.464.464,0,0,0,.479-.529Z" transform="translate(-394.692 -122.3)" fill="#fff" opacity="0.3"/>
            </g>
          </g>
          <g id="Group_58455" data-name="Group 58455" transform="translate(1.419 0.025)">
            <g id="Group_58437" data-name="Group 58437">
              <path id="Path_45724" data-name="Path 45724" d="M233.555,169.794h26.954a4.971,4.971,0,0,0,5.013-5.491l-5.643-64.411a6.137,6.137,0,0,0-5.97-5.491H226.956a4.971,4.971,0,0,0-5.013,5.491l5.643,64.411A6.1,6.1,0,0,0,233.555,169.794Z" transform="translate(-221.923 -94.4)" fill="#263238"/>
              <g id="Group_58434" data-name="Group 58434" transform="translate(1.263 1.234)">
                <path id="Path_45725" data-name="Path 45725" d="M230.906,99.3h7a1.045,1.045,0,0,1,.982.806l.05.227a2.471,2.471,0,0,0,2.368,1.94h6.65a2.011,2.011,0,0,0,2.04-1.94v-.227a.834.834,0,0,1,.831-.806h7a4.708,4.708,0,0,1,4.61,4.232l5.643,64.411a3.806,3.806,0,0,1-3.854,4.232H237.28a4.708,4.708,0,0,1-4.61-4.232l-5.617-64.411A3.819,3.819,0,0,1,230.906,99.3Z" transform="translate(-227.036 -99.3)" fill="#407bff"/>
                <path id="Path_45726" data-name="Path 45726" d="M230.906,99.3h7a1.045,1.045,0,0,1,.982.806l.05.227a2.471,2.471,0,0,0,2.368,1.94h6.65a2.011,2.011,0,0,0,2.04-1.94v-.227a.834.834,0,0,1,.831-.806h7a4.708,4.708,0,0,1,4.61,4.232l5.643,64.411a3.806,3.806,0,0,1-3.854,4.232H237.28a4.708,4.708,0,0,1-4.61-4.232l-5.617-64.411A3.819,3.819,0,0,1,230.906,99.3Z" transform="translate(-227.036 -99.3)" fill="#fff" opacity="0.8"/>
              </g>
              <g id="Group_58435" data-name="Group 58435" transform="translate(15.983 1.436)" opacity="0.6">
                <path id="Path_45727" data-name="Path 45727" d="M310.294,100.629a.577.577,0,0,0,.579.529.476.476,0,0,0,.479-.529.577.577,0,0,0-.579-.529A.477.477,0,0,0,310.294,100.629Z" transform="translate(-305.979 -100.1)"/>
                <path id="Path_45728" data-name="Path 45728" d="M320.578,100.1h1.839a.6.6,0,0,1,.579.529.477.477,0,0,1-.479.529h-1.839a.6.6,0,0,1-.579-.529A.452.452,0,0,1,320.578,100.1Z" transform="translate(-320.092 -100.1)"/>
              </g>
              <g id="Group_58436" data-name="Group 58436" transform="translate(30.651 2.494)">
                <path id="Path_45729" data-name="Path 45729" d="M262.13,109.379h-.579l-.05-.579h.579Z" transform="translate(-259.132 -107.666)" fill="#407bff"/>
                <path id="Path_45730" data-name="Path 45730" d="M266.63,107.154l.05.579H266.1l-.05-.579L266,106.6h.579Z" transform="translate(-264.816 -106.021)" fill="#407bff"/>
                <path id="Path_45731" data-name="Path 45731" d="M271.079,104.3l.05.579.05.554.05.579h-.579l-.05-.579-.05-.554-.05-.579Z" transform="translate(-270.5 -104.3)" fill="#407bff"/>
              </g>
              <path id="Path_45732" data-name="Path 45732" d="M368.819,104.5l.025.428h.277l.076.831h-.277l.025.428h-2.494l-.151-1.663h2.519Zm-1.008,1.234h.831l-.076-.831h-.831Z" transform="translate(-361.948 -101.956)" fill="#407bff"/>
            </g>
            <g id="Group_58453" data-name="Group 58453" transform="translate(18.67 39.631)">
              <path id="Path_45827" data-name="Path 45827" d="M309.493,252.953a.511.511,0,0,0,.479.453.4.4,0,0,0,.4-.453.511.511,0,0,0-.479-.453A.411.411,0,0,0,309.493,252.953Z" transform="translate(-307.488 -252.306)" fill="#407bff"/>
              <ellipse id="Ellipse_4293" data-name="Ellipse 4293" cx="0.479" cy="0.428" rx="0.479" ry="0.428" transform="matrix(-0.722, -0.692, 0.692, -0.722, 6.105, 1.287)" fill="#fff" opacity="0.5"/>
              <path id="Path_45828" data-name="Path 45828" d="M302.293,252.953a.511.511,0,0,0,.479.453.4.4,0,0,0,.4-.453.511.511,0,0,0-.479-.453A.411.411,0,0,0,302.293,252.953Z" transform="translate(-298.474 -252.306)" fill="#fff" opacity="0.5"/>
              <ellipse id="Ellipse_4294" data-name="Ellipse 4294" cx="0.479" cy="0.428" rx="0.479" ry="0.428" transform="matrix(-0.722, -0.692, 0.692, -0.722, 0.691, 1.281)" fill="#fff" opacity="0.5"/>
            </g>
          </g>
        </g>
        <g id="Group_58457" data-name="Group 58457" transform="translate(3.655 1.285)" opacity="0.4">
          <path id="Path_45834" data-name="Path 45834" d="M255.179,181.028h-1.587L234.8,111.1h3.577l18.691,69.449A4.044,4.044,0,0,1,255.179,181.028Z" transform="translate(-218.93 -108.153)" fill="#fff"/>
          <path id="Path_45835" data-name="Path 45835" d="M258.5,100.685a3.91,3.91,0,0,1,2.922-1.285h7a1.045,1.045,0,0,1,.982.806l.05.227a2.471,2.471,0,0,0,2.368,1.94h.05L290.668,172.3H277.745Z" transform="translate(-258.5 -99.4)" fill="#fff"/>
        </g>
      </g>
    </g>
  </g>
</svg>
