<svg id="_Trailing_icon_1" data-name="ðŸ“Trailing icon 1" xmlns="http://www.w3.org/2000/svg" width="24" height="24" viewBox="0 0 24 24">
  <rect id="Boundary" width="24" height="24" fill="none"/>
  <path id="_Color" data-name=" â†³Color" d="M9.156,19.5a2.162,2.162,0,0,1-2.289-2h4.577A2.162,2.162,0,0,1,9.156,19.5Zm9.156-3H0v-1l2.289-2v-5A6.464,6.464,0,0,1,3.632,4.44,6.409,6.409,0,0,1,7.439,2.18V1.5A1.622,1.622,0,0,1,9.156,0a1.622,1.622,0,0,1,1.717,1.5v.68a6.416,6.416,0,0,1,3.8,2.264A6.456,6.456,0,0,1,16.023,8.5v5l2.289,2v1Z" transform="translate(4.578 2)" fill="#1e1e2e"/>
</svg>
