<svg xmlns="http://www.w3.org/2000/svg" width="53.333" height="40" viewBox="0 0 53.333 40">
  <g id="Group_54838" data-name="Group 54838" transform="translate(-42.545 -50.776)">
    <path id="Path_42156" data-name="Path 42156" d="M96.265,253.373a2.782,2.782,0,0,1,2.213,2.658c0,1.622-.033,1.2-.013,2.11.02,1.055-.33,1.309-.76,1.516a1.319,1.319,0,0,1-.33.073l-24.305.02v-1.409l.311-2.384a22.808,22.808,0,0,1,9.969-15.464,22.474,22.474,0,0,1,22.2-1.469,22.991,22.991,0,0,1,3.118,1.843l16.338,9.555a23.21,23.21,0,0,1-8.113,1.022c-6.752-.4-12.658-4.167-17.679-8.38a5.639,5.639,0,0,0-3.62-1.322,5.7,5.7,0,0,0-5.668,5.736c-.007,4.58,3.151,5.035,6.336,5.9" transform="translate(-30.525 -185.986)" fill="#fff"/>
    <path id="Path_42157" data-name="Path 42157" d="M101.718,265.952c0-1.622.033-1.2.013-2.11-.02-1.055.33-1.309.753-1.509a1.082,1.082,0,0,1,.33-.073l24.3-.02v1.409l-.31,2.384A22.809,22.809,0,0,1,116.84,281.5a22.474,22.474,0,0,1-22.2,1.469,22.983,22.983,0,0,1-3.118-1.843L75.18,271.568a23.212,23.212,0,0,1,8.113-1.022c6.758.4,12.658,4.167,17.679,8.38a5.639,5.639,0,0,0,3.62,1.322,5.7,5.7,0,0,0,5.668-5.736c.013-7.6-8.456-3.826-8.542-8.56" transform="translate(-31.242 -194.452)" fill="#fff"/>
  </g>
</svg>
