<svg xmlns="http://www.w3.org/2000/svg" xmlns:xlink="http://www.w3.org/1999/xlink" width="24" height="24" viewBox="0 0 24 24">
  <defs>
    <clipPath id="clip-path">
      <rect id="Rectangle_19138" data-name="Rectangle 19138" width="24" height="24" transform="translate(214 912)" fill="#879388"/>
    </clipPath>
  </defs>
  <g id="Mask_Group_95" data-name="Mask Group 95" transform="translate(-214 -912)" clip-path="url(#clip-path)">
    <g id="Group_56124" data-name="Group 56124" transform="translate(15.272 3.521)">
      <path id="Path_42164" data-name="Path 42164" d="M116.666,321.94a.4.4,0,0,0,.4.4h6.676a.4.4,0,0,0,.4-.4,3.745,3.745,0,0,0-2.232-3.42,2.606,2.606,0,1,0-3,0,3.735,3.735,0,0,0-2.24,3.42ZM118.6,316.4a1.806,1.806,0,1,1,1.8,1.808A1.81,1.81,0,0,1,118.6,316.4ZM120.4,319a2.945,2.945,0,0,1,2.912,2.536h-5.82A2.938,2.938,0,0,1,120.4,319Z" transform="translate(84.062 608.139)" fill="#879388"/>
      <path id="Path_42165" data-name="Path 42165" d="M414.228,318.521a2.606,2.606,0,1,0-3,0,3.741,3.741,0,0,0-2.232,3.42.4.4,0,0,0,.4.4h6.672a.4.4,0,0,0,.4-.4,3.738,3.738,0,0,0-2.236-3.42ZM410.92,316.4a1.806,1.806,0,1,1,1.808,1.808A1.811,1.811,0,0,1,410.92,316.4Zm-1.1,5.144a2.94,2.94,0,0,1,5.824,0Z" transform="translate(-195.735 608.138)" fill="#879388"/>
      <path id="Path_42166" data-name="Path 42166" d="M249.883,55.267a.4.4,0,0,0,.4.4h2.212a.4.4,0,0,0,.4-.4V51.219a4.552,4.552,0,1,0-9.1,0v4.048a.4.4,0,0,0,.4.4H246.4a.4.4,0,0,0,.4-.4V51.219a1.54,1.54,0,1,1,3.08,0Zm.8-.4V53.8h1.412v1.068Zm-6.092,0V53.8H246v1.068Zm3.752-5.988a2.34,2.34,0,0,0-2.34,2.34V53h-1.412V51.219a3.752,3.752,0,1,1,7.5,0V53h-1.412V51.219A2.34,2.34,0,0,0,248.343,48.879Z" transform="translate(-37.614 863.812)" fill="#879388"/>
      <path id="Path_42167" data-name="Path 42167" d="M325.642,278.031a.408.408,0,0,0,.252.092.4.4,0,0,0,.308-.148l1.256-1.532a.392.392,0,0,0,.076-.36.4.4,0,0,0-.252-.268l-.856-.308.564-.984a.4.4,0,1,0-.692-.4l-.8,1.4a.4.4,0,0,0-.028.336.39.39,0,0,0,.24.236l.772.276-.9,1.1a.4.4,0,0,0,.056.56Z" transform="translate(-115.77 646.292)" fill="#879388"/>
    </g>
  </g>
</svg>
