<svg xmlns="http://www.w3.org/2000/svg" xmlns:xlink="http://www.w3.org/1999/xlink" width="98.526" height="100" viewBox="0 0 98.526 100">
  <defs>
    <radialGradient id="radial-gradient" cx="0.5" cy="0.5" r="0.5" gradientUnits="objectBoundingBox">
      <stop offset="0" stop-color="#1ba3f3"/>
      <stop offset="1" stop-color="#178cfc"/>
    </radialGradient>
  </defs>
  <g id="Human_hand_holding_stopwatch_Converted_" data-name="Human hand holding stopwatch [Converted]" transform="translate(-89.9 -151.759)">
    <path id="Path_45850" data-name="Path 45850" d="M349.873,748.667s-.714,10.274-2.635,9.744,1.807-11.291,1.807-11.291-7.206-8.061-10.88-9.187c0,0,1.661,11.773-.07,10.788s-4.025-13.158-4.025-13.158-8.521-5.535-12.27-.676-2.494,8.581-1.266,9.49,10.047,4.436,9.344,5.481-7.38.411-10.263-1.986c0,0-.087,10.512,4.885,12.043s7.683-.817,10.739.184,4.891,2.694,3.078,2.878-6.606-2.435-9.841-1.39-5.692,1.493-1.628,4.247,12.276,5.491,15.289,2.737l.379-.346a1.846,1.846,0,0,1-.379.346c.622.817.9,3.609,1.033,5.713,0,.346.022.839.076,1.52h0c.011.3.016.546.022.72-.06,4.572-3.7,10.994-3.7,10.994l.844.649a17.075,17.075,0,0,0,3.565-13.082,19.615,19.615,0,0,1,1.174-9.262s10.528-1.239,9.235-9.392C354.4,756.42,352.865,751.113,349.873,748.667Z" transform="translate(-216.989 -549.691)" fill="#cbe2ef"/>
    <path id="Path_45851" data-name="Path 45851" d="M846.01,424.943a59.665,59.665,0,0,1-10.528,16.177c-3.733,4.117-8.889,6.611-10.9,10.907-2.24,4.793-4.025,10.052-4.025,10.052L807.3,442.028s.839-22.3,1.791-25.856c1.174-4.4,2.992-7.223,4.518-13.953.352-1.547,2.575-8.878,2.754-9.425a1.814,1.814,0,0,1,1.536-.6,2.4,2.4,0,0,1,2.067,1.953,22.242,22.242,0,0,1-.271,11.2c.5,5.1-1.012,8.884.049,9.89.038.038.114.022.216-.049,1.845-1.185,13.3-17.881,14.705-18.238C836.164,396.577,846.01,424.943,846.01,424.943Z" transform="translate(-678.587 -227.433)" fill="#ffb27d"/>
    <path id="Path_45852" data-name="Path 45852" d="M1131.616,900.719a18.052,18.052,0,0,0-2.851-.828c-8.624-.07-17.865,7.472-17.865,7.472,2.516,4.707,12.5,6.168,18.222,4.453,2.4-3.776,4.068-6.649,4.068-6.649S1132.563,903.386,1131.616,900.719Z" transform="translate(-965.761 -707.656)" fill="#efa26f"/>
    <path id="Path_45853" data-name="Path 45853" d="M994.193,658.6a19.683,19.683,0,0,0-1.991-9.5c-.774-1.6-1.564-4.685-.26-7.006s1.753-6.79,1.753-6.79c.5,5.1-1.012,8.884.049,9.89.038.038.114.022.216-.049C996.006,649.047,995.119,654.679,994.193,658.6Z" transform="translate(-852.582 -457.381)" fill="#efa26f"/>
    <path id="Path_45854" data-name="Path 45854" d="M522.8,1456.915s0,2.949-.525,13.288H489.8c7.715-16.453,14.424-30.3,14.424-30.3S521.98,1448.313,522.8,1456.915Z" transform="translate(-378.264 -1218.45)" fill="#127dbb"/>
    <path id="Path_45855" data-name="Path 45855" d="M682.517,1570.6a23.487,23.487,0,0,0-6.417,1.958c1.926,3.452,9.987,5.345,14.857,6.265,4.447.838,6.5,1.769,8.061,1.845v-.119a8.108,8.108,0,0,0-.709-2.543C694.506,1573.759,682.517,1570.6,682.517,1570.6Z" transform="translate(-554.485 -1342.078)" fill="url(#radial-gradient)"/>
    <path id="Path_45856" data-name="Path 45856" d="M1427.476,361.008l-4.144,6.076-4.069,5.962a.929.929,0,0,1-.844.373c-.974-.092-2.186-1.5-3.122-2.278l-.1-.076a2.938,2.938,0,0,1-.39-4.123l6.216-7.515h0l1.845-2.229a2.938,2.938,0,0,1,4.123-.39l.1.076A2.947,2.947,0,0,1,1427.476,361.008Z" transform="translate(-1252.597 -193.325)" fill="#ffb27d"/>
    <path id="Path_45857" data-name="Path 45857" d="M1468.692,481.4a2.912,2.912,0,0,0-.508,1.85l4.269,4.426a.929.929,0,0,0,.844-.373l2.586-3.793A15.493,15.493,0,0,0,1468.692,481.4Z" transform="translate(-1303.709 -311.807)" fill="#efa26f"/>
    <path id="Path_45858" data-name="Path 45858" d="M950.309,408.9c-.536,1.536-.963,2.97-1.309,4.328a3,3,0,0,0,1.785.135C951.386,413.06,951.884,409.133,950.309,408.9Z" transform="translate(-812.62 -243.229)" fill="#ffc197"/>
    <g id="Group_58558" data-name="Group 58558" transform="translate(132.178 151.759)">
      <path id="Path_45859" data-name="Path 45859" d="M1258.069,151.858a7.778,7.778,0,1,0,6.449,8.911A7.777,7.777,0,0,0,1258.069,151.858Zm-2.375,14.83a7.241,7.241,0,1,1,8.294-6.005A7.243,7.243,0,0,1,1255.694,166.688Z" transform="translate(-1228.623 -151.759)" fill="#127dbb"/>
      <rect id="Rectangle_19648" data-name="Rectangle 19648" width="4.247" height="3.971" transform="translate(25.485 11.71) rotate(9.108)" fill="#2a3d6b"/>
      <rect id="Rectangle_19649" data-name="Rectangle 19649" width="1.888" height="2.727" transform="matrix(0.849, -0.528, 0.528, 0.849, 11.822, 16.967)" fill="#2a3d6b"/>
      <circle id="Ellipse_4439" data-name="Ellipse 4439" cx="19.239" cy="19.239" r="19.239" transform="translate(4.726 15.357)" fill="#233d82"/>
      <circle id="Ellipse_4440" data-name="Ellipse 4440" cx="16.945" cy="16.945" r="16.945" transform="translate(0 34.597) rotate(-45)" fill="#729fe3"/>
      <circle id="Ellipse_4441" data-name="Ellipse 4441" cx="15.982" cy="15.982" r="15.982" transform="translate(7.983 18.614)" fill="#c8dcfa"/>
      <path id="Path_45860" data-name="Path 45860" d="M959.629,452.846a19.238,19.238,0,0,1,34.214-8.721,19.239,19.239,0,1,0-31.158,22.545A19.2,19.2,0,0,1,959.629,452.846Z" transform="translate(-953.94 -420.301)" fill="#405a99"/>
      <path id="Path_45861" data-name="Path 45861" d="M1085.546,604a16.943,16.943,0,0,1-27.446,19.866A16.943,16.943,0,1,0,1085.546,604Z" transform="translate(-1047.996 -579.533)" fill="#405a99"/>
      <path id="Path_45862" data-name="Path 45862" d="M1293.986,769.539a1.175,1.175,0,1,0,.974,1.347A1.179,1.179,0,0,0,1293.986,769.539Zm-.314,1.926a.775.775,0,1,1,.887-.644A.78.78,0,0,1,1293.672,771.465Z" transform="translate(-1269.831 -736.101)" fill="#c65447"/>
      <g id="Group_58553" data-name="Group 58553" transform="translate(10.813 32.469)">
        <path id="Path_45863" data-name="Path 45863" d="M1083.5,753.675l-12.292-1.775-.005.038,12.227,2.159a.983.983,0,0,1,.011-.216A1.294,1.294,0,0,1,1083.5,753.675Z" transform="translate(-1071.2 -751.9)" fill="#c65447"/>
        <path id="Path_45864" data-name="Path 45864" d="M1334.558,790.06l-4.583-.66a.919.919,0,0,1-.005.243.832.832,0,0,1-.07.233l4.561.806Z" transform="translate(-1315.904 -787.371)" fill="#c65447"/>
      </g>
      <g id="Group_58555" data-name="Group 58555" transform="translate(15.98 22.068)">
        <circle id="Ellipse_4442" data-name="Ellipse 4442" cx="3.663" cy="3.663" r="3.663" transform="translate(0 5.18) rotate(-45)" fill="#6ea7fb"/>
        <path id="Path_45865" data-name="Path 45865" d="M1258.078,650.756a.269.269,0,1,0-.308.222A.264.264,0,0,0,1258.078,650.756Zm-.443-.07a.178.178,0,1,1,.146.206A.178.178,0,0,1,1257.634,650.685Z" transform="translate(-1252.629 -645.532)" fill="#c65447"/>
        <g id="Group_58554" data-name="Group 58554" transform="translate(2.17 4.699)">
          <path id="Path_45866" data-name="Path 45866" d="M1209.619,646.906l-2.819-.406v.011l2.8.492v-.049A.251.251,0,0,1,1209.619,646.906Z" transform="translate(-1206.8 -646.5)" fill="#c65447"/>
          <path id="Path_45867" data-name="Path 45867" d="M1267.266,655.151l-1.049-.152v.054c-.005.022-.011.038-.016.054l1.044.184Z" transform="translate(-1262.986 -654.54)" fill="#c65447"/>
        </g>
      </g>
      <g id="Group_58557" data-name="Group 58557" transform="translate(23.748 23.319)">
        <circle id="Ellipse_4443" data-name="Ellipse 4443" cx="3.663" cy="3.663" r="3.663" transform="translate(0 5.18) rotate(-45)" fill="#6ea7fb"/>
        <path id="Path_45868" data-name="Path 45868" d="M1401.578,673.756a.269.269,0,1,0-.308.222A.262.262,0,0,0,1401.578,673.756Zm-.438-.07a.178.178,0,1,1,.146.206A.178.178,0,0,1,1401.14,673.685Z" transform="translate(-1396.134 -668.538)" fill="#233d82"/>
        <g id="Group_58556" data-name="Group 58556" transform="translate(4.908 2.161)">
          <path id="Path_45869" data-name="Path 45869" d="M1405.8,625.519l.406-2.819h-.011l-.492,2.8h.049Z" transform="translate(-1405.446 -622.7)" fill="#233d82"/>
          <path id="Path_45870" data-name="Path 45870" d="M1401.141,683.166l.151-1.05h-.054c-.021-.005-.038-.011-.054-.016l-.184,1.044Z" transform="translate(-1401 -678.886)" fill="#233d82"/>
        </g>
      </g>
      <rect id="Rectangle_19650" data-name="Rectangle 19650" width="1.509" height="1.509" transform="translate(25.722 18.88) rotate(9.108)" fill="#2a3d6b"/>
      <rect id="Rectangle_19651" data-name="Rectangle 19651" width="1.509" height="1.509" transform="translate(20.959 48.593) rotate(9.108)" fill="#2a3d6b"/>
      <rect id="Rectangle_19652" data-name="Rectangle 19652" width="1.509" height="1.509" transform="translate(8.249 32.842) rotate(-80.892)" fill="#2a3d6b"/>
      <rect id="Rectangle_19653" data-name="Rectangle 19653" width="1.509" height="1.509" transform="translate(37.962 37.604) rotate(-80.892)" fill="#2a3d6b"/>
      <rect id="Rectangle_19654" data-name="Rectangle 19654" width="1.509" height="1.509" transform="translate(17.623 20.108) rotate(-20.893)" fill="#2a3d6b"/>
      <rect id="Rectangle_19655" data-name="Rectangle 19655" width="1.509" height="1.509" transform="translate(28.355 48.218) rotate(-20.893)" fill="#2a3d6b"/>
      <rect id="Rectangle_19656" data-name="Rectangle 19656" width="1.509" height="1.509" transform="translate(9.476 40.939) rotate(-110.893)" fill="#2a3d6b"/>
      <rect id="Rectangle_19657" data-name="Rectangle 19657" width="1.509" height="1.509" transform="translate(37.589 30.209) rotate(-110.893)" fill="#2a3d6b"/>
      <rect id="Rectangle_19658" data-name="Rectangle 19658" width="1.509" height="1.509" transform="matrix(0.631, -0.776, 0.776, 0.631, 11.236, 25.207)" fill="#2a3d6b"/>
      <rect id="Rectangle_19659" data-name="Rectangle 19659" width="1.509" height="1.509" transform="translate(34.583 44.205) rotate(-50.856)" fill="#2a3d6b"/>
      <rect id="Rectangle_19660" data-name="Rectangle 19660" width="1.509" height="1.509" transform="translate(14.581 47.323) rotate(-140.856)" fill="#2a3d6b"/>
      <rect id="Rectangle_19661" data-name="Rectangle 19661" width="1.509" height="1.509" transform="matrix(-0.776, -0.631, 0.631, -0.776, 33.571, 23.994)" fill="#2a3d6b"/>
      <path id="Path_45871" data-name="Path 45871" d="M1309.9,322.488l-6.227-1a1.083,1.083,0,0,1-.9-1.239l.287-1.785a1.083,1.083,0,0,1,1.239-.9l6.227,1a1.083,1.083,0,0,1,.9,1.239l-.287,1.785A1.086,1.086,0,0,1,1309.9,322.488Z" transform="translate(-1279.416 -308.587)" fill="#2b478b"/>
      <path id="Path_45872" data-name="Path 45872" d="M1064.209,417.75l-2.867,1.78a.519.519,0,0,1-.714-.168l-.893-1.434a.518.518,0,0,1,.168-.714l2.868-1.78a.518.518,0,0,1,.714.168l.893,1.434A.522.522,0,0,1,1064.209,417.75Z" transform="translate(-1049.468 -401.095)" fill="#2b478b"/>
      <path id="Path_45873" data-name="Path 45873" d="M1001.215,460.036c.5-.119,1.18-.693,1.277-.119a22.052,22.052,0,0,1,.2,4.377c-.233.346-2.792-2.05-2.792-2.05Z" transform="translate(-992.944 -443.008)" fill="#ffb27d"/>
    </g>
    <g id="Group_58559" data-name="Group 58559" transform="translate(169.307 179.613)">
      <path id="Path_45874" data-name="Path 45874" d="M1566.271,672.247l-.617.233-4.155,1.58a2.029,2.029,0,0,1-.292.092,2.835,2.835,0,0,1-3.354-1.731l-.059-.162a2.839,2.839,0,0,1,1.639-3.652l3.874-1.472.281-.108.617-.233a2.839,2.839,0,0,1,3.652,1.639l.06.157A2.851,2.851,0,0,1,1566.271,672.247Z" transform="translate(-1557.61 -666.61)" fill="#ffb27d"/>
      <path id="Path_45875" data-name="Path 45875" d="M1582.461,713.018a16.4,16.4,0,0,1-2.619.828,1.1,1.1,0,0,1-.866-.433,2.628,2.628,0,0,1-.525-.941,2.928,2.928,0,0,1-.141-.6,2.435,2.435,0,0,1,.022-.714.718.718,0,0,1,.4-.509h.005a16.538,16.538,0,0,1,2.521-.99,1.094,1.094,0,0,1,1.358.606l.087.238.444,1.223A1.042,1.042,0,0,1,1582.461,713.018Z" transform="translate(-1577.175 -707.284)" fill="#ffd3b6"/>
      <path id="Path_45876" data-name="Path 45876" d="M1589.933,724.954a16.42,16.42,0,0,1-2.619.828,1.105,1.105,0,0,1-.866-.433q-.049-.122-.1-.26a2.928,2.928,0,0,1-.141-.6,2.426,2.426,0,0,1,.022-.714.718.718,0,0,1,.4-.509h.005a16.533,16.533,0,0,1,2.521-.99,1.209,1.209,0,0,1,1.023.162l.443,1.223A1.049,1.049,0,0,1,1589.933,724.954Z" transform="translate(-1584.648 -719.22)" fill="#ffc197"/>
    </g>
    <g id="Group_58560" data-name="Group 58560" transform="translate(171.698 186.593)">
      <path id="Path_45877" data-name="Path 45877" d="M1607.427,799.576l-3.2.871a1.838,1.838,0,0,1-2.25-1.288l-.1-.362a1.838,1.838,0,0,1,1.288-2.251l3.2-.871a1.838,1.838,0,0,1,2.25,1.288l.1.362A1.838,1.838,0,0,1,1607.427,799.576Z" transform="translate(-1601.811 -795.611)" fill="#ffb27d"/>
      <path id="Path_45878" data-name="Path 45878" d="M1615.41,819.152a14.811,14.811,0,0,1-2.213.465,1.091,1.091,0,0,1-.876-.692,2.213,2.213,0,0,1-.162-.455,2.018,2.018,0,0,1-.07-.471,1.882,1.882,0,0,1,.07-.547.57.57,0,0,1,.362-.368h.005a14.4,14.4,0,0,1,2.143-.6.912.912,0,0,1,1.071.552l.081.287.249.866A.814.814,0,0,1,1615.41,819.152Z" transform="translate(-1611.531 -815.344)" fill="#ffd3b6"/>
      <path id="Path_45879" data-name="Path 45879" d="M1618.342,827.575a14.82,14.82,0,0,1-2.213.465,1.091,1.091,0,0,1-.876-.693,2.042,2.042,0,0,1-.065-.444,1.877,1.877,0,0,1,.07-.546.57.57,0,0,1,.363-.368h.005a14.38,14.38,0,0,1,2.143-.6.957.957,0,0,1,.979.362l.249.866A.8.8,0,0,1,1618.342,827.575Z" transform="translate(-1614.464 -823.766)" fill="#ffc197"/>
    </g>
    <g id="Group_58561" data-name="Group 58561" transform="translate(168.071 172.347)">
      <path id="Path_45880" data-name="Path 45880" d="M1543.652,539.39a.268.268,0,0,1-.07.022l-4.2,1.077a3.474,3.474,0,0,1-4.247-2.224l-.249-.871a3.222,3.222,0,0,1,2.256-3.885l1.385-.357,2.813-.725a3.474,3.474,0,0,1,4.247,2.224l.249.871A3.208,3.208,0,0,1,1543.652,539.39Z" transform="translate(-1534.767 -532.308)" fill="#ffb27d"/>
      <path id="Path_45881" data-name="Path 45881" d="M1594.581,566.8l-2.04.92c-.005,0-.005,0-.011.005a1.845,1.845,0,0,1-.249.049.659.659,0,0,1-.1.011h-.043a.323.323,0,0,1-.281-.46,2.024,2.024,0,0,0,.114-1.385l-.049-.179v-.005l-.157-.579a2.169,2.169,0,0,0-.741-1.131l-.13-.1a.585.585,0,0,1,.173-1.044c.005,0,.011,0,.011-.005l2.24-.341a1.068,1.068,0,0,1,1.239.828l.178.66.384,1.407C1595.263,566.023,1595.133,566.651,1594.581,566.8Z" transform="translate(-1587.616 -560.895)" fill="#ffd3b6"/>
      <path id="Path_45882" data-name="Path 45882" d="M1601.26,582.9l-2.04.92c-.005,0-.005,0-.011.005-.049.011-.2.033-.395.065a.323.323,0,0,1-.281-.46,2.024,2.024,0,0,0,.113-1.385l-.049-.179v-.005l-.157-.579a2.17,2.17,0,0,0-.741-1.131.54.54,0,0,1,.319-.227c.005,0,.011,0,.011-.005l2.24-.341a1.026,1.026,0,0,1,1.142.579l.384,1.407C1601.942,582.124,1601.812,582.752,1601.26,582.9Z" transform="translate(-1594.295 -576.996)" fill="#ffc197"/>
    </g>
    <path id="Path_45883" data-name="Path 45883" d="M116.454,1306.936s-1.564-4.274-4.16-6.108c0,0-1.206,8.694-2.813,8.369s2.045-9.592,2.045-9.592-6.373-6.206-9.452-6.92c0,0,2.034,9.571.557,8.862s-4.052-10.566-4.052-10.566S93.2,1288,89.9,1289.8v10.031c2.527,1,6.427,2.462,6.049,3.122s-3.452.758-6.049.054v6.979a3.962,3.962,0,0,0,2.213,1.52c4.171.974,6.26-1.109,8.83-.46s4.166,1.937,2.689,2.186-5.556-1.623-8.153-.584-4.588,1.547-1.093,3.576,10.388,3.809,12.7,1.375h0c.1-.108.2-.206.292-.3h0a1.732,1.732,0,0,1-.292.308c.557.639.947,2.911,1.174,4.631.016.287.065.687.146,1.233.027.254.049.46.06.606a13.055,13.055,0,0,1-.417,3.6h1.115a14.033,14.033,0,0,0-.189-4.832h0a16.175,16.175,0,0,1,.433-7.671h0C109.426,1315.166,117.979,1313.548,116.454,1306.936Z" transform="translate(0 -1075.921)" fill="#cbe2ef"/>
    <path id="Path_45884" data-name="Path 45884" d="M1270.34,1406.039c-1.466-5.416-10.609-3.722-10.609-3.722s-6.206,9.479-8.013,9.706,3.722-9.143,3.722-9.143c-3.5-.341-12.417,3.949-12.417,3.949s.563,11.059-1.239,10.837,0-9.82,0-9.82c-3.387,1.017-6.547,4.967-6.547,4.967-3.949,6.433,4.512,11.172,4.512,11.172a18.008,18.008,0,0,1-2.256,8.24h0a12.815,12.815,0,0,0-1.077,2.2h.925c.076-.249.157-.487.249-.714v-.005c0-.005.005-.005.005-.011.065-.141.151-.346.265-.6h0c.281-.552.471-.958.6-1.255v-.005c.844-1.731,2.061-3.993,2.873-4.464a1.885,1.885,0,0,1-.2-.422c.065.135.13.276.2.422,1.58,3.387,9.479,3.949,13.883,3.046s2.483-2.142.114-4.161-7.336-1.482-8.8-2.272.676-1.58,3.614-1.353,4.4,3.16,9.143,3.614,8.353-8.467,8.353-8.467c-3.273,1.017-9.143-.79-9.365-1.921s8.467-1.017,9.819-1.353S1271.811,1411.455,1270.34,1406.039Z" transform="translate(-1082.379 -1182.663)" fill="#cbe2ef"/>
    <path id="Path_45885" data-name="Path 45885" d="M673.87,1311.133c-2.148-.79-1.694,2.494-3.046,6.379s-6.195,7.25-4.052,9.511c4.631,3.614,15.4,4.166,22.918,7.986,2.418-.855,2.456-6.265,2.418-10.161s3.241-5.6,1.385-6.855C685.01,1317.987,675.472,1313.113,673.87,1311.133Z" transform="translate(-545.151 -1096.537)" fill="#127dbb"/>
    <path id="Path_45886" data-name="Path 45886" d="M891.319,553.183c.352-10.106-1.861-13.883-2.164-18.839-.087-1.418,2.64-9.452,2.527-14.694-.855-2.629-6.568,7.6-7.52,11.794s-3.571,15.349.693,19.569S891.319,553.183,891.319,553.183Z" transform="translate(-749.708 -347.585)" fill="#ffb27d"/>
  </g>
</svg>
