<svg xmlns="http://www.w3.org/2000/svg" width="20" height="20" viewBox="0 0 20 20">
  <path id="Collage" d="M18.182,20H12.727a1.82,1.82,0,0,1-1.818-1.818V12.727a1.82,1.82,0,0,1,1.818-1.818h5.455A1.82,1.82,0,0,1,20,12.727v5.455A1.82,1.82,0,0,1,18.182,20ZM7.273,20H1.818A1.816,1.816,0,0,1,0,18.19V1.81A1.816,1.816,0,0,1,1.818,0H7.273A1.816,1.816,0,0,1,9.091,1.81V18.19A1.816,1.816,0,0,1,7.273,20ZM18.182,9.091H12.727a1.82,1.82,0,0,1-1.818-1.818V1.818A1.82,1.82,0,0,1,12.727,0h5.455A1.82,1.82,0,0,1,20,1.818V7.273A1.82,1.82,0,0,1,18.182,9.091Z" fill="#077dbb"/>
</svg>
