<svg width="24" height="24" viewBox="0 0 24 24" fill="none" xmlns="http://www.w3.org/2000/svg">
<rect width="24" height="24" rx="12" fill="#077DBB" fill-opacity="0.3"/>
<rect x="2" y="2" width="20" height="20" rx="10" fill="#077DBB"/>
<path d="M11.16 8.39761L11.4545 8.04352V10.1981C11.4545 10.3572 11.512 10.5099 11.6143 10.6224C11.7166 10.735 11.8553 10.7982 12 10.7982C12.1447 10.7982 12.2834 10.735 12.3857 10.6224C12.488 10.5099 12.5455 10.3572 12.5455 10.1981V8.04352L12.84 8.3736C12.8895 8.43513 12.95 8.48481 13.0177 8.51958C13.0853 8.55434 13.1588 8.57344 13.2334 8.57569C13.3081 8.57794 13.3824 8.56329 13.4517 8.53266C13.521 8.50203 13.5839 8.45606 13.6364 8.39761C13.6875 8.34181 13.7281 8.27544 13.7558 8.2023C13.7835 8.12917 13.7977 8.05073 13.7977 7.9715C13.7977 7.89227 13.7835 7.81383 13.7558 7.7407C13.7281 7.66756 13.6875 7.60119 13.6364 7.54539L12.3873 6.17105C12.3354 6.11641 12.2742 6.07358 12.2073 6.04502C12.0745 5.98499 11.9255 5.98499 11.7927 6.04502C11.7258 6.07358 11.6646 6.11641 11.6127 6.17105L10.3636 7.52139C10.258 7.63758 10.1987 7.79517 10.1987 7.9595C10.1987 8.12382 10.258 8.28141 10.3636 8.39761C10.4692 8.5138 10.6125 8.57908 10.7618 8.57908C10.9112 8.57908 11.0544 8.5138 11.16 8.39761ZM12 11.9985C11.6764 11.9985 11.36 12.1041 11.0909 12.3019C10.8218 12.4998 10.612 12.781 10.4882 13.11C10.3643 13.4389 10.3319 13.8009 10.3951 14.1502C10.4582 14.4995 10.6141 14.8203 10.8429 15.0721C11.0718 15.3239 11.3633 15.4953 11.6808 15.5648C11.9982 15.6343 12.3272 15.5986 12.6262 15.4624C12.9252 15.3261 13.1808 15.0953 13.3606 14.7992C13.5404 14.5031 13.6364 14.155 13.6364 13.799C13.6364 13.3214 13.464 12.8635 13.1571 12.5258C12.8502 12.1882 12.434 11.9985 12 11.9985ZM12 14.3991C11.8921 14.3991 11.7867 14.3639 11.697 14.298C11.6073 14.232 11.5374 14.1383 11.4961 14.0286C11.4548 13.919 11.444 13.7983 11.465 13.6819C11.4861 13.5655 11.538 13.4585 11.6143 13.3746C11.6906 13.2907 11.7878 13.2335 11.8936 13.2103C11.9994 13.1872 12.1091 13.1991 12.2087 13.2445C12.3084 13.2899 12.3936 13.3668 12.4535 13.4655C12.5135 13.5642 12.5455 13.6803 12.5455 13.799C12.5455 13.9581 12.488 14.1108 12.3857 14.2233C12.2834 14.3359 12.1447 14.3991 12 14.3991ZM8.18182 13.799C8.18182 13.9177 8.21381 14.0337 8.27374 14.1324C8.33368 14.2311 8.41887 14.308 8.51854 14.3534C8.61821 14.3988 8.72788 14.4107 8.83369 14.3876C8.93949 14.3644 9.03668 14.3073 9.11297 14.2233C9.18925 14.1394 9.2412 14.0325 9.26225 13.916C9.28329 13.7996 9.27249 13.6789 9.23121 13.5693C9.18992 13.4596 9.12001 13.3659 9.03031 13.2999C8.94061 13.234 8.83515 13.1988 8.72727 13.1988C8.58261 13.1988 8.44387 13.262 8.34158 13.3746C8.23929 13.4871 8.18182 13.6398 8.18182 13.799ZM15.8182 13.799C15.8182 13.6803 15.7862 13.5642 15.7263 13.4655C15.6663 13.3668 15.5811 13.2899 15.4815 13.2445C15.3818 13.1991 15.2721 13.1872 15.1663 13.2103C15.0605 13.2335 14.9633 13.2907 14.887 13.3746C14.8107 13.4585 14.7588 13.5655 14.7378 13.6819C14.7167 13.7983 14.7275 13.919 14.7688 14.0286C14.8101 14.1383 14.88 14.232 14.9697 14.298C15.0594 14.3639 15.1648 14.3991 15.2727 14.3991C15.4174 14.3991 15.5561 14.3359 15.6584 14.2233C15.7607 14.1108 15.8182 13.9581 15.8182 13.799ZM16.3636 9.59791H14.1818C14.0372 9.59791 13.8984 9.66114 13.7961 9.77369C13.6938 9.88623 13.6364 10.0389 13.6364 10.1981C13.6364 10.3572 13.6938 10.5099 13.7961 10.6224C13.8984 10.735 14.0372 10.7982 14.1818 10.7982H16.3636C16.5083 10.7982 16.647 10.8614 16.7493 10.974C16.8516 11.0865 16.9091 11.2392 16.9091 11.3984V16.1996C16.9091 16.3587 16.8516 16.5114 16.7493 16.6239C16.647 16.7365 16.5083 16.7997 16.3636 16.7997H7.63636C7.4917 16.7997 7.35296 16.7365 7.25067 16.6239C7.14838 16.5114 7.09091 16.3587 7.09091 16.1996V11.3984C7.09091 11.2392 7.14838 11.0865 7.25067 10.974C7.35296 10.8614 7.4917 10.7982 7.63636 10.7982H9.81818C9.96285 10.7982 10.1016 10.735 10.2039 10.6224C10.3062 10.5099 10.3636 10.3572 10.3636 10.1981C10.3636 10.0389 10.3062 9.88623 10.2039 9.77369C10.1016 9.66114 9.96285 9.59791 9.81818 9.59791H7.63636C7.20237 9.59791 6.78616 9.78759 6.47928 10.1252C6.1724 10.4629 6 10.9208 6 11.3984V16.1996C6 16.6771 6.1724 17.135 6.47928 17.4727C6.78616 17.8103 7.20237 18 7.63636 18H16.3636C16.7976 18 17.2138 17.8103 17.5207 17.4727C17.8276 17.135 18 16.6771 18 16.1996V11.3984C18 10.9208 17.8276 10.4629 17.5207 10.1252C17.2138 9.78759 16.7976 9.59791 16.3636 9.59791Z" fill="white"/>
</svg>
