<!DOCTYPE svg PUBLIC "-//W3C//DTD SVG 1.1//EN" "http://www.w3.org/Graphics/SVG/1.1/DTD/svg11.dtd">
<!-- Uploaded to: SVG Repo, www.svgrepo.com, Transformed by: SVG Repo Mixer Tools -->
<svg fill="#000000" width="800px" height="800px" viewBox="0 0 24 24" id="trophy-star-2" data-name="Flat Color" xmlns="http://www.w3.org/2000/svg" class="icon flat-color" stroke="#000000" stroke-width="0.00024000000000000003" transform="rotate(0)">
<g id="SVGRepo_bgCarrier" stroke-width="0"/>
<g id="SVGRepo_tracerCarrier" stroke-linecap="round" stroke-linejoin="round"/>
<g id="SVGRepo_iconCarrier">
<path id="primary" d="M17.56,20.17A5.75,5.75,0,0,1,15,15.39V14a1,1,0,0,0-.55-.89l-2-1a1,1,0,0,0-.9,0l-2,1A1,1,0,0,0,9,14v1.42a5.75,5.75,0,0,1-2.56,4.78A1,1,0,0,0,7,22H17a1,1,0,0,0,.56-1.83Z" style="fill: #000000;"/>
<path id="secondary" d="M18,22H6a1,1,0,0,1,0-2H18a1,1,0,0,1,0,2ZM19.45,7.28a1,1,0,0,0-.81-.69l-4-.56L12.89,2.55a1,1,0,0,0-1.78,0L9.34,6l-4,.56a1,1,0,0,0-.81.69,1,1,0,0,0,.26,1L7.67,11,7,14.83a1,1,0,0,0,.39,1,1,1,0,0,0,1,.09L12,14.07l3.56,1.82A1.07,1.07,0,0,0,16,16a1,1,0,0,0,1-1.17L16.33,11l2.86-2.7A1,1,0,0,0,19.45,7.28Z" style="fill: #147AD6;"/>
</g>
</svg>