<svg xmlns="http://www.w3.org/2000/svg" width="82.477" height="86.001" viewBox="0 0 82.477 86.001">
  <g id="Group_58398" data-name="Group 58398" transform="translate(22986.002 21232.631)">
    <rect id="Rectangle_19586" data-name="Rectangle 19586" width="4.686" height="0.049" transform="translate(-22947.195 -21154.793)" fill="#ebebeb"/>
    <rect id="Rectangle_19587" data-name="Rectangle 19587" width="10.545" height="0.049" transform="translate(-22949.621 -21154.379)" fill="#ebebeb"/>
    <rect id="Rectangle_19588" data-name="Rectangle 19588" width="1.538" height="0.049" transform="translate(-22944.77 -21154.379)" fill="#ebebeb"/>
    <g id="Group_58339" data-name="Group 58339" transform="translate(-22920.922 -21208.186)">
      <g id="Group_58338" data-name="Group 58338">
        <path id="Path_45564" data-name="Path 45564" d="M389.667,187.881c3.344-2.587,7.64-3,10.984-5.614l-4.467-4.467c-3.344,2.587-7.64,3-10.984,5.614Z" transform="translate(-385.2 -177.8)" fill="#f5f5f5"/>
        <path id="Path_45565" data-name="Path 45565" d="M392.746,187.768c2.538-1.44,5.492-1.9,8.03-3.368a2.32,2.32,0,0,0,1.757.146l1.879,1.879a1.643,1.643,0,0,0-.146,1.465c-2.514,1.465-5.492,1.928-8.03,3.368a2.32,2.32,0,0,0-1.757-.146l-1.879-1.879A1.644,1.644,0,0,0,392.746,187.768Z" transform="translate(-390.794 -182.789)" fill="#e6e6e6"/>
        <path id="Path_45566" data-name="Path 45566" d="M409.079,194.706a3.006,3.006,0,0,0,2.807.757c.854-.293.952-1.123.22-1.831a3.007,3.007,0,0,0-2.807-.757C408.445,193.168,408.347,193.973,409.079,194.706Z" transform="translate(-402.879 -189.116)" fill="#fafafa"/>
      </g>
    </g>
    <g id="Group_58341" data-name="Group 58341" transform="translate(-22934.287 -21230.521)">
      <g id="Group_58340" data-name="Group 58340" transform="translate(1.449 2.043)">
        <path id="Path_45567" data-name="Path 45567" d="M363.5,99.5c2.27,1.9,2.807,5.028,1.172,6.981l-.561.683c-1.635,1.953-4.809,1.953-7.079.049s-2.807-5.028-1.172-6.981l.561-.683C358.06,97.593,361.233,97.593,363.5,99.5Z" transform="translate(-354.915 -98.075)" fill="#e0e0e0"/>
      </g>
      <ellipse id="Ellipse_4285" data-name="Ellipse 4285" cx="4.589" cy="5.394" rx="4.589" ry="5.394" transform="matrix(0.644, -0.765, 0.765, 0.644, 0, 7.022)" fill="#f5f5f5"/>
      <ellipse id="Ellipse_4286" data-name="Ellipse 4286" cx="3.808" cy="4.442" rx="3.808" ry="4.442" transform="matrix(0.644, -0.765, 0.765, 0.644, 1.231, 7.037)" fill="#e0e0e0"/>
      <path id="Path_45568" data-name="Path 45568" d="M373.854,111.879l.488.537-.342.317-.488-.537a2.205,2.205,0,0,1-1.367.513l-.268-.635a1.882,1.882,0,0,0,1.172-.391l-.879-.976c-.586.293-1.221.537-1.831-.122a1.334,1.334,0,0,1,.049-1.855l-.488-.537.342-.293.488.537a2.313,2.313,0,0,1,1.1-.464l.268.659a2.044,2.044,0,0,0-.9.342l.879.976c.586-.293,1.22-.561,1.831.122A1.273,1.273,0,0,1,373.854,111.879Zm-2.221-1.757-.781-.854a.6.6,0,0,0-.024.805A.692.692,0,0,0,371.633,110.121Zm1.782.415c-.22-.244-.488-.2-.805-.049l.781.854a.574.574,0,0,0,.024-.805Z" transform="translate(-364.794 -103.459)" fill="#f5f5f5"/>
    </g>
    <g id="Group_58343" data-name="Group 58343" transform="translate(-22920.125 -21191.887)">
      <g id="Group_58342" data-name="Group 58342" transform="translate(1.141 1.897)">
        <path id="Path_45569" data-name="Path 45569" d="M402.531,256.709c1.538,3.1.659,6.664-1.977,7.982l-.928.464c-2.636,1.318-6.029-.122-7.567-3.222s-.659-6.664,2-7.982l.928-.464C397.6,252.169,400.969,253.609,402.531,256.709Z" transform="translate(-391.304 -252.998)" fill="#e0e0e0"/>
      </g>
      <ellipse id="Ellipse_4287" data-name="Ellipse 4287" cx="5.345" cy="6.273" rx="5.345" ry="6.273" transform="translate(0 4.768) rotate(-26.488)" fill="#f5f5f5"/>
      <ellipse id="Ellipse_4288" data-name="Ellipse 4288" cx="4.418" cy="5.175" rx="4.418" ry="5.175" transform="translate(1.32 5.339) rotate(-26.488)" fill="#e0e0e0"/>
      <path id="Path_45570" data-name="Path 45570" d="M413.4,269.631l.268.805-.513.171-.269-.805a2.568,2.568,0,0,1-1.709-.1l.024-.805a2.353,2.353,0,0,0,1.416.146l-.488-1.44c-.757.024-1.562.024-1.9-.976a1.531,1.531,0,0,1,.928-1.953l-.268-.805.513-.171.269.805a2.455,2.455,0,0,1,1.391.024l-.024.806a2.5,2.5,0,0,0-1.123-.049l.488,1.465c.757-.024,1.562-.024,1.9.976A1.462,1.462,0,0,1,413.4,269.631Zm-1.538-2.9-.415-1.269a.679.679,0,0,0-.391.854C411.153,266.653,411.47,266.727,411.861,266.727ZM413.569,268c-.122-.342-.439-.439-.854-.439l.439,1.269a.652.652,0,0,0,.415-.83Z" transform="translate(-404.399 -259.191)" fill="#f5f5f5"/>
    </g>
    <g id="Group_58345" data-name="Group 58345" transform="translate(-22976.395 -21223.535)">
      <g id="Group_58344" data-name="Group 58344" transform="translate(2.323 2.143)">
        <path id="Path_45571" data-name="Path 45571" d="M122.885,116.9l1.05.513c3,1.489,4,5.565,2.27,9.056-1.757,3.515-5.59,5.15-8.592,3.661l-1.05-.513c-3-1.489-4-5.565-2.246-9.056C116.027,117.042,119.883,115.407,122.885,116.9Z" transform="translate(-113.452 -116.345)" fill="#e0e0e0"/>
      </g>
      <ellipse id="Ellipse_4289" data-name="Ellipse 4289" cx="7.103" cy="6.053" rx="7.103" ry="6.053" transform="translate(0 12.714) rotate(-63.512)" fill="#f5f5f5"/>
      <ellipse id="Ellipse_4290" data-name="Ellipse 4290" cx="5.882" cy="5.004" rx="5.882" ry="5.004" transform="translate(1.484 12.091) rotate(-63.512)" fill="#e0e0e0"/>
      <path id="Path_45572" data-name="Path 45572" d="M129.031,135.964l-.439.854-.537-.268.439-.854a2.861,2.861,0,0,1-1.294-1.44l.659-.635a2.564,2.564,0,0,0,1.025,1.245l.757-1.538c-.635-.561-1.269-1.245-.732-2.319a1.731,1.731,0,0,1,2.294-.83l.439-.879.537.268-.391.879a2.856,2.856,0,0,1,1.1,1.123l-.659.635a3.2,3.2,0,0,0-.854-.952l-.781,1.562c.635.561,1.294,1.245.757,2.294A1.739,1.739,0,0,1,129.031,135.964Zm1.123-3.564.683-1.367a.761.761,0,0,0-1,.366C129.641,131.765,129.836,132.083,130.153,132.4Zm.317,2.392c.2-.366,0-.683-.342-1.025l-.659,1.367a.764.764,0,0,0,1-.342Z" transform="translate(-121.522 -123.995)" fill="#f5f5f5"/>
    </g>
    <g id="Group_58347" data-name="Group 58347" transform="translate(-22979.426 -21186.922)">
      <g id="Group_58346" data-name="Group 58346" transform="translate(1.439 0.993)">
        <path id="Path_45573" data-name="Path 45573" d="M100.467,262.137l.854-.293c2.465-.83,5.248.854,6.2,3.735.976,2.88-.244,5.907-2.709,6.712l-.854.293c-2.465.83-5.248-.854-6.2-3.735C96.781,265.969,98,262.967,100.467,262.137Z" transform="translate(-97.42 -261.632)" fill="#e0e0e0"/>
      </g>
      <ellipse id="Ellipse_4291" data-name="Ellipse 4291" cx="4.711" cy="5.516" rx="4.711" ry="5.516" transform="translate(0 2.991) rotate(-18.511)" fill="#f5f5f5"/>
      <ellipse id="Ellipse_4292" data-name="Ellipse 4292" cx="3.881" cy="4.564" rx="3.881" ry="4.564" transform="translate(1.09 3.63) rotate(-18.511)" fill="#e0e0e0"/>
      <path id="Path_45574" data-name="Path 45574" d="M112.485,278l.244.708-.439.146-.244-.708a2.227,2.227,0,0,1-1.489-.073l.024-.708a1.985,1.985,0,0,0,1.245.122l-.415-1.269c-.659.024-1.367.024-1.66-.854a1.332,1.332,0,0,1,.805-1.709l-.244-.708.439-.146.244.708a2.081,2.081,0,0,1,1.22.024l-.024.708a2.3,2.3,0,0,0-1-.049l.439,1.269c.659-.024,1.391-.024,1.684.854A1.369,1.369,0,0,1,112.485,278Zm-1.342-2.563-.366-1.123a.608.608,0,0,0-.342.757C110.508,275.363,110.777,275.436,111.143,275.436Zm1.489,1.123c-.1-.317-.391-.391-.732-.366l.391,1.123c.342-.22.439-.488.342-.757Z" transform="translate(-105.242 -269.081)" fill="#f5f5f5"/>
    </g>
    <g id="Group_58349" data-name="Group 58349" transform="translate(-22982.02 -21203.146)">
      <g id="Group_58348" data-name="Group 58348">
        <path id="Path_45575" data-name="Path 45575" d="M80.9,200.375c6.151.757,11.033,4.784,17.184,5.565v-9.275c-6.151-.757-11.033-4.784-17.184-5.565Z" transform="translate(-80.9 -191.1)" fill="#f5f5f5"/>
        <path id="Path_45576" data-name="Path 45576" d="M86.76,196.8c4.125,1.147,7.664,3.735,11.814,4.833a3.6,3.6,0,0,0,1.66,1.977v3.881a2.45,2.45,0,0,0-1.66,1.342c-4.149-1.1-7.689-3.686-11.814-4.833a3.6,3.6,0,0,0-1.66-1.977v-3.881A2.33,2.33,0,0,0,86.76,196.8Z" transform="translate(-84.075 -195.409)" fill="#e6e6e6"/>
        <path id="Path_45577" data-name="Path 45577" d="M107.4,211.585a4.352,4.352,0,0,0,2.124,3.686c1.172.561,2.124-.2,2.124-1.66a4.352,4.352,0,0,0-2.124-3.686C108.352,209.363,107.4,210.12,107.4,211.585Z" transform="translate(-100.932 -205.19)" fill="#fafafa"/>
      </g>
    </g>
    <g id="Group_58351" data-name="Group 58351" transform="translate(-22958.756 -21232.631)">
      <g id="Group_58350" data-name="Group 58350">
        <path id="Path_45578" data-name="Path 45578" d="M176.2,74.767c2.587,3.344,3,7.64,5.614,10.984l4.467-4.467c-2.587-3.344-3-7.64-5.614-10.984Z" transform="translate(-176.2 -70.3)" fill="#f5f5f5"/>
        <path id="Path_45579" data-name="Path 45579" d="M186.19,77.846c1.44,2.539,1.9,5.492,3.368,8.03a2.32,2.32,0,0,0-.146,1.757l-1.879,1.879a1.643,1.643,0,0,0-1.464-.146c-1.465-2.514-1.928-5.492-3.368-8.03a2.32,2.32,0,0,0,.146-1.757l1.879-1.879A1.657,1.657,0,0,0,186.19,77.846Z" transform="translate(-181.113 -75.894)" fill="#e6e6e6"/>
        <path id="Path_45580" data-name="Path 45580" d="M191.932,94.235a3.007,3.007,0,0,0-.757,2.807c.293.854,1.123.952,1.831.22a3.022,3.022,0,0,0,.757-2.807C193.469,93.625,192.639,93.527,191.932,94.235Z" transform="translate(-187.44 -88.036)" fill="#fafafa"/>
      </g>
    </g>
    <g id="Group_58397" data-name="Group 58397" transform="translate(-22986.002 -21152.146)">
      <rect id="Rectangle_19584" data-name="Rectangle 19584" width="8.079" height="0.049" transform="translate(37.592 2.051)" fill="#ebebeb"/>
      <rect id="Rectangle_19585" data-name="Rectangle 19585" width="2.124" height="0.049" transform="translate(40.017 2.709)" fill="#ebebeb"/>
      <rect id="Rectangle_19589" data-name="Rectangle 19589" width="22.871" height="0.049" transform="translate(6.632 1.22)" fill="#ebebeb"/>
      <g id="Shadow" transform="translate(0 0)">
        <ellipse id="_x3C_Path_x3E__359_" cx="41.238" cy="2.758" rx="41.238" ry="2.758" transform="translate(0)" fill="#f5f5f5"/>
      </g>
    </g>
    <g id="Form" transform="translate(-22967.9 -21224.906)">
      <g id="Group_58396" data-name="Group 58396" transform="translate(0 0)">
        <g id="Group_58360" data-name="Group 58360" transform="translate(0 1.474)">
          <path id="Path_45628" data-name="Path 45628" d="M212.473,114.2h3.562l5.619,63.405h-3.562a3.311,3.311,0,0,1-3.224-2.978l-5.1-57.479A2.677,2.677,0,0,1,212.473,114.2Z" transform="translate(-209.758 -114.2)" fill="#407bff"/>
          <path id="Path_45629" data-name="Path 45629" d="M259.751,177.605H220.97a3.709,3.709,0,0,1-3.623-3.316l-4.974-56.773a2.993,2.993,0,0,1,3.04-3.316h38.78a3.709,3.709,0,0,1,3.623,3.316l4.974,56.742A3,3,0,0,1,259.751,177.605Z" transform="translate(-211.562 -114.2)" fill="#407bff"/>
          <path id="Path_45630" data-name="Path 45630" d="M259.751,177.605H220.97a3.709,3.709,0,0,1-3.623-3.316l-4.974-56.773a2.993,2.993,0,0,1,3.04-3.316h38.78a3.709,3.709,0,0,1,3.623,3.316l4.974,56.742A3,3,0,0,1,259.751,177.605Z" transform="translate(-211.562 -114.2)" fill="#fff" opacity="0.5"/>
        </g>
        <g id="Group_58393" data-name="Group 58393" transform="translate(4.987 3.562)">
          <path id="Path_45631" data-name="Path 45631" d="M230.79,175.071H268.8L263.982,121H226Z" transform="translate(-226 -121)" opacity="0.2"/>
          <path id="Path_45632" data-name="Path 45632" d="M232.448,174.334h38.013L263.982,121H226Z" transform="translate(-226 -121)" fill="#407bff"/>
          <path id="Path_45633" data-name="Path 45633" d="M232.448,174.334h38.013L263.982,121H226Z" transform="translate(-226 -121)" fill="#fff" opacity="0.8"/>
          <g id="Group_58379" data-name="Group 58379" transform="translate(7.428 13.786)">
            <g id="Group_58369" data-name="Group 58369">
              <g id="Group_58361" data-name="Group 58361" transform="translate(3.93)">
                <path id="Path_45634" data-name="Path 45634" d="M287.281,166.883H263.515a.512.512,0,0,1-.522-.491h0a.443.443,0,0,1,.461-.491h23.765a.512.512,0,0,1,.522.491h0A.443.443,0,0,1,287.281,166.883Z" transform="translate(-262.99 -165.9)" fill="#263238"/>
              </g>
              <g id="Group_58362" data-name="Group 58362" transform="translate(0 2.794)">
                <path id="Path_45635" data-name="Path 45635" d="M277.674,175.983H250.715a.512.512,0,0,1-.522-.491h0a.443.443,0,0,1,.461-.491h26.959a.512.512,0,0,1,.522.491h0A.443.443,0,0,1,277.674,175.983Z" transform="translate(-250.19 -175)" fill="#263238"/>
              </g>
              <g id="Group_58363" data-name="Group 58363" transform="translate(0.215 5.588)">
                <path id="Path_45636" data-name="Path 45636" d="M279.387,185.083H251.415a.512.512,0,0,1-.522-.491h0a.443.443,0,0,1,.461-.491h27.972a.512.512,0,0,1,.522.491h0A.443.443,0,0,1,279.387,185.083Z" transform="translate(-250.89 -184.1)" fill="#263238"/>
              </g>
              <g id="Group_58364" data-name="Group 58364" transform="translate(0.491 8.382)">
                <path id="Path_45637" data-name="Path 45637" d="M276.818,194.183h-24.5a.512.512,0,0,1-.522-.491h0a.443.443,0,0,1,.461-.491h24.472a.512.512,0,0,1,.522.491h0A.421.421,0,0,1,276.818,194.183Z" transform="translate(-251.79 -193.2)" fill="#263238"/>
              </g>
              <g id="Group_58365" data-name="Group 58365" transform="translate(4.913 11.177)">
                <path id="Path_45638" data-name="Path 45638" d="M290.481,203.283H266.715a.512.512,0,0,1-.522-.491h0a.443.443,0,0,1,.461-.491h23.735a.512.512,0,0,1,.522.491h0A.407.407,0,0,1,290.481,203.283Z" transform="translate(-266.19 -202.3)" fill="#263238"/>
              </g>
              <g id="Group_58366" data-name="Group 58366" transform="translate(0.983 13.971)">
                <path id="Path_45639" data-name="Path 45639" d="M280.629,212.383H253.915a.512.512,0,0,1-.522-.491h0a.443.443,0,0,1,.461-.491h26.713a.512.512,0,0,1,.522.491h0A.46.46,0,0,1,280.629,212.383Z" transform="translate(-253.39 -211.4)" fill="#263238"/>
              </g>
              <g id="Group_58367" data-name="Group 58367" transform="translate(1.197 16.765)">
                <path id="Path_45640" data-name="Path 45640" d="M282.587,221.483H254.615a.512.512,0,0,1-.522-.491h0a.443.443,0,0,1,.461-.491h27.972a.512.512,0,0,1,.522.491h0A.46.46,0,0,1,282.587,221.483Z" transform="translate(-254.09 -220.5)" fill="#263238"/>
              </g>
              <g id="Group_58368" data-name="Group 58368" transform="translate(1.474 19.559)">
                <path id="Path_45641" data-name="Path 45641" d="M281.492,230.582H255.515a.512.512,0,0,1-.522-.491h0a.443.443,0,0,1,.461-.491H281.4a.512.512,0,0,1,.522.491h0A.421.421,0,0,1,281.492,230.582Z" transform="translate(-254.99 -229.6)" fill="#263238"/>
              </g>
            </g>
            <g id="Group_58378" data-name="Group 58378" opacity="0.3">
              <g id="Group_58370" data-name="Group 58370" transform="translate(3.93)">
                <path id="Path_45642" data-name="Path 45642" d="M287.281,166.883H263.515a.512.512,0,0,1-.522-.491h0a.443.443,0,0,1,.461-.491h23.765a.512.512,0,0,1,.522.491h0A.443.443,0,0,1,287.281,166.883Z" transform="translate(-262.99 -165.9)" fill="#fff"/>
              </g>
              <g id="Group_58371" data-name="Group 58371" transform="translate(0 2.794)">
                <path id="Path_45643" data-name="Path 45643" d="M277.674,175.983H250.715a.512.512,0,0,1-.522-.491h0a.443.443,0,0,1,.461-.491h26.959a.512.512,0,0,1,.522.491h0A.443.443,0,0,1,277.674,175.983Z" transform="translate(-250.19 -175)" fill="#fff"/>
              </g>
              <g id="Group_58372" data-name="Group 58372" transform="translate(0.215 5.588)">
                <path id="Path_45644" data-name="Path 45644" d="M279.387,185.083H251.415a.512.512,0,0,1-.522-.491h0a.443.443,0,0,1,.461-.491h27.972a.512.512,0,0,1,.522.491h0A.443.443,0,0,1,279.387,185.083Z" transform="translate(-250.89 -184.1)" fill="#fff"/>
              </g>
              <g id="Group_58373" data-name="Group 58373" transform="translate(0.491 8.382)">
                <path id="Path_45645" data-name="Path 45645" d="M276.818,194.183h-24.5a.512.512,0,0,1-.522-.491h0a.443.443,0,0,1,.461-.491h24.472a.512.512,0,0,1,.522.491h0A.421.421,0,0,1,276.818,194.183Z" transform="translate(-251.79 -193.2)" fill="#fff"/>
              </g>
              <g id="Group_58374" data-name="Group 58374" transform="translate(4.913 11.177)">
                <path id="Path_45646" data-name="Path 45646" d="M290.481,203.283H266.715a.512.512,0,0,1-.522-.491h0a.443.443,0,0,1,.461-.491h23.735a.512.512,0,0,1,.522.491h0A.407.407,0,0,1,290.481,203.283Z" transform="translate(-266.19 -202.3)" fill="#fff"/>
              </g>
              <g id="Group_58375" data-name="Group 58375" transform="translate(0.983 13.971)">
                <path id="Path_45647" data-name="Path 45647" d="M280.629,212.383H253.915a.512.512,0,0,1-.522-.491h0a.443.443,0,0,1,.461-.491h26.713a.512.512,0,0,1,.522.491h0A.46.46,0,0,1,280.629,212.383Z" transform="translate(-253.39 -211.4)" fill="#fff"/>
              </g>
              <g id="Group_58376" data-name="Group 58376" transform="translate(1.197 16.765)">
                <path id="Path_45648" data-name="Path 45648" d="M282.587,221.483H254.615a.512.512,0,0,1-.522-.491h0a.443.443,0,0,1,.461-.491h27.972a.512.512,0,0,1,.522.491h0A.46.46,0,0,1,282.587,221.483Z" transform="translate(-254.09 -220.5)" fill="#fff"/>
              </g>
              <g id="Group_58377" data-name="Group 58377" transform="translate(1.474 19.559)">
                <path id="Path_45649" data-name="Path 45649" d="M281.492,230.582H255.515a.512.512,0,0,1-.522-.491h0a.443.443,0,0,1,.461-.491H281.4a.512.512,0,0,1,.522.491h0A.421.421,0,0,1,281.492,230.582Z" transform="translate(-254.99 -229.6)" fill="#fff"/>
              </g>
            </g>
          </g>
          <g id="Group_58382" data-name="Group 58382" transform="translate(13.602 6.233)">
            <g id="Group_58380" data-name="Group 58380">
              <path id="Path_45650" data-name="Path 45650" d="M270.3,141.5h.737l.215,2.549h1.566l.061.583h-2.3Z" transform="translate(-270.3 -141.439)" fill="#263238"/>
              <path id="Path_45651" data-name="Path 45651" d="M279.665,144.34a2.068,2.068,0,0,1-.675-.583,1.607,1.607,0,0,1-.307-.829,1.491,1.491,0,0,1,.154-.829,1.439,1.439,0,0,1,.553-.583,1.628,1.628,0,0,1,.86-.215,1.739,1.739,0,0,1,.89.215,2.068,2.068,0,0,1,.676.583,1.607,1.607,0,0,1,.307.829,1.491,1.491,0,0,1-.153.829,1.44,1.44,0,0,1-.553.583,1.557,1.557,0,0,1-.86.215A1.817,1.817,0,0,1,279.665,144.34Zm1.351-.522a.717.717,0,0,0,.307-.368,1.435,1.435,0,0,0,.092-.522,1.07,1.07,0,0,0-.184-.522,1.059,1.059,0,0,0-.368-.368,1.009,1.009,0,0,0-.522-.123.9.9,0,0,0-.491.123.717.717,0,0,0-.307.368,1.435,1.435,0,0,0-.092.522,1.071,1.071,0,0,0,.184.522.933.933,0,0,0,.4.368,1.009,1.009,0,0,0,.522.123A1.138,1.138,0,0,0,281.016,143.818Z" transform="translate(-276.103 -141.3)" fill="#263238"/>
              <path id="Path_45652" data-name="Path 45652" d="M293.126,143.956h-1.474l-.215.676H290.7l1.136-3.132h.706l1.689,3.132h-.768Zm-.276-.553-.614-1.2-.4,1.2Z" transform="translate(-284.436 -141.439)" fill="#263238"/>
              <path id="Path_45653" data-name="Path 45653" d="M305.355,141.5l.276,3.132h-.583l-1.719-1.9.153,1.9h-.706L302.5,141.5h.614l1.719,1.9-.154-1.9Z" transform="translate(-292.613 -141.439)" fill="#263238"/>
            </g>
            <g id="Group_58381" data-name="Group 58381" opacity="0.3">
              <path id="Path_45654" data-name="Path 45654" d="M270.3,141.5h.737l.215,2.549h1.566l.061.583h-2.3Z" transform="translate(-270.3 -141.439)" fill="#fff"/>
              <path id="Path_45655" data-name="Path 45655" d="M279.665,144.34a2.068,2.068,0,0,1-.675-.583,1.607,1.607,0,0,1-.307-.829,1.491,1.491,0,0,1,.154-.829,1.439,1.439,0,0,1,.553-.583,1.628,1.628,0,0,1,.86-.215,1.739,1.739,0,0,1,.89.215,2.068,2.068,0,0,1,.676.583,1.607,1.607,0,0,1,.307.829,1.491,1.491,0,0,1-.153.829,1.44,1.44,0,0,1-.553.583,1.557,1.557,0,0,1-.86.215A1.817,1.817,0,0,1,279.665,144.34Zm1.351-.522a.717.717,0,0,0,.307-.368,1.435,1.435,0,0,0,.092-.522,1.07,1.07,0,0,0-.184-.522,1.059,1.059,0,0,0-.368-.368,1.009,1.009,0,0,0-.522-.123.9.9,0,0,0-.491.123.717.717,0,0,0-.307.368,1.435,1.435,0,0,0-.092.522,1.071,1.071,0,0,0,.184.522.933.933,0,0,0,.4.368,1.009,1.009,0,0,0,.522.123A1.138,1.138,0,0,0,281.016,143.818Z" transform="translate(-276.103 -141.3)" fill="#fff"/>
              <path id="Path_45656" data-name="Path 45656" d="M293.126,143.956h-1.474l-.215.676H290.7l1.136-3.132h.706l1.689,3.132h-.768Zm-.276-.553-.614-1.2-.4,1.2Z" transform="translate(-284.436 -141.439)" fill="#fff"/>
              <path id="Path_45657" data-name="Path 45657" d="M305.355,141.5l.276,3.132h-.583l-1.719-1.9.153,1.9h-.706L302.5,141.5h.614l1.719,1.9-.154-1.9Z" transform="translate(-292.613 -141.439)" fill="#fff"/>
            </g>
          </g>
          <g id="Group_58389" data-name="Group 58389" transform="translate(27.776 43.019)">
            <g id="Group_58385" data-name="Group 58385">
              <g id="Group_58383" data-name="Group 58383" transform="translate(0.101 5.464)">
                <path id="Path_45658" data-name="Path 45658" d="M325.667,279.883h-8.352a.512.512,0,0,1-.522-.491h0a.443.443,0,0,1,.461-.491h8.352a.512.512,0,0,1,.522.491h0A.443.443,0,0,1,325.667,279.883Z" transform="translate(-316.79 -278.9)" fill="#263238"/>
              </g>
              <g id="Group_58384" data-name="Group 58384">
                <path id="Path_45659" data-name="Path 45659" d="M316.5,265.863h0a.194.194,0,0,1,.031-.276c.583-.43,1.228-.952,1.842-1.443a5.224,5.224,0,0,1,1.412-2.7c.491-.43.829-.368,1.044-.246a.547.547,0,0,1,.276.368c.092.614-1.136,1.781-2.364,2.794a1.243,1.243,0,0,0,.031.491.388.388,0,0,0,.307.215,1.818,1.818,0,0,0,1.412-.645c.4-.4.8-.8,1.566-.43.675.338.675.645.645.952v.092h0s.092.092.614.154a1.929,1.929,0,0,0,1.965-1.044.166.166,0,0,1,.246-.061h0a.187.187,0,0,1,.092.276,2.366,2.366,0,0,1-2.334,1.228c-.522-.061-.768-.154-.891-.307a.536.536,0,0,1-.092-.4c.031-.154.031-.276-.4-.491-.461-.246-.706-.031-1.136.369a2.021,2.021,0,0,1-1.689.768.763.763,0,0,1-.676-.491.9.9,0,0,1-.061-.276c-.645.522-1.228.983-1.566,1.228C316.688,265.955,316.565,265.955,316.5,265.863Zm4.053-4.36a.935.935,0,0,0-.491.246,4.878,4.878,0,0,0-1.167,1.934c1.044-.921,1.842-1.75,1.812-2.088,0-.031,0-.031-.031-.031C320.618,261.5,320.587,261.5,320.556,261.5Z" transform="translate(-316.461 -261.105)" fill="#263238"/>
              </g>
            </g>
            <g id="Group_58388" data-name="Group 58388" opacity="0.3">
              <g id="Group_58386" data-name="Group 58386" transform="translate(0.101 5.464)">
                <path id="Path_45660" data-name="Path 45660" d="M325.667,279.883h-8.352a.512.512,0,0,1-.522-.491h0a.443.443,0,0,1,.461-.491h8.352a.512.512,0,0,1,.522.491h0A.443.443,0,0,1,325.667,279.883Z" transform="translate(-316.79 -278.9)" fill="#fff"/>
              </g>
              <g id="Group_58387" data-name="Group 58387">
                <path id="Path_45661" data-name="Path 45661" d="M316.5,265.863h0a.194.194,0,0,1,.031-.276c.583-.43,1.228-.952,1.842-1.443a5.224,5.224,0,0,1,1.412-2.7c.491-.43.829-.368,1.044-.246a.547.547,0,0,1,.276.368c.092.614-1.136,1.781-2.364,2.794a1.243,1.243,0,0,0,.031.491.388.388,0,0,0,.307.215,1.818,1.818,0,0,0,1.412-.645c.4-.4.8-.8,1.566-.43.675.338.675.645.645.952v.092h0s.092.092.614.154a1.929,1.929,0,0,0,1.965-1.044.166.166,0,0,1,.246-.061h0a.187.187,0,0,1,.092.276,2.366,2.366,0,0,1-2.334,1.228c-.522-.061-.768-.154-.891-.307a.536.536,0,0,1-.092-.4c.031-.154.031-.276-.4-.491-.461-.246-.706-.031-1.136.369a2.021,2.021,0,0,1-1.689.768.763.763,0,0,1-.676-.491.9.9,0,0,1-.061-.276c-.645.522-1.228.983-1.566,1.228C316.688,265.955,316.565,265.955,316.5,265.863Zm4.053-4.36a.935.935,0,0,0-.491.246,4.878,4.878,0,0,0-1.167,1.934c1.044-.921,1.842-1.75,1.812-2.088,0-.031,0-.031-.031-.031C320.618,261.5,320.587,261.5,320.556,261.5Z" transform="translate(-316.461 -261.105)" fill="#fff"/>
              </g>
            </g>
          </g>
          <g id="Group_58392" data-name="Group 58392" transform="translate(24.834 39.228)">
            <g id="Group_58390" data-name="Group 58390">
              <path id="Path_45662" data-name="Path 45662" d="M309.188,254.328a2.321,2.321,0,0,1-2.211-1.842l-.061-.4a1.836,1.836,0,0,1,1.627-2.241L318.8,248.77a2.036,2.036,0,0,1,1.535.461,2.15,2.15,0,0,1,.86,1.382l.061.4a1.968,1.968,0,0,1-.307,1.5,1.715,1.715,0,0,1-1.32.737l-10.255,1.075Zm9.856-5.189h-.184L308.6,250.213a1.6,1.6,0,0,0-1.075.614,1.562,1.562,0,0,0-.246,1.228l.061.4a1.886,1.886,0,0,0,1.965,1.5l10.255-1.075a1.6,1.6,0,0,0,1.075-.614,1.563,1.563,0,0,0,.246-1.228l-.061-.4a1.859,1.859,0,0,0-.706-1.136A1.69,1.69,0,0,0,319.044,249.139Z" transform="translate(-306.879 -248.757)" fill="#407bff"/>
            </g>
            <g id="Group_58391" data-name="Group 58391" transform="translate(1.265 1.475)">
              <path id="Path_45663" data-name="Path 45663" d="M312.075,258.375l-.768.092-.092.4L311,258.9l.368-1.566.215-.031.952,1.412-.215.031Zm-.123-.154-.461-.706-.184.768Z" transform="translate(-311 -256.152)" fill="#407bff"/>
              <path id="Path_45664" data-name="Path 45664" d="M316.744,256.834a.611.611,0,0,1,.246.368.443.443,0,0,1-.092.4.8.8,0,0,1-.43.184l-.368.031.092.461-.215.031-.276-1.474.583-.061A.738.738,0,0,1,316.744,256.834Zm-.031.645a.239.239,0,0,0,.061-.246.421.421,0,0,0-.154-.246.5.5,0,0,0-.307-.061l-.368.031.123.676.368-.031A.39.39,0,0,0,316.713,257.479Z" transform="translate(-314.257 -255.778)" fill="#407bff"/>
              <path id="Path_45665" data-name="Path 45665" d="M321.644,256.334a.611.611,0,0,1,.246.368.443.443,0,0,1-.092.4.8.8,0,0,1-.43.184l-.368.031.092.461-.215.031-.276-1.474.583-.061A.738.738,0,0,1,321.644,256.334Zm-.031.645a.239.239,0,0,0,.061-.246.421.421,0,0,0-.154-.246.5.5,0,0,0-.307-.061l-.368.031.123.676.368-.031A.389.389,0,0,0,321.613,256.979Z" transform="translate(-317.652 -255.432)" fill="#407bff"/>
              <path id="Path_45666" data-name="Path 45666" d="M326.759,257.117l-.4-.43h-.092l-.368.031.092.461-.215.031-.276-1.474.583-.061a.578.578,0,0,1,.461.092.611.611,0,0,1,.246.368.5.5,0,0,1-.031.307.484.484,0,0,1-.215.215l.43.461Zm-.246-.706a.239.239,0,0,0,.061-.246.422.422,0,0,0-.153-.246.505.505,0,0,0-.307-.061l-.368.031.123.675.368-.031A.457.457,0,0,0,326.513,256.411Z" transform="translate(-321.048 -255.017)" fill="#407bff"/>
              <path id="Path_45667" data-name="Path 45667" d="M330.876,256.547a.871.871,0,0,1-.338-.246,1.037,1.037,0,0,1-.184-.368.584.584,0,0,1,.031-.4.7.7,0,0,1,.215-.307.788.788,0,0,1,.368-.154.706.706,0,0,1,.43.061.871.871,0,0,1,.338.246,1.039,1.039,0,0,1,.184.368.584.584,0,0,1-.031.4.7.7,0,0,1-.215.307.787.787,0,0,1-.368.154A2.074,2.074,0,0,1,330.876,256.547Zm.676-.246a.551.551,0,0,0,.154-.215.947.947,0,0,0,.031-.307.76.76,0,0,0-.123-.276.478.478,0,0,0-.246-.184.505.505,0,0,0-.307-.031.583.583,0,0,0-.276.092.355.355,0,0,0-.154.215.946.946,0,0,0-.031.307.761.761,0,0,0,.123.276.478.478,0,0,0,.246.184.505.505,0,0,0,.307.031A.5.5,0,0,0,331.552,256.3Z" transform="translate(-324.398 -254.6)" fill="#407bff"/>
              <path id="Path_45668" data-name="Path 45668" d="M336.7,254.4l-.368,1.535-.215.031-.921-1.412.215-.031.768,1.167.307-1.259Z" transform="translate(-327.769 -254.142)" fill="#407bff"/>
              <path id="Path_45669" data-name="Path 45669" d="M342.02,255.29l.031.184-1.075.123-.276-1.474,1.044-.123.031.184-.829.092.092.461.737-.092.031.184-.737.092.092.491Z" transform="translate(-331.581 -253.865)" fill="#407bff"/>
              <path id="Path_45670" data-name="Path 45670" d="M345.3,253.634l.614-.061a.675.675,0,0,1,.43.061.871.871,0,0,1,.338.246.837.837,0,0,1,.184.368.584.584,0,0,1-.031.4.49.49,0,0,1-.215.276.871.871,0,0,1-.4.123l-.614.061Zm.86,1.228a.9.9,0,0,0,.307-.092.626.626,0,0,0,.184-.215.946.946,0,0,0,.031-.307.578.578,0,0,0-.123-.276.739.739,0,0,0-.246-.184.61.61,0,0,0-.338-.031l-.4.031.215,1.105Z" transform="translate(-334.768 -253.561)" fill="#407bff"/>
            </g>
          </g>
        </g>
        <g id="Group_58395" data-name="Group 58395" transform="translate(14.984)">
          <path id="Path_45671" data-name="Path 45671" d="M260.2,109.4h2.978l.491,5.435h-2.978a1.973,1.973,0,0,1-1.965-1.812l-.154-1.781A1.6,1.6,0,0,1,260.2,109.4Z" transform="translate(-258.556 -109.4)" fill="#263238"/>
          <path id="Path_45672" data-name="Path 45672" d="M274.554,114.9H262.518a2.257,2.257,0,0,1-2.211-2.027l-.123-1.351a1.824,1.824,0,0,1,1.842-2.027h12.036a2.257,2.257,0,0,1,2.211,2.027l.123,1.351A1.807,1.807,0,0,1,274.554,114.9Z" transform="translate(-259.68 -109.469)" fill="#263238"/>
          <path id="Path_45673" data-name="Path 45673" d="M274.554,114.9H262.518a2.257,2.257,0,0,1-2.211-2.027l-.123-1.351a1.824,1.824,0,0,1,1.842-2.027h12.036a2.257,2.257,0,0,1,2.211,2.027l.123,1.351A1.807,1.807,0,0,1,274.554,114.9Z" transform="translate(-259.68 -109.469)" fill="#fff" opacity="0.5"/>
          <g id="Group_58394" data-name="Group 58394" transform="translate(2.559 2.763)">
            <path id="Path_45674" data-name="Path 45674" d="M304.268,118.922a.461.461,0,0,1-.491.522.6.6,0,0,1-.583-.522.461.461,0,0,1,.491-.522A.572.572,0,0,1,304.268,118.922Z" transform="translate(-292.045 -118.4)" fill="#263238"/>
            <path id="Path_45675" data-name="Path 45675" d="M267.968,118.922a.461.461,0,0,1-.491.522.6.6,0,0,1-.583-.522.461.461,0,0,1,.491-.522A.572.572,0,0,1,267.968,118.922Z" transform="translate(-266.89 -118.4)" fill="#263238"/>
          </g>
        </g>
      </g>
    </g>
  </g>
</svg>
