<svg id="Component_37_3" data-name="Component 37 – 3" xmlns="http://www.w3.org/2000/svg" width="70" height="70" viewBox="0 0 70 70">
  <g id="Group_38530" data-name="Group 38530" transform="translate(868 5318)">
    <g id="Group_38523" data-name="Group 38523" transform="translate(225 -18)" opacity="0.8">
      <g id="icn_add" transform="translate(-1093 -5296)">
        <path id="Path_20" data-name="Path 20" d="M30,0A30,30,0,1,1,0,30,30,30,0,0,1,30,0Z" fill="#fff" opacity="0.32"/>
      </g>
      <path id="Path_20-2" data-name="Path 20" d="M25,0A25,25,0,1,1,0,25,25,25,0,0,1,25,0Z" transform="translate(-1088 -5291)" fill="#fff"/>
    </g>
    <g id="Group_38524" data-name="Group 38524" transform="translate(-1049 -5787.883)">
      <text id="Lockdown" transform="translate(211 516)" fill="#0f0f2f" font-size="8" font-family="TitilliumWeb-SemiBold, Titillium Web" font-weight="600" letter-spacing="0.02em"><tspan x="-17" y="0">Lockdown</tspan></text>
      <g id="noun_Locked_Wallet_756479" data-name="noun_Locked Wallet_756479" transform="translate(194.611 480.895)">
        <g id="Group_37387" data-name="Group 37387" transform="translate(7.389 6.988)">
          <g id="Group_37386" data-name="Group 37386" transform="translate(5.58 10.154)">
            <g id="Group_37385" data-name="Group 37385">
              <g id="Group_37384" data-name="Group 37384">
                <rect id="Rectangle_3439" data-name="Rectangle 3439" width="3.682" height="3.111" transform="translate(0 2.401)" fill="none" stroke="#5252ed" stroke-linecap="round" stroke-linejoin="round" stroke-width="1"/>
                <path id="Path_12956" data-name="Path 12956" d="M35.4,55.8V54.695A1.292,1.292,0,0,1,36.694,53.4h0a1.292,1.292,0,0,1,1.293,1.293V55.8" transform="translate(-34.853 -53.402)" fill="none" stroke="#5252ed" stroke-linecap="round" stroke-linejoin="round" stroke-width="1"/>
              </g>
            </g>
          </g>
          <path id="Path_12957" data-name="Path 12957" d="M25.242,9.4,9.361,9.4a.548.548,0,1,1,0-1.1l13.808,0a.656.656,0,1,0,0-1.313H8.92A1.533,1.533,0,0,0,7.389,8.519V22.33a.792.792,0,0,0,.792.792H9.864a5.772,5.772,0,0,0,9.756,0h5.621a.792.792,0,0,0,.792-.792V10.193A.792.792,0,0,0,25.242,9.4Zm-10.5,15.313a4.69,4.69,0,0,1-4.685-4.684,4.753,4.753,0,0,1,.036-.583,4.685,4.685,0,1,1,4.649,5.267Zm10.08-9.962h-4.29a1.468,1.468,0,0,1,0-2.937h4.29Zm-4.774-1.468a.629.629,0,1,0,.629-.629A.629.629,0,0,0,20.048,13.284Z" transform="translate(-7.389 -6.988)" fill="#5252ed"/>
        </g>
      </g>
    </g>
  </g>
  <g id="Group_38529" data-name="Group 38529" transform="translate(952 5257)">
    <g id="Group_38522" data-name="Group 38522" transform="translate(141 43)" opacity="0.8">
      <g id="icn_add-2" data-name="icn_add" transform="translate(-1093 -5296)">
        <path id="Path_20-3" data-name="Path 20" d="M30,0A30,30,0,1,1,0,30,30,30,0,0,1,30,0Z" fill="#fff" opacity="0.32"/>
      </g>
      <path id="Path_20-4" data-name="Path 20" d="M25,0A25,25,0,1,1,0,25,25,25,0,0,1,25,0Z" transform="translate(-1088 -5291)" fill="#fff"/>
    </g>
    <g id="Group_38525" data-name="Group 38525" transform="translate(-1133 -5726.464)">
      <text id="KoloSave" transform="translate(211 516)" fill="#0f0f2f" font-size="8" font-family="TitilliumWeb-SemiBold, Titillium Web" font-weight="600" letter-spacing="0.02em"><tspan x="-16" y="0">KoloSave</tspan></text>
      <g id="Component_21_9" data-name="Component 21 – 9" transform="translate(203 487.464)">
        <path id="Path_12959" data-name="Path 12959" d="M15.971,6.345a3.766,3.766,0,1,0-7.432,0c-2.17.292-4.415.922-4.415,2.274V18.659c0,2.44,7.3,2.511,8.132,2.511s8.132-.071,8.132-2.511V8.618C20.386,7.266,18.141,6.637,15.971,6.345Zm-1.32-.579a2.383,2.383,0,0,1-.181.907c-.018.045-.043.085-.064.128a2.511,2.511,0,0,1-.136.25c-.027.042-.056.081-.085.121a2.365,2.365,0,0,1-.19.231c-.026.028-.051.057-.079.083a2.4,2.4,0,0,1-.7.47c-.032.014-.066.025-.1.038a2.416,2.416,0,0,1-.314.1c-.04.01-.079.019-.118.027s-.111.01-.165.016V7.6a1.149,1.149,0,0,0,1.067-1.108c0-.54-.288-.87-1-1.122-.509-.192-.72-.318-.72-.516,0-.168.126-.336.516-.336a1.972,1.972,0,0,1,.864.2l.174-.678a2.171,2.171,0,0,0-.869-.2V3.4A2.392,2.392,0,0,1,14.651,5.766ZM11.967,3.4v.49a1.108,1.108,0,0,0-1.013,1.067c0,.582.438.882,1.08,1.1.444.151.635.294.635.522s-.233.372-.575.372a2.122,2.122,0,0,1-1-.264l-.18.7a2.406,2.406,0,0,0,1.019.258V8.13c-.038-.006-.079,0-.117-.012s-.079-.017-.118-.027a2.416,2.416,0,0,1-.314-.1c-.033-.013-.066-.024-.1-.038a2.4,2.4,0,0,1-.7-.47c-.027-.027-.053-.055-.079-.083a2.365,2.365,0,0,1-.19-.231c-.029-.04-.058-.079-.085-.121A2.511,2.511,0,0,1,10.1,6.8c-.021-.043-.045-.084-.064-.128a2.364,2.364,0,0,1-.181-.906A2.392,2.392,0,0,1,11.967,3.4ZM9.005,7.665c.01.018.024.034.035.052.06.1.123.192.192.285.029.038.056.077.086.114.012.015.023.031.035.046H9.174a.685.685,0,0,0,0,1.369h6.162a.685.685,0,1,0,0-1.369h-.179c.012-.014.023-.031.035-.046.029-.037.057-.076.086-.114.068-.092.131-.186.192-.285.011-.018.025-.034.035-.052a7.943,7.943,0,0,1,3.453.954l-.014.014c-.016.013-.036.027-.055.04s-.045.032-.073.049-.049.028-.075.042-.063.034-.1.051-.062.029-.1.043l-.125.053-.114.044-.149.054-.135.045-.172.053-.153.044-.2.053-.169.042-.223.051-.189.04-.245.049-.2.038-.269.045-.223.035c-.1.014-.194.027-.294.04l-.233.03c-.1.013-.214.025-.323.036l-.245.026c-.113.011-.231.02-.348.029l-.256.021c-.126.009-.257.016-.386.023-.085,0-.167.011-.254.014-.149.007-.3.012-.457.016l-.218.008q-.346.008-.71.008c-.242,0-.479,0-.71-.008l-.218-.008c-.154,0-.308-.01-.457-.016l-.254-.014c-.129-.008-.26-.014-.386-.023l-.256-.021-.348-.029L9.38,9.613c-.109-.012-.218-.023-.323-.036l-.233-.03-.294-.04-.223-.035-.269-.045-.2-.038L7.589,9.34,7.4,9.3c-.076-.017-.151-.034-.223-.051l-.169-.042q-.1-.026-.2-.053l-.153-.044-.172-.053L6.349,9.01c-.052-.018-.1-.036-.149-.054s-.078-.028-.114-.043S6,8.877,5.962,8.859l-.1-.043c-.036-.017-.067-.034-.1-.051l-.075-.042c-.027-.016-.05-.033-.073-.049s-.039-.027-.055-.04l-.014-.014A7.947,7.947,0,0,1,9.005,7.665ZM19.017,18.6c-.342.444-2.813,1.2-6.762,1.2s-6.42-.756-6.762-1.2V17.443c2.155.951,6.158.989,6.762.989a.685.685,0,1,0,0-1.369c-3.951,0-6.423-.756-6.762-1.2v-.7c2.155.952,6.158.989,6.762.989a.685.685,0,1,0,0-1.369c-3.951,0-6.423-.756-6.762-1.2v-.93c2.155.951,6.158.989,6.762.989a.685.685,0,1,0,0-1.369c-3.951,0-6.423-.757-6.762-1.2v-.928l.024.01c.119.052.244.1.374.148l.09.031c.11.038.221.073.336.107l.1.029c.14.04.284.078.43.114l.08.018q.189.044.382.084l.12.025c.153.029.305.058.46.084l.032,0c.147.025.294.047.442.067l.12.016c.147.02.294.039.44.055l.025,0c.156.018.309.034.461.049l.113.01q.194.018.381.033l.064,0,.415.029.1.006.316.018.079,0,.346.015.076,0,.245.008.076,0,.252.005H11.9l.188,0h.34l.188,0h.023l.252-.005.076,0,.245-.008.076,0,.346-.015.079,0,.316-.018.1-.006.415-.029.064,0L14.986,11l.113-.01c.152-.014.305-.031.461-.049l.025,0c.146-.016.292-.036.44-.055l.12-.016c.147-.021.3-.043.442-.067l.032,0q.232-.039.46-.084l.12-.025c.129-.026.257-.054.382-.084l.08-.018q.22-.053.43-.114l.1-.029c.115-.034.227-.071.336-.107l.09-.031c.129-.047.255-.1.375-.148l.024-.01V18.6Z" transform="translate(-4.123 -2)" fill="#5252ed"/>
      </g>
    </g>
  </g>
  <g id="Group_38531" data-name="Group 38531" transform="translate(792 5257)">
    <g id="Group_38527" data-name="Group 38527" transform="translate(301 43)" opacity="0.8">
      <g id="icn_add-3" data-name="icn_add" transform="translate(-1093 -5296)">
        <path id="Path_20-5" data-name="Path 20" d="M30,0A30,30,0,1,1,0,30,30,30,0,0,1,30,0Z" fill="#fff" opacity="0.32"/>
      </g>
      <path id="Path_20-6" data-name="Path 20" d="M25,0A25,25,0,1,1,0,25,25,25,0,0,1,25,0Z" transform="translate(-1088 -5291)" fill="#fff"/>
    </g>
    <g id="Group_38528" data-name="Group 38528" transform="translate(-971 -5727.884)">
      <text id="Isusu" transform="translate(209 516)" fill="#0f0f2f" font-size="8" font-family="TitilliumWeb-SemiBold, Titillium Web" font-weight="600" letter-spacing="0.02em"><tspan x="-9" y="0">Isusu</tspan></text>
      <path id="networks" d="M3.429,3.429A2.429,2.429,0,1,1,7.34,5.352l-.052.039a2.429,2.429,0,0,1-3.86-1.962ZM11.66,5.352l.052.039a2.433,2.433,0,1,0-.052-.039ZM7.4,7.071a2.429,2.429,0,1,1-.325,1.214A2.428,2.428,0,0,1,7.4,7.071Zm-4.575,0H6.064a3.648,3.648,0,0,0,.72,3.643h-.32a3.037,3.037,0,0,0-2.859,2.013,4.533,4.533,0,0,1-1.133-.659A3.942,3.942,0,0,1,1,8.893,1.821,1.821,0,0,1,2.821,7.071Zm9.714,3.643a3.037,3.037,0,0,1,2.859,2.013,4.534,4.534,0,0,0,1.133-.659A3.942,3.942,0,0,0,18,8.893a1.821,1.821,0,0,0-1.821-1.821H12.936a3.648,3.648,0,0,1-.72,3.643Zm1.684,2.341a1.818,1.818,0,0,1,.137.695,3.942,3.942,0,0,1-1.472,3.175A5.382,5.382,0,0,1,9.5,18a5.382,5.382,0,0,1-3.385-1.075A3.942,3.942,0,0,1,4.643,13.75a1.82,1.82,0,0,1,1.821-1.821h6.071A1.822,1.822,0,0,1,14.22,13.055Z" transform="translate(200 488.884)" fill="#5252ed"/>
    </g>
  </g>
  <g id="Group_38521" data-name="Group 38521" transform="translate(-158 -598)">
    <g id="icn_add-4" data-name="icn_add" transform="translate(12.948 18.948)">
      <g id="Group_66" data-name="Group 66" transform="translate(145.052 579.052)">
        <circle id="Ellipse_10" data-name="Ellipse 10" cx="35" cy="35" r="35" transform="translate(0 0)" fill="#fff"/>
      </g>
    </g>
    <g id="Group_3" data-name="Group 3" transform="translate(69 27)">
      <g id="icn_add-5" data-name="icn_add" transform="translate(94 576)" opacity="0.302">
        <path id="Path_20-7" data-name="Path 20" d="M30,0A30,30,0,1,1,0,30,30,30,0,0,1,30,0Z" fill="#077dbb" opacity="0.32"/>
      </g>
      <g id="icn_add-6" data-name="icn_add" transform="translate(99 581)">
        <path id="Path_20-8" data-name="Path 20" d="M25,0A25,25,0,1,1,0,25,25,25,0,0,1,25,0Z" fill="#077dbb"/>
        <g id="Group_38433" data-name="Group 38433" transform="translate(15 15)">
          <rect id="Rectangle_3646" data-name="Rectangle 3646" width="4" height="20" transform="translate(8)" fill="#fff"/>
          <rect id="Rectangle_3647" data-name="Rectangle 3647" width="4" height="20" transform="translate(20 8) rotate(90)" fill="#fff"/>
        </g>
      </g>
    </g>
  </g>
</svg>
