<svg xmlns="http://www.w3.org/2000/svg" xmlns:xlink="http://www.w3.org/1999/xlink" width="122.066" height="100" viewBox="0 0 122.066 100">
  <defs>
    <linearGradient id="linear-gradient" x1="0.857" y1="1.018" x2="0.159" y2="0.131" gradientUnits="objectBoundingBox">
      <stop offset="0" stop-color="#53e5d6"/>
      <stop offset="0.869" stop-color="#40bad6"/>
    </linearGradient>
    <linearGradient id="linear-gradient-2" x1="-0.002" y1="-0.037" x2="0.83" y2="0.959" xlink:href="#linear-gradient"/>
  </defs>
  <g id="_2777139" data-name="2777139" transform="translate(-83.621 -112.115)">
    <g id="BACKGROUND" transform="translate(190.692 162.28)">
      <g id="Group_56262" data-name="Group 56262">
        <g id="Group_56261" data-name="Group 56261">
          <path id="Path_42425" data-name="Path 42425" d="M373.48,249.353a.927.927,0,0,0,0-1.853.927.927,0,0,0,0,1.853Z" transform="translate(-372.585 -247.5)" fill="#c0e4fa"/>
        </g>
      </g>
      <g id="Group_56264" data-name="Group 56264" transform="translate(0.806 0.834)">
        <g id="Group_56263" data-name="Group 56263">
          <path id="Path_42426" data-name="Path 42426" d="M374.849,249.935a.093.093,0,0,0,0-.185.093.093,0,0,0,0,.185Z" transform="translate(-374.76 -249.75)" fill="#282f39"/>
        </g>
      </g>
    </g>
    <g id="OBJECTS" transform="translate(83.621 112.115)">
      <g id="Group_56279" data-name="Group 56279">
        <g id="Group_56266" data-name="Group 56266" transform="translate(1.115 62.917)">
          <g id="Group_56265" data-name="Group 56265">
            <path id="Path_42427" data-name="Path 42427" d="M86.748,286.163a6.554,6.554,0,0,0,.2,3.264c1.145,3.524,5.48,5.951,8.734,7.225a6.869,6.869,0,0,0-2.008,3.794c-.5,4.013,3.939,4.88,7,4.1,4.48-1.149,7.859-4.732,12.287-6.021a2.523,2.523,0,0,1,1.712-.048,1.713,1.713,0,0,1,.908-1.171,25.313,25.313,0,0,1-3.172-6.218c-1.052-3.042-2.219-7.237-5.658-8.374-2.868-.949-5.8,1.908-5.38,4.806-1.734-2.045-3.657-4.061-6.147-5.054s-5.68-.7-7.4,1.367A5.247,5.247,0,0,0,86.748,286.163Z" transform="translate(-86.629 -281.914)" fill="#fff"/>
          </g>
          <path id="Path_42428" data-name="Path 42428" d="M95.232,297.019q2.84-.472,5.7-.8-3.918-1.956-7.655-4.28c-.248-.156.044-.508.289-.352q3.774,2.351,7.755,4.324-1.145-3.157-2.219-6.34c-.093-.278.337-.434.43-.156q1.145,3.407,2.375,6.781a92.405,92.405,0,0,0,10.06,4.187,36.019,36.019,0,0,0-2.379-8.426c-.115-.27.315-.426.43-.156a36.465,36.465,0,0,1,2.423,8.641.233.233,0,0,1-.007.1,92.272,92.272,0,0,0,12.991,3.42.23.23,0,0,1-.078.452,92.282,92.282,0,0,1-13.035-3.435,47.865,47.865,0,0,1-10.531,5.18.229.229,0,0,1-.156-.43,47.28,47.28,0,0,0,10.138-4.939,92.541,92.541,0,0,1-10.064-4.2q-3.224.356-6.425.889C94.98,297.523,94.943,297.067,95.232,297.019Z" transform="translate(-90.756 -286.542)" fill="#e1dff7"/>
        </g>
        <g id="Group_56268" data-name="Group 56268" transform="translate(0 28.345)">
          <g id="Group_56267" data-name="Group 56267">
            <path id="Path_42429" data-name="Path 42429" d="M109.213,219.34c-5.543.111-10.753.282-16.107-1.578a10.95,10.95,0,0,1-4.787-2.842,4.808,4.808,0,0,1-.934-5.213,5.805,5.805,0,0,1,3.605-2.557c-3.038-.767-5.08-3.631-6.273-6.529-1.671-4.061-1.882-9.274,2.62-11.509,4.647-2.308,9.967,3.961,12.5,7.118a4.119,4.119,0,0,1,1.875-3.568c5.884-3.928,9.6,6.67,10.475,10.779.83,3.905,1.038,7.922,1.845,11.831" transform="translate(-83.621 -188.613)" fill="#cbe2ef"/>
          </g>
          <path id="Path_42430" data-name="Path 42430" d="M96.056,202.6q3.407,4.574,7.17,8.856a20.979,20.979,0,0,1-6.344-.374c-.415-.089-.5.56-.093.648a21.605,21.605,0,0,0,6.955.333s.007,0,.011,0q4.118,4.647,8.622,8.922a53.79,53.79,0,0,1-11.057.1c-.419-.041-.515.608-.093.648a54.593,54.593,0,0,0,11.616-.137.374.374,0,0,0,.137-.044q4.969,4.663,10.368,8.856a.326.326,0,0,0,.4-.515q-5.23-4.052-10.06-8.574a.333.333,0,0,0,.1-.17,40.739,40.739,0,0,0,.548-14.262.327.327,0,0,0-.648.082,40.26,40.26,0,0,1-.508,13.88q-4.608-4.346-8.819-9.082a.348.348,0,0,0,.093-.245,28.834,28.834,0,0,0-1.986-9.619.327.327,0,0,0-.6.252,28.22,28.22,0,0,1,1.912,8.945q-3.774-4.3-7.2-8.889A.328.328,0,0,0,96.056,202.6Z" transform="translate(-91.406 -196.849)" fill="#fff"/>
        </g>
        <path id="Path_42431" data-name="Path 42431" d="M149.553,169.505a100.55,100.55,0,0,1-9.675-13.072,10.658,10.658,0,0,0,1.764-2.9,4.855,4.855,0,0,0-.015-4.35,1.1,1.1,0,0,0-.4-.411,1.009,1.009,0,0,0-1.093.267,3.437,3.437,0,0,0-.889,1.693,9.255,9.255,0,0,0,0,4.665q-1.934-3.2-3.635-6.529a10.53,10.53,0,0,0,1.782-2.931,4.855,4.855,0,0,0-.015-4.35,1.1,1.1,0,0,0-.4-.411,1.009,1.009,0,0,0-1.093.267,3.437,3.437,0,0,0-.889,1.693,9.247,9.247,0,0,0-.07,4.365q-1.528-3.113-2.846-6.329a.438.438,0,0,0,.082-.063,10.55,10.55,0,0,0,1.968-2.894,4.858,4.858,0,0,0,.189-4.346,1.1,1.1,0,0,0-.382-.43,1.01,1.01,0,0,0-1.1.211,3.427,3.427,0,0,0-.967,1.649,9.26,9.26,0,0,0-.13,5.024q-1.334-3.335-2.431-6.762a.345.345,0,0,0,.1-.044,10.392,10.392,0,0,0,2.546-2.371,4.814,4.814,0,0,0,1.119-4.191,1.149,1.149,0,0,0-.282-.5,1.017,1.017,0,0,0-1.126-.044,3.326,3.326,0,0,0-1.3,1.386,9.177,9.177,0,0,0-1.2,5.095l.1.552h0q-1-3.129-1.793-6.321a10.388,10.388,0,0,0,2.5-2.345,4.814,4.814,0,0,0,1.119-4.191,1.149,1.149,0,0,0-.282-.5,1.017,1.017,0,0,0-1.126-.044,3.326,3.326,0,0,0-1.3,1.386,9.2,9.2,0,0,0-1.215,4.495q-.723-3.046-1.256-6.14a10.737,10.737,0,0,0,1.06-3.046,4.865,4.865,0,0,0-.874-4.265,1.078,1.078,0,0,0-.474-.319,1.009,1.009,0,0,0-1.015.489,3.461,3.461,0,0,0-.534,1.845,9.264,9.264,0,0,0,1.2,5.113l.219.289q.328,1.884.726,3.754a10.593,10.593,0,0,0-1.464-1.99,4.591,4.591,0,0,0-3.894-1.745.9.9,0,0,0-.715,1.352,3.432,3.432,0,0,0,1.167,1.519,8.735,8.735,0,0,0,4.758,1.96l.385-.019q.639,2.857,1.441,5.669a10.5,10.5,0,0,0-2.008-2.327,4.554,4.554,0,0,0-4.05-1.3.9.9,0,0,0-.571,1.423,3.414,3.414,0,0,0,1.319,1.386,8.673,8.673,0,0,0,4.932,1.427l.526-.085q.973,3.363,2.171,6.644a10.615,10.615,0,0,0-1.93-1.916,4.552,4.552,0,0,0-4.117-1.056,1.055,1.055,0,0,0-.482.3,1.092,1.092,0,0,0,0,1.156,3.4,3.4,0,0,0,1.4,1.3,8.619,8.619,0,0,0,5,1.119l.434-.1q1.173,3.14,2.549,6.192a10.567,10.567,0,0,0-1.727-1.5,4.548,4.548,0,0,0-4.161-.852.906.906,0,0,0-.415,1.478,3.378,3.378,0,0,0,1.452,1.23,8.615,8.615,0,0,0,5.047.874l.322-.089q1.484,3.19,3.175,6.269a10.535,10.535,0,0,0-1.36-1.112,4.548,4.548,0,0,0-4.161-.852.906.906,0,0,0-.415,1.478,3.378,3.378,0,0,0,1.452,1.23,8.615,8.615,0,0,0,5.047.874l.3-.082q1.306,2.284,2.735,4.5A10.271,10.271,0,0,0,138,156.818a4.5,4.5,0,0,0-4.224.311.916.916,0,0,0-.019,1.541,3.307,3.307,0,0,0,1.716.793,8.543,8.543,0,0,0,5.084-.534l.3-.182a100.843,100.843,0,0,0,8.359,11.016C149.4,169.98,149.739,169.716,149.553,169.505Z" transform="translate(-106.568 -112.115)" fill="#e8eefa"/>
        <g id="Group_56270" data-name="Group 56270" transform="translate(76.958 14.994)">
          <g id="Group_56269" data-name="Group 56269" transform="translate(1.677)">
            <path id="Path_42432" data-name="Path 42432" d="M321.959,154.522a8.792,8.792,0,0,1,2.3,3.742c1.475,4.75-1.4,10.775-3.987,14.692a9.208,9.208,0,0,1,5.143,2.609c3.653,4.017-.541,8.4-4.506,9.916-5.8,2.212-12.283.9-18.145,2.909a3.4,3.4,0,0,0-1.916,1.275,2.307,2.307,0,0,0-1.9-.582,34.034,34.034,0,0,0-1.334-9.278c-1.2-4.15-3.172-9.66-.278-13.569,2.412-3.261,7.837-2.394,9.623,1.1.319-3.587.871-7.288,2.831-10.308s5.7-5.165,9.171-4.228A7.029,7.029,0,0,1,321.959,154.522Z" transform="translate(-295.84 -152.58)" fill="#cbe2ef"/>
          </g>
          <path id="Path_42433" data-name="Path 42433" d="M319.151,172.7q-3.485,1.679-6.877,3.531,2.785-5.18,5.08-10.623c.152-.363-.441-.522-.593-.163q-2.323,5.508-5.162,10.749-1.184-4.352-2.475-8.674a.308.308,0,0,0-.593.163q1.384,4.624,2.646,9.278a123.862,123.862,0,0,1-7.792,12.383,48.241,48.241,0,0,1-3.913-11.086c-.085-.385-.678-.222-.593.163a48.761,48.761,0,0,0,4.035,11.353.288.288,0,0,0,.089.107A124.1,124.1,0,0,1,291.4,203.7c-.274.285.159.719.434.434a124.2,124.2,0,0,0,11.642-13.865,64.064,64.064,0,0,0,15.566-2.475.308.308,0,0,0-.163-.593,63.509,63.509,0,0,1-14.947,2.431,124.124,124.124,0,0,0,7.792-12.4q3.813-2.106,7.737-4C319.818,173.057,319.506,172.531,319.151,172.7Z" transform="translate(-291.314 -160.551)" fill="#fff"/>
        </g>
        <path id="Path_42434" data-name="Path 42434" d="M297.831,226.507a76.628,76.628,0,0,0,11.186-5.617,8.067,8.067,0,0,1-.267-2.612,3.619,3.619,0,0,1,1.467-2.987.833.833,0,0,1,.422-.141.813.813,0,0,1,.682.563,2.624,2.624,0,0,1,.059,1.475,6.909,6.909,0,0,1-1.56,3.209q2.434-1.523,4.743-3.224a8.115,8.115,0,0,1-.274-2.638,3.619,3.619,0,0,1,1.467-2.987.833.833,0,0,1,.422-.141.813.813,0,0,1,.682.563,2.624,2.624,0,0,1,.059,1.475,6.9,6.9,0,0,1-1.412,3.027q2.118-1.606,4.12-3.357a.268.268,0,0,1-.033-.074,8,8,0,0,1-.415-2.675,3.614,3.614,0,0,1,1.323-3.053.859.859,0,0,1,.415-.163.816.816,0,0,1,.708.53,2.609,2.609,0,0,1,.13,1.471,6.907,6.907,0,0,1-1.59,3.5q2.057-1.829,3.976-3.8a.243.243,0,0,1-.056-.067,8.1,8.1,0,0,1-1-2.52,3.628,3.628,0,0,1,.615-3.272.853.853,0,0,1,.367-.248.815.815,0,0,1,.808.363,2.63,2.63,0,0,1,.448,1.4,6.908,6.908,0,0,1-.86,3.924l-.259.345h0q1.751-1.8,3.379-3.72a8.1,8.1,0,0,1-.978-2.486,3.628,3.628,0,0,1,.615-3.272.852.852,0,0,1,.367-.248.815.815,0,0,1,.808.363,2.63,2.63,0,0,1,.448,1.4,6.876,6.876,0,0,1-.648,3.513q1.528-1.845,2.942-3.783a8.239,8.239,0,0,1,.27-2.464,3.624,3.624,0,0,1,2.042-2.627.9.9,0,0,1,.441-.056.809.809,0,0,1,.552.689,2.63,2.63,0,0,1-.245,1.456,6.871,6.871,0,0,1-2.56,3.094l-.252.122c-.574.789-1.163,1.564-1.767,2.331a8.1,8.1,0,0,1,1.7-.856,3.628,3.628,0,0,1,3.324.156.844.844,0,0,1,.3.33.806.806,0,0,1-.248.849,2.635,2.635,0,0,1-1.33.641,6.885,6.885,0,0,1-4.005-.311l-.263-.148q-1.406,1.74-2.912,3.4a8.1,8.1,0,0,1,2.194-.9,3.625,3.625,0,0,1,3.287.515.855.855,0,0,1,.259.359.812.812,0,0,1-.337.819,2.606,2.606,0,0,1-1.39.493,6.9,6.9,0,0,1-3.946-.737l-.345-.241q-1.812,1.973-3.75,3.813a8.093,8.093,0,0,1,2-.645,3.615,3.615,0,0,1,3.25.711.873.873,0,0,1,.237.374.814.814,0,0,1-.385.8,2.621,2.621,0,0,1-1.419.408,6.911,6.911,0,0,1-3.894-.975l-.271-.219q-1.879,1.751-3.868,3.368a8.082,8.082,0,0,1,1.716-.43,3.621,3.621,0,0,1,3.213.863.845.845,0,0,1,.222.385.811.811,0,0,1-.422.778,2.628,2.628,0,0,1-1.434.341,6.9,6.9,0,0,1-3.846-1.16l-.2-.174q-2.112,1.679-4.335,3.205a8.114,8.114,0,0,1,1.33-.293,3.621,3.621,0,0,1,3.213.863.879.879,0,0,1,.222.385.811.811,0,0,1-.422.778,2.628,2.628,0,0,1-1.434.341,6.9,6.9,0,0,1-3.846-1.16l-.182-.159q-1.684,1.112-3.427,2.138a8.071,8.071,0,0,1,2.049.019,3.613,3.613,0,0,1,2.868,1.686.845.845,0,0,1,.111.43.814.814,0,0,1-.611.637,2.634,2.634,0,0,1-1.475-.052,6.911,6.911,0,0,1-3.4-2.138l-.148-.23a76.618,76.618,0,0,1-9.571,4.661C297.783,226.889,297.631,226.589,297.831,226.507Z" transform="translate(-218.4 -164.537)" fill="#cbe2ef"/>
        <g id="Group_56272" data-name="Group 56272" transform="translate(85.956 56.893)">
          <g id="Group_56271" data-name="Group 56271" transform="translate(4.291)">
            <path id="Path_42435" data-name="Path 42435" d="M327.18,282.574c1.453-4.743,2.76-9.212,5.832-13.243a9.852,9.852,0,0,1,3.746-3.276,4.31,4.31,0,0,1,4.691.66,5.18,5.18,0,0,1,1.163,3.776c1.5-2.368,4.5-3.305,7.3-3.509,3.917-.289,8.4.989,9.045,5.432.663,4.591-6.143,7.363-9.534,8.637a3.676,3.676,0,0,1,2.509,2.59c1.7,6.092-8.344,6.3-12.076,5.892-3.55-.382-7.018-1.33-10.564-1.73" transform="translate(-327.18 -265.659)" fill="#cbe2ef"/>
          </g>
          <path id="Path_42436" data-name="Path 42436" d="M346.947,278.584q-4.836,1.623-9.523,3.624a18.717,18.717,0,0,1,2.086-5.284c.189-.326-.333-.585-.522-.259a19.275,19.275,0,0,0-2.223,5.814v.007q-5.091,2.2-9.982,4.839a48.043,48.043,0,0,1,3-9.419c.152-.345-.374-.608-.522-.259a48.9,48.9,0,0,0-3.12,9.9.3.3,0,0,0,0,.13q-5.347,2.918-10.412,6.336a.293.293,0,0,0,.326.485q4.9-3.313,10.09-6.155a.272.272,0,0,0,.119.133,36.487,36.487,0,0,0,11.965,4.443.293.293,0,0,0,.111-.574,35.889,35.889,0,0,1-11.65-4.3q4.974-2.7,10.171-4.958a.282.282,0,0,0,.182.145,25.8,25.8,0,0,0,8.722,1,.292.292,0,0,0-.044-.582,25.2,25.2,0,0,1-8.133-.871q4.7-2.006,9.56-3.639A.3.3,0,0,0,346.947,278.584Z" transform="translate(-315.6 -272.492)" fill="#fff"/>
        </g>
        <path id="Path_42437" data-name="Path 42437" d="M215.915,206.885H181.63a3.08,3.08,0,0,1-2.853-1.919L177.65,202.2a3.642,3.642,0,0,0-3.357-2.238H155.985a3.634,3.634,0,0,0-3.635,3.635v45.972a4.733,4.733,0,0,0,4.732,4.732h58.834a4.733,4.733,0,0,0,4.732-4.732v-37.95A4.731,4.731,0,0,0,215.915,206.885Z" transform="translate(-126.883 -167.41)" fill="url(#linear-gradient)"/>
        <g id="Group_56274" data-name="Group 56274" transform="translate(44.46 10.573)">
          <path id="Path_42438" data-name="Path 42438" d="M243.113,184.6h-36.42a3.083,3.083,0,0,1-3.083-3.083V143.733a3.083,3.083,0,0,1,3.083-3.083h36.42a3.083,3.083,0,0,1,3.083,3.083v37.783A3.085,3.085,0,0,1,243.113,184.6Z" transform="translate(-203.61 -140.65)" fill="#177eb9"/>
          <g id="Group_56273" data-name="Group 56273" transform="translate(5.125 5.943)">
            <path id="Path_42439" data-name="Path 42439" d="M248.765,160.021H218.448a1.009,1.009,0,0,1-1.008-1.008V157.7a1.009,1.009,0,0,1,1.008-1.008h30.317a1.009,1.009,0,0,1,1.008,1.008v1.315A1,1,0,0,1,248.765,160.021Z" transform="translate(-217.44 -156.69)" fill="#f5f6f9"/>
            <path id="Path_42440" data-name="Path 42440" d="M248.765,179.151H218.448a1.009,1.009,0,0,1-1.008-1.008v-1.315a1.009,1.009,0,0,1,1.008-1.008h30.317a1.009,1.009,0,0,1,1.008,1.008v1.315A1,1,0,0,1,248.765,179.151Z" transform="translate(-217.44 -168.732)" fill="#f5f6f9"/>
            <path id="Path_42441" data-name="Path 42441" d="M248.765,198.281H218.448a1.009,1.009,0,0,1-1.008-1.008v-1.315a1.009,1.009,0,0,1,1.008-1.008h30.317a1.009,1.009,0,0,1,1.008,1.008v1.315A1,1,0,0,1,248.765,198.281Z" transform="translate(-217.44 -180.773)" fill="#f5f6f9"/>
            <path id="Path_42442" data-name="Path 42442" d="M248.765,217.411H218.448a1.009,1.009,0,0,1-1.008-1.008v-1.315a1.009,1.009,0,0,1,1.008-1.008h30.317a1.009,1.009,0,0,1,1.008,1.008V216.4A1,1,0,0,1,248.765,217.411Z" transform="translate(-217.44 -192.815)" fill="#f5f6f9"/>
          </g>
        </g>
        <g id="Group_56276" data-name="Group 56276" transform="translate(35.123 7.765)">
          <path id="Path_42443" data-name="Path 42443" d="M220.577,179.765H181.493a3.083,3.083,0,0,1-3.083-3.083V136.153a3.083,3.083,0,0,1,3.083-3.083h39.084a3.083,3.083,0,0,1,3.083,3.083v40.533A3.084,3.084,0,0,1,220.577,179.765Z" transform="translate(-178.41 -133.07)" fill="#177eb9"/>
          <g id="Group_56275" data-name="Group 56275" transform="translate(5.447 6.314)">
            <path id="Path_42444" data-name="Path 42444" d="M226.458,153.652h-32.34a1.009,1.009,0,0,1-1.008-1.008v-1.527a1.009,1.009,0,0,1,1.008-1.008h32.34a1.009,1.009,0,0,1,1.008,1.008v1.527A1.009,1.009,0,0,1,226.458,153.652Z" transform="translate(-193.11 -150.11)" fill="#f5f6f9"/>
            <path id="Path_42445" data-name="Path 42445" d="M226.458,173.972h-32.34a1.009,1.009,0,0,1-1.008-1.008v-1.527a1.009,1.009,0,0,1,1.008-1.008h32.34a1.009,1.009,0,0,1,1.008,1.008v1.527A1.009,1.009,0,0,1,226.458,173.972Z" transform="translate(-193.11 -162.901)" fill="#f5f6f9"/>
            <path id="Path_42446" data-name="Path 42446" d="M226.458,194.3h-32.34a1.009,1.009,0,0,1-1.008-1.008v-1.527a1.009,1.009,0,0,1,1.008-1.008h32.34a1.009,1.009,0,0,1,1.008,1.008v1.527A1.009,1.009,0,0,1,226.458,194.3Z" transform="translate(-193.11 -175.698)" fill="#f5f6f9"/>
            <path id="Path_42447" data-name="Path 42447" d="M226.458,214.622h-32.34a1.009,1.009,0,0,1-1.008-1.008v-1.527a1.009,1.009,0,0,1,1.008-1.008h32.34a1.009,1.009,0,0,1,1.008,1.008v1.527A1.009,1.009,0,0,1,226.458,214.622Z" transform="translate(-193.11 -188.488)" fill="#f5f6f9"/>
          </g>
        </g>
        <path id="Path_42448" data-name="Path 42448" d="M204.7,215.935H170.41a3.08,3.08,0,0,1-2.853-1.919l-1.126-2.768a3.642,3.642,0,0,0-3.357-2.238H144.765a3.634,3.634,0,0,0-3.635,3.635v45.972a4.733,4.733,0,0,0,4.732,4.732h58.83a4.733,4.733,0,0,0,4.732-4.732V220.671A4.724,4.724,0,0,0,204.7,215.935Z" transform="translate(-119.821 -173.107)" fill="url(#linear-gradient-2)"/>
        <path id="Path_42449" data-name="Path 42449" d="M167.747,222.067H154.711a1.341,1.341,0,0,1-1.341-1.341v-1.8a1.341,1.341,0,0,1,1.341-1.341h13.035a1.341,1.341,0,0,1,1.341,1.341v1.8A1.341,1.341,0,0,1,167.747,222.067Z" transform="translate(-127.526 -178.501)" fill="#fff"/>
        <g id="Group_56278" data-name="Group 56278" transform="translate(51.903 47.997)">
          <rect id="Rectangle_19225" data-name="Rectangle 19225" width="3.798" height="15.029" transform="matrix(0.638, -0.77, 0.77, 0.638, 25.311, 26.549)" fill="#177eb9"/>
          <path id="Path_42450" data-name="Path 42450" d="M338.418,343.7l-.408.493a2.951,2.951,0,0,1-4.157.389l-18.379-15.225a2.951,2.951,0,0,1-.389-4.157l.408-.493a2.951,2.951,0,0,1,4.157-.389l18.379,15.225A2.951,2.951,0,0,1,338.418,343.7Z" transform="translate(-280.794 -293.256)" fill="#127dbb"/>
          <circle id="Ellipse_4276" data-name="Ellipse 4276" cx="15.677" cy="15.677" r="15.677" transform="matrix(0.995, -0.1, 0.1, 0.995, 1.009, 4.159)" fill="#177eb9"/>
          <g id="Group_56277" data-name="Group 56277">
            <circle id="Ellipse_4277" data-name="Ellipse 4277" cx="12.854" cy="12.854" r="12.854" transform="translate(0 18.178) rotate(-45)" fill="#e6f3f9"/>
            <path id="Path_42451" data-name="Path 42451" d="M259.818,282.064q-1.195-12.75-2.394-25.5a12.8,12.8,0,0,0-5.454,2.364q1.023,10.916,2.049,21.836A12.811,12.811,0,0,0,259.818,282.064Z" transform="translate(-241.493 -251.035)" fill="#e6f3f9"/>
            <path id="Path_42452" data-name="Path 42452" d="M281.952,279.879q-1.073-11.422-2.142-22.843a12.727,12.727,0,0,0-3.32-.815q1.178,12.539,2.353,25.078A12.715,12.715,0,0,0,281.952,279.879Z" transform="translate(-256.928 -250.821)" fill="#e6f3f9"/>
          </g>
        </g>
      </g>
    </g>
  </g>
</svg>
