<svg xmlns="http://www.w3.org/2000/svg" width="24" height="24" viewBox="0 0 24 24">
  <g id="Group_54961" data-name="Group 54961" transform="translate(-1590 -681)">
    <circle id="Ellipse_4271" data-name="Ellipse 4271" cx="12" cy="12" r="12" transform="translate(1590 681)" fill="#16bf00" opacity="0.201"/>
    <g id="Layer_2" data-name="Layer 2" transform="translate(1593.841 683.401)">
      <path id="Path_31613" data-name="Path 31613" d="M28.794,13.819v-.805h.1a1.325,1.325,0,1,0,0-2.651h-.1V9.038h.1a.663.663,0,0,1,.663.663h.663A1.325,1.325,0,0,0,28.89,8.375h-.1V7.57h-.663v.805h-.1a1.325,1.325,0,0,0,0,2.651h.1v1.325h-.1a.663.663,0,0,1-.663-.663H26.71a1.325,1.325,0,0,0,1.325,1.325h.1v.805Zm-.759-3.456a.663.663,0,0,1,0-1.325h.1v1.325Zm.759.663h.1a.663.663,0,1,1,0,1.325h-.1Z" transform="translate(-20.624 -6.068)" fill="#16bf00"/>
      <path id="Path_31614" data-name="Path 31614" d="M20.918,10.4a3.976,3.976,0,0,0-2.469,2.25,6.7,6.7,0,0,0-1.938,1.226V12.3a4.639,4.639,0,1,0-.663,0v2.631a6.683,6.683,0,0,0-1.63-1.355,3.933,3.933,0,0,0-5.706-2.488.331.331,0,0,0-.166.355,3.943,3.943,0,0,0,5.679,2.773,6.359,6.359,0,0,1,1.544,1.4h-3.7a.331.331,0,0,0-.331.331v1.325a.331.331,0,0,0,.126.258C13.2,18.756,13.2,19.942,13.2,21.91a.331.331,0,0,0,.331.331h5.3a.331.331,0,0,0,.331-.331c0-1.968,0-3.154,1.531-4.38a.331.331,0,0,0,.126-.258V15.946a.331.331,0,0,0-.331-.331H16.512V14.8a6.491,6.491,0,0,1,2.034-1.478,3.94,3.94,0,0,0,6.017-1.942.331.331,0,0,0-.1-.374A3.976,3.976,0,0,0,20.918,10.4Zm-10.1,3.28a3.313,3.313,0,0,1-1.766-2.117,3.277,3.277,0,0,1,4.526,2.14A3.313,3.313,0,0,1,10.819,13.68ZM12.2,7.663a3.976,3.976,0,1,1,3.976,3.976A3.976,3.976,0,0,1,12.2,7.663Zm6.3,13.916H13.861c0-1.577-.073-2.81-1.143-3.976h6.925C18.573,18.769,18.5,20,18.5,21.579Zm1.657-4.639H12.2v-.663h7.952Zm1.657-3.691a3.313,3.313,0,0,1-2.734-.371A3.28,3.28,0,0,1,23.861,11.4,3.313,3.313,0,0,1,21.813,13.249Z" transform="translate(-8.341 -3.036)" fill="#16bf00"/>
    </g>
  </g>
</svg>
