<svg xmlns="http://www.w3.org/2000/svg" width="24" height="24" viewBox="0 0 24 24">
  <g id="Group_54963" data-name="Group 54963" transform="translate(-1139 -680.791)">
    <circle id="Ellipse_4269" data-name="Ellipse 4269" cx="12" cy="12" r="12" transform="translate(1139 680.791)" fill="#177eb9" opacity="0.201"/>
    <path id="loan" d="M12.538,2a1.016,1.016,0,0,0-1.015,1.015v.338a.338.338,0,0,0,.017.107l.19.57h-.857a.339.339,0,0,0-.3.186L9.987,5.384H9.154V5.046a.339.339,0,0,0-.338-.338H4.106a.338.338,0,0,0,0,.677H5.77V10.8H4.106a.338.338,0,1,0,0,.677h4.71a.339.339,0,0,0,.338-.338V10.8h.9l.578.578a.339.339,0,0,0,.215.1L7.395,16.078A3.045,3.045,0,0,0,9.831,20.95h7.445a3.045,3.045,0,0,0,2.436-4.872L16.127,11.3a1.008,1.008,0,0,0,.181-1.515,1,1,0,0,0,0-1.354,1,1,0,0,0,0-1.354,1.008,1.008,0,0,0-.632-1.68l.233-.932.333-1a.339.339,0,0,0,.019-.107V3.015a1.011,1.011,0,0,0-1.692-.751,1,1,0,0,0-1.354,0A1.007,1.007,0,0,0,12.538,2Zm0,.677a.339.339,0,0,1,.338.338v.338a.338.338,0,1,0,.677,0V3.015a.338.338,0,1,1,.677,0v.338a.338.338,0,0,0,.677,0V3.015a.338.338,0,0,1,.677,0V3.3l-.321.962s0,.008,0,.013a.077.077,0,0,0-.005.013l-.275,1.1H12.8l-.274-1.1s-.005-.008-.007-.013,0-.009,0-.012L12.2,3.3V3.015h0A.339.339,0,0,1,12.538,2.677Zm-1.455,2.03h.853l.275,1.1c0,.009.009.018.012.026a.28.28,0,0,0,.02.046.357.357,0,0,0,.041.059.308.308,0,0,0,.032.034c.006.005.01.013.016.019h0a.306.306,0,0,0,.046.025.242.242,0,0,0,.037.02.3.3,0,0,0,.12.025h3.018a.338.338,0,0,1,0,.677H13.967a.338.338,0,1,0,0,.677h1.589a.338.338,0,1,1,0,.677H13.967a.338.338,0,1,0,0,.677h1.589a.338.338,0,1,1,0,.677H13.967a.338.338,0,1,0,0,.677h1.589a.338.338,0,1,1,0,.677H11.014l-.578-.578a.355.355,0,0,0-.111-.074.338.338,0,0,0-.128-.025H9.154V6.061H10.2a.33.33,0,0,0,.16-.045.31.31,0,0,0,.034-.024.333.333,0,0,0,.093-.1c0-.007.012-.008.016-.016Zm-4.636.677h2.03V10.8H6.447ZM7.462,9.445a.338.338,0,1,0,.338.338A.338.338,0,0,0,7.462,9.445Zm4.23,2.03h.545l-.288.913a.338.338,0,1,0,.645.2l.353-1.117h.268V12.49a.338.338,0,0,0,.677,0V11.475h.268l.353,1.117a.338.338,0,1,0,.645-.2l-.289-.913h.545l3.757,5.007a2.37,2.37,0,0,1-1.894,3.791H9.831a2.37,2.37,0,0,1-1.9-3.791Zm.508,2.689a.338.338,0,1,0,0,.677h.677a1.013,1.013,0,0,1,.956.687H12.2a.338.338,0,1,0,0,.677h1.626a1.013,1.013,0,0,1-.949.666H12.2a.339.339,0,0,0-.338.338.015.015,0,0,0,0,.005.334.334,0,0,0,.1.245l2.03,2.03a.338.338,0,1,0,.479-.479l-1.475-1.475A1.69,1.69,0,0,0,14.532,16.2h.375a.338.338,0,1,0,0-.677h-.371a1.679,1.679,0,0,0-.313-.687h.685a.338.338,0,1,0,0-.677H12.2Z" transform="translate(1138.786 681.326)" fill="#177eb9"/>
  </g>
</svg>
