<svg id="Group_54838" data-name="Group 54838" xmlns="http://www.w3.org/2000/svg" width="68.214" height="51.161" viewBox="0 0 68.214 51.161">
  <path id="Path_42156" data-name="Path 42156" d="M102.737,258.008c1.453.538,2.8,1.358,2.831,3.4,0,2.075-.042,1.529-.017,2.7.025,1.349-.422,1.674-.972,1.939a1.684,1.684,0,0,1-.423.094l-31.086.026v-1.8l.4-3.049a29.172,29.172,0,0,1,12.751-19.779,28.744,28.744,0,0,1,28.4-1.879,29.406,29.406,0,0,1,3.988,2.357l20.9,12.221c-2.476,1-7.36,1.486-10.376,1.307-8.636-.512-16.19-5.329-22.611-10.718a7.212,7.212,0,0,0-4.63-1.691,7.289,7.289,0,0,0-7.25,7.336c-.008,5.858,4.031,6.439,8.1,7.541" transform="translate(-73.07 -236.762)" fill="#fff"/>
  <path id="Path_42157" data-name="Path 42157" d="M109.122,266.988c0-2.075.042-1.529.017-2.7-.025-1.349.422-1.674.963-1.93a1.384,1.384,0,0,1,.423-.094l31.086-.026v1.8l-.4,3.049a29.173,29.173,0,0,1-12.751,19.779,28.744,28.744,0,0,1-28.4,1.879,29.392,29.392,0,0,1-3.988-2.357l-20.9-12.221c2.476-1,7.36-1.486,10.376-1.307,8.644.512,16.19,5.329,22.611,10.718a7.212,7.212,0,0,0,4.63,1.691,7.289,7.289,0,0,0,7.25-7.336c.017-9.719-10.816-4.893-10.925-10.948" transform="translate(-73.397 -240.481)" fill="#fff"/>
</svg>
