<svg xmlns="http://www.w3.org/2000/svg" xmlns:xlink="http://www.w3.org/1999/xlink" width="376" height="116" viewBox="0 0 376 116">
  <defs>
    <linearGradient id="linear-gradient" x1="0.5" x2="0.5" y2="1" gradientUnits="objectBoundingBox">
      <stop offset="0" stop-color="#1a9df5"/>
      <stop offset="1" stop-color="#377cb6"/>
    </linearGradient>
  </defs>
  <g id="Group_56171" data-name="Group 56171" transform="translate(-18 -116)">
    <rect id="Rectangle_19122" data-name="Rectangle 19122" width="376" height="116" rx="4" transform="translate(18 116)" fill="url(#linear-gradient)"/>
    <g id="Reset_password-cuate" data-name="Reset password-cuate" transform="translate(229.29 89.286)">
      <g id="freepik--background-complete--inject-5" transform="translate(38.33 26.714)">
        <rect id="Rectangle_19174" data-name="Rectangle 19174" width="9.174" height="2.92" transform="translate(102.881 85.127) rotate(180)" fill="#ebebeb"/>
        <rect id="Rectangle_19175" data-name="Rectangle 19175" width="9.174" height="2.92" transform="translate(107.997 42.774) rotate(180)" fill="#ebebeb"/>
        <path id="Path_42204" data-name="Path 42204" d="M421.51,358.46l4.618-.078,2.283-.031h2.273l-.12.12v-2.92l.13.13-4.587-.018-2.293-.023-2.293-.029.063-.06Zm0,0-.06-2.92v-.063h.063l2.293-.029,2.293-.021,4.587-.018h.13v3.167h-2.432l-2.3-.031Z" transform="translate(-322.687 -269.649)" fill="#ebebeb"/>
        <path id="Path_42205" data-name="Path 42205" d="M129.673,330.54l4.618-.076,2.283-.031,2.273-.013-.12.12v-2.92l.13.13-4.587-.018-2.293-.021-2.293-.029.063-.063Zm0,0-.063-2.909v-.063h.063l2.293-.029,2.293-.021,4.587-.018h.13v3.17h-2.447l-2.3-.031Z" transform="translate(-106.991 -249.021)" fill="#ebebeb"/>
        <path id="Path_42206" data-name="Path 42206" d="M149.29,344.62l4.618-.076,2.283-.031,2.273-.013-.12.12V341.7l.13.13-4.608-.018-2.293-.021-2.293-.029.063-.063Zm0,0-.06-2.92v-.063h.063l2.293-.029,2.293-.021,4.587-.018h.13v3.17h-2.432l-2.3-.031Z" transform="translate(-121.492 -259.42)" fill="#ebebeb"/>
        <rect id="Rectangle_19176" data-name="Rectangle 19176" width="9.174" height="2.92" transform="translate(42.067 81.519) rotate(180)" fill="#ebebeb"/>
        <rect id="Rectangle_19177" data-name="Rectangle 19177" width="9.174" height="2.92" transform="translate(9.236 88.809) rotate(180)" fill="#ebebeb"/>
        <rect id="Rectangle_19178" data-name="Rectangle 19178" width="9.174" height="2.92" transform="translate(14.353 16.096) rotate(180)" fill="#ebebeb"/>
        <path id="Path_42207" data-name="Path 42207" d="M42.983,61.59l4.618-.076,2.283-.031h2.273l-.12.117v-2.92l.13.13-4.587-.018-2.291-.031L43,58.733l.05-.073Zm0,0-.063-2.93V58.6h.063l2.306-.018,2.293-.023,4.587-.018h.13V61.7H49.868l-2.3-.031Z" transform="translate(-42.92 -41.815)" fill="#ebebeb"/>
        <g id="Group_56170" data-name="Group 56170" transform="translate(0 7)">
          <path id="Path_42208" data-name="Path 42208" d="M401.893,47.48l4.618-.076,2.283-.031h2.273l-.12.117v-2.92l.13.13-4.587-.018-2.293-.021-2.293-.029.063-.063Zm0,0-.063-2.92V44.5h.063l2.293-.029,2.293-.023,4.587-.018h.13v.13l-.013,2.92v.12h-2.432l-2.3-.031Z" transform="translate(-308.186 -39.808)" fill="#ebebeb"/>
          <circle id="Ellipse_3311" data-name="Ellipse 3311" cx="11.243" cy="11.243" r="11.243" transform="matrix(0.958, -0.287, 0.287, 0.958, 83.589, 6.731)" fill="#ebebeb"/>
          <circle id="Ellipse_3312" data-name="Ellipse 3312" cx="10.726" cy="10.726" r="10.726" transform="matrix(0.476, -0.879, 0.879, 0.476, 83.558, 18.865)" fill="#dbdbdb"/>
          <circle id="Ellipse_3313" data-name="Ellipse 3313" cx="10.05" cy="10.05" r="10.05" transform="translate(85.401 8.159) rotate(-18.3)" fill="#fff"/>
          <path id="Path_42209" data-name="Path 42209" d="M402.6,55.1c-4.576,2.774-12.1,7.321-16.3,9.816a10.045,10.045,0,0,1-2.745-3.692l13.9-12.886A10.069,10.069,0,0,1,402.6,55.1Z" transform="translate(-294.675 -42.697)" fill="#ebebeb" opacity="0.5"/>
          <path id="Path_42210" data-name="Path 42210" d="M415.55,83.78a9.914,9.914,0,0,1-.663,3.267l-12.524,5.928a9.914,9.914,0,0,1-1.584-.681C404.555,90.1,411.475,86.126,415.55,83.78Z" transform="translate(-307.41 -68.891)" fill="#ebebeb" opacity="0.5"/>
          <rect id="Rectangle_19179" data-name="Rectangle 19179" width="0.193" height="1.524" transform="translate(98.001 5.22)" fill="#c7c7c7"/>
          <rect id="Rectangle_19180" data-name="Rectangle 19180" width="0.196" height="1.524" transform="translate(93.352 6.511) rotate(-30)" fill="#c7c7c7"/>
          <rect id="Rectangle_19181" data-name="Rectangle 19181" width="0.193" height="1.524" transform="translate(89.976 9.957) rotate(-60)" fill="#c7c7c7"/>
          <rect id="Rectangle_19182" data-name="Rectangle 19182" width="1.524" height="0.193" transform="translate(88.778 14.441)" fill="#c7c7c7"/>
          <rect id="Rectangle_19183" data-name="Rectangle 19183" width="1.529" height="0.194" transform="translate(90.385 19.231) rotate(-29.887)" fill="#c7c7c7"/>
          <rect id="Rectangle_19184" data-name="Rectangle 19184" width="1.524" height="0.193" transform="translate(93.358 22.564) rotate(-60.04)" fill="#c7c7c7"/>
          <rect id="Rectangle_19185" data-name="Rectangle 19185" width="0.193" height="1.524" transform="translate(98.001 22.336)" fill="#c7c7c7"/>
          <rect id="Rectangle_19186" data-name="Rectangle 19186" width="0.193" height="1.524" transform="translate(101.913 21.338) rotate(-30)" fill="#c7c7c7"/>
          <rect id="Rectangle_19187" data-name="Rectangle 19187" width="0.193" height="1.524" transform="translate(104.811 18.527) rotate(-59.99)" fill="#c7c7c7"/>
          <rect id="Rectangle_19188" data-name="Rectangle 19188" width="1.524" height="0.193" transform="translate(105.897 14.441)" fill="#c7c7c7"/>
          <rect id="Rectangle_19189" data-name="Rectangle 19189" width="1.524" height="0.193" transform="translate(104.805 10.565) rotate(-30.01)" fill="#c7c7c7"/>
          <rect id="Rectangle_19190" data-name="Rectangle 19190" width="1.524" height="0.193" transform="translate(101.911 7.735) rotate(-60.03)" fill="#c7c7c7"/>
          <path id="Path_42211" data-name="Path 42211" d="M417.7,49.353l.331,9.309-.952-.013.363-9.3Z" transform="translate(-319.457 -43.444)" fill="#c7c7c7"/>
          <path id="Path_42212" data-name="Path 42212" d="M422.659,69.35l-6.265,3.995-.454-.835,6.593-3.389Z" transform="translate(-318.614 -58.056)" fill="#a6a6a6"/>
          <path id="Path_42213" data-name="Path 42213" d="M418.3,81.516a.323.323,0,1,1-.095-.231A.326.326,0,0,1,418.3,81.516Z" transform="translate(-319.878 -66.976)" fill="#c7c7c7"/>
        </g>
      </g>
      <g id="freepik--Table--inject-5" transform="translate(36.71 140.356)">
        <path id="Path_42214" data-name="Path 42214" d="M36.71,462.4l13.912-.065,13.912-.021,27.826-.044,27.824.042,13.914.023,13.912.065-13.912.063-13.914.023-27.824.044-27.826-.044-13.912-.023Z" transform="translate(-36.71 -462.27)" fill="#263238"/>
      </g>
      <g id="freepik--Plant--inject-5" transform="translate(36.71 100.626)">
        <path id="Path_42215" data-name="Path 42215" d="M70.643,335.421s.24,0,.522,1.044c.149.571-.728,5.417-.642,10.562.065,3.862.261,8.088.551,10.5,0,0,.282.566,1.208.394a60.237,60.237,0,0,1-1.208-11.034c-.039-3.619.694-7.752.673-10.567a2.448,2.448,0,0,1,.237-.981Z" transform="translate(-61.696 -328.727)" fill="#455a64"/>
        <path id="Path_42216" data-name="Path 42216" d="M71.321,315.348a2.707,2.707,0,0,1-1.044-2.038,3.97,3.97,0,0,1,1.072-2.768c.6-.582.814-.545.814-.545s.676-.089,1.085,1.328.814,2.609.326,3.34A1.735,1.735,0,0,1,71.321,315.348Z" transform="translate(-61.518 -309.996)" fill="#077dbb"/>
        <path id="Path_42217" data-name="Path 42217" d="M71.321,315.348a2.707,2.707,0,0,1-1.044-2.038,3.97,3.97,0,0,1,1.072-2.768c.6-.582.814-.545.814-.545s.676-.089,1.085,1.328.814,2.609.326,3.34A1.735,1.735,0,0,1,71.321,315.348Z" transform="translate(-61.518 -309.996)" opacity="0.3"/>
        <path id="Path_42218" data-name="Path 42218" d="M66.744,314.812A3.148,3.148,0,0,1,66.7,312.7c.417-.911.728-.913.819-.937s.684.149.9,1.023a3.3,3.3,0,0,1,.073,1.855c-.141.363-.715.631-.715.631a1.164,1.164,0,0,1-1.033-.462Z" transform="translate(-58.744 -311.301)" fill="#077dbb"/>
        <path id="Path_42219" data-name="Path 42219" d="M66.744,314.812A3.148,3.148,0,0,1,66.7,312.7c.417-.911.728-.913.819-.937s.684.149.9,1.023a3.3,3.3,0,0,1,.073,1.855c-.141.363-.715.631-.715.631a1.164,1.164,0,0,1-1.033-.462Z" transform="translate(-58.744 -311.301)" opacity="0.2"/>
        <path id="Path_42220" data-name="Path 42220" d="M65.635,313.842s-.491.128-.634.968a5.7,5.7,0,0,0,.091,2c.052.18.193,1.9,1.093,2.591s1.075.261,1.075.261a1.855,1.855,0,0,0,.783-1.451,6.739,6.739,0,0,0-.261-2.583c-.245-.738-.342-1.153-.845-1.419A2.3,2.3,0,0,0,65.635,313.842Z" transform="translate(-57.584 -312.821)" fill="#077dbb"/>
        <path id="Path_42221" data-name="Path 42221" d="M65.635,313.842s-.491.128-.634.968a5.7,5.7,0,0,0,.091,2c.052.18.193,1.9,1.093,2.591s1.075.261,1.075.261a1.855,1.855,0,0,0,.783-1.451,6.739,6.739,0,0,0-.261-2.583c-.245-.738-.342-1.153-.845-1.419A2.3,2.3,0,0,0,65.635,313.842Z" transform="translate(-57.584 -312.821)" fill="#787882" opacity="0.541"/>
        <path id="Path_42222" data-name="Path 42222" d="M71.968,319.37s-1.085.172-1.4-1.383a3.21,3.21,0,0,1,.13-2.286c.073-.219-.018-.462.154-.728s.282-.209.5-.566.284-.885.462-1.044a.731.731,0,0,1,.592-.214,6.106,6.106,0,0,1,.924.384c.261.1.185.6.357.811a2.321,2.321,0,0,1,.464,2.017c-.209,1.185-.355,1.978-.879,2.424A2.015,2.015,0,0,1,71.968,319.37Z" transform="translate(-61.643 -312.324)" fill="#56c596"/>
        <path id="Path_42223" data-name="Path 42223" d="M64.057,321.53c-.188.029-.639.044-1.187-.624a3.994,3.994,0,0,1-.647-2.288,10.643,10.643,0,0,0-.284-1.706c-.164-.446-.123-.7-.073-.733s.457.12.673.647a5.58,5.58,0,0,1,.754,1.79c.076.775.039,1.886.467,2.348s.895.347.783.561a4.055,4.055,0,0,1-.485.005Z" transform="translate(-55.269 -314.563)" fill="#56c596"/>
        <path id="Path_42224" data-name="Path 42224" d="M71.54,353.047s-.647-2.087,1.372-5.9,3.851-4.957,3.851-4.957a14.349,14.349,0,0,1-1.792,5.644C73.2,351.356,71.812,352.89,71.54,353.047Z" transform="translate(-62.38 -333.79)" fill="#455a64"/>
        <path id="Path_42225" data-name="Path 42225" d="M76.531,348.321c.06-.11.083,0,.026.1-.718,1.352-3.194,5.427-3.992,8.237-.034.117-.13,0-.091-.12A35.245,35.245,0,0,1,76.531,348.321Z" transform="translate(-63.136 -338.288)" fill="#37474f"/>
        <path id="Path_42226" data-name="Path 42226" d="M84.382,359.582s.136-2.659-.592-3.332-.884-.5-1.1-.551a2.017,2.017,0,0,0-.751.143s1.1.248,1.352,1Z" transform="translate(-70.139 -343.775)" fill="#077dbb"/>
        <path id="Path_42227" data-name="Path 42227" d="M84.382,359.582s.136-2.659-.592-3.332-.884-.5-1.1-.551a2.017,2.017,0,0,0-.751.143s1.1.248,1.352,1Z" transform="translate(-70.139 -343.775)" fill="#56c596" opacity="0.2"/>
        <path id="Path_42228" data-name="Path 42228" d="M83.307,373.29a1.745,1.745,0,0,1,.235,1.208,25.146,25.146,0,0,1-4.449,12.524s-.472,1.205.117.934c0,0,3.778-3.992,4.762-13.184a2.062,2.062,0,0,1,.725-1.487S83.419,372.982,83.307,373.29Z" transform="translate(-67.902 -356.674)" fill="#455a64"/>
        <path id="Path_42229" data-name="Path 42229" d="M90.3,351.717a.639.639,0,0,1,.668.558c.141.616,1.255,3.955.783,4.916s-.668.548-1.091.6a2.1,2.1,0,0,1-1.631-1.148,6.773,6.773,0,0,1-.373-2.3C88.742,353.7,88.562,351.738,90.3,351.717Z" transform="translate(-75.089 -340.831)" fill="#077dbb"/>
        <path id="Path_42230" data-name="Path 42230" d="M90.3,351.717a.639.639,0,0,1,.668.558c.141.616,1.255,3.955.783,4.916s-.668.548-1.091.6a2.1,2.1,0,0,1-1.631-1.148,6.773,6.773,0,0,1-.373-2.3C88.742,353.7,88.562,351.738,90.3,351.717Z" transform="translate(-75.089 -340.831)" fill="#205072" opacity="0.1"/>
        <path id="Path_42231" data-name="Path 42231" d="M100.635,350.267a1.669,1.669,0,0,1,.571.991c.021.527.3,2.87-.305,4.021s-1.111,1.469-1.959,1.464.644-5.9.644-5.9S100.33,349.938,100.635,350.267Z" transform="translate(-82.512 -339.707)" fill="#077dbb"/>
        <path id="Path_42232" data-name="Path 42232" d="M100.635,350.267a1.669,1.669,0,0,1,.571.991c.021.527.3,2.87-.305,4.021s-1.111,1.469-1.959,1.464.644-5.9.644-5.9S100.33,349.938,100.635,350.267Z" transform="translate(-82.512 -339.707)" opacity="0.2"/>
        <path id="Path_42233" data-name="Path 42233" d="M94.856,351.75a1.431,1.431,0,0,1,1.138.658,5.017,5.017,0,0,1,.441,2.651c-.141.895-.331,3.087-2.252,2.826-1.451-.2-1.769-2.155-1.7-3.773.05-1.187.783-1.37,1.195-1.8A1.827,1.827,0,0,1,94.856,351.75Z" transform="translate(-77.925 -340.856)" fill="#56c596"/>
        <path id="Path_42234" data-name="Path 42234" d="M89.694,363.044a2.656,2.656,0,0,1-2.3-.744,3.955,3.955,0,0,1-.584-2.348,4.477,4.477,0,0,0-.378-1.192s.438.211.783,1.526S88.666,362.924,89.694,363.044Z" transform="translate(-73.457 -346.037)" fill="#077dbb"/>
        <path id="Path_42235" data-name="Path 42235" d="M80.12,404.322a12.748,12.748,0,0,1,3.653-5.724,11.177,11.177,0,0,1,5.1-3.006l.06-.036c.41-.295-1.873,2.87-3.854,4.665S81.482,403.7,80.12,404.322Z" transform="translate(-68.794 -373.218)" fill="#455a64"/>
        <path id="Path_42236" data-name="Path 42236" d="M88.807,402.3A20.107,20.107,0,0,0,83,408.164c-.07.1-.144.318-.073.217a26.205,26.205,0,0,1,5.818-5.957C88.846,402.348,88.912,402.231,88.807,402.3Z" transform="translate(-70.849 -378.2)" fill="#37474f"/>
        <path id="Path_42237" data-name="Path 42237" d="M52.127,340.235a2.708,2.708,0,0,0,1.6-1.641,3.974,3.974,0,0,0-.211-2.964c-.4-.736-.613-.77-.613-.77s-.618-.284-1.427.95-1.547,2.257-1.3,3.094A1.746,1.746,0,0,0,52.127,340.235Z" transform="translate(-46.621 -328.352)" fill="#077dbb"/>
        <path id="Path_42238" data-name="Path 42238" d="M52.127,340.235a2.708,2.708,0,0,0,1.6-1.641,3.974,3.974,0,0,0-.211-2.964c-.4-.736-.613-.77-.613-.77s-.618-.284-1.427.95-1.547,2.257-1.3,3.094A1.746,1.746,0,0,0,52.127,340.235Z" transform="translate(-46.621 -328.352)" opacity="0.3"/>
        <path id="Path_42239" data-name="Path 42239" d="M54.886,360.081s-.24,0-.522,1.044c-.261,1-1.417,8.031,1.26,13.92,0,0,.245,1.007-.681.838a27.769,27.769,0,0,1-1.161-14.9,1.466,1.466,0,0,0-.237-.981Z" transform="translate(-48.932 -346.953)" fill="#455a64"/>
        <path id="Path_42240" data-name="Path 42240" d="M61.819,341.877a3.06,3.06,0,0,0,.655-2c-.144-1-.428-1.088-.522-1.138s-.7-.06-1.164.712a3.32,3.32,0,0,0-.616,1.751,1.609,1.609,0,0,0,.5.814,1.174,1.174,0,0,0,1.148-.136Z" transform="translate(-54.049 -331.223)" fill="#077dbb"/>
        <path id="Path_42241" data-name="Path 42241" d="M61.819,341.877a3.06,3.06,0,0,0,.655-2c-.144-1-.428-1.088-.522-1.138s-.7-.06-1.164.712a3.32,3.32,0,0,0-.616,1.751,1.609,1.609,0,0,0,.5.814,1.174,1.174,0,0,0,1.148-.136Z" transform="translate(-54.049 -331.223)" opacity="0.2"/>
        <path id="Path_42242" data-name="Path 42242" d="M58.742,341.334s.431.261.321,1.112a5.693,5.693,0,0,1-.678,1.884c-.1.159-.744,1.764-1.808,2.155s-1.1-.068-1.1-.068a1.858,1.858,0,0,1-.331-1.62,6.7,6.7,0,0,1,1.012-2.393c.451-.634.668-1,1.226-1.106A2.312,2.312,0,0,1,58.742,341.334Z" transform="translate(-50.288 -333.075)" fill="#077dbb"/>
        <path id="Path_42243" data-name="Path 42243" d="M58.742,341.334s.431.261.321,1.112a5.693,5.693,0,0,1-.678,1.884c-.1.159-.744,1.764-1.808,2.155s-1.1-.068-1.1-.068a1.858,1.858,0,0,1-.331-1.62,6.7,6.7,0,0,1,1.012-2.393c.451-.634.668-1,1.226-1.106A2.312,2.312,0,0,1,58.742,341.334Z" transform="translate(-50.288 -333.075)" opacity="0.1"/>
        <path id="Path_42244" data-name="Path 42244" d="M50.194,343.956s.986.485,1.743-.911a3.241,3.241,0,0,0,.551-2.223c0-.232.151-.433.068-.741s-.211-.282-.313-.686,0-.931-.136-1.125a.728.728,0,0,0-.5-.381,5.71,5.71,0,0,0-.994.1c-.282.016-.352.522-.582.671a2.317,2.317,0,0,0-1.044,1.787,4,4,0,0,0,.128,2.578A1.957,1.957,0,0,0,50.194,343.956Z" transform="translate(-45.683 -330.612)" fill="#56c596"/>
        <path id="Path_42245" data-name="Path 42245" d="M58.394,349.841c.17.083.595.232,1.318-.245a3.951,3.951,0,0,0,1.289-2,10.959,10.959,0,0,1,.783-1.565c.287-.378.321-.634.284-.678s-.472-.021-.832.423a6.026,6.026,0,0,0-1.252,1.492c-.313.715-.592,1.792-1.138,2.108s-.955.068-.913.305A3.653,3.653,0,0,0,58.394,349.841Z" transform="translate(-52.393 -336.118)" fill="#56c596"/>
        <path id="Path_42246" data-name="Path 42246" d="M41.936,375.447s.647-2.087-1.375-5.9-3.851-4.957-3.851-4.957a14.39,14.39,0,0,0,1.8,5.644C40.279,373.756,41.665,375.29,41.936,375.447Z" transform="translate(-36.71 -350.346)" fill="#455a64"/>
        <path id="Path_42247" data-name="Path 42247" d="M40.34,370.714c-.057-.107-.081,0-.023.107.715,1.352,3.191,5.424,3.989,8.237.034.117.13,0,.094-.12A35.362,35.362,0,0,0,40.34,370.714Z" transform="translate(-39.351 -354.839)" fill="#37474f"/>
        <path id="Path_42248" data-name="Path 42248" d="M42.59,432.586H60.911l-.809-8.73-.177-1.926H43.576l-.177,1.926Z" transform="translate(-41.056 -392.725)" fill="#f7f8f9"/>
        <path id="Path_42249" data-name="Path 42249" d="M45.9,423.24l16.649.616-.177-1.926H46.023Z" transform="translate(-43.502 -392.725)" opacity="0.1"/>
        <path id="Path_42423" data-name="Path 42423" d="M0,0H18.444V2.32H0Z" transform="translate(19.915 29.886) rotate(180)" fill="#f7f7f7"/>
      </g>
      <g id="freepik--Character--inject-5" transform="translate(68.847 76.006)">
        <path id="Path_42366" data-name="Path 42366" d="M273.547,321.284c-.681,8.227-6,26.149-9.714,29.207-2.4,1.967-12.662,4.151-18.042,4.159-2.207,0-3.846-15.12-.522-15.336,5.711-.371,9.753-.892,11.274-1.678,1.185-.613,4.159-6.317,12.216-17.186C271.734,316.4,273.923,316.663,273.547,321.284Z" transform="translate(-221.595 -290.999)" fill="#ffc4c0"/>
        <path id="Path_42367" data-name="Path 42367" d="M186.985,408.82a47.316,47.316,0,0,1-6.578,1.2c-1.748.107-6.784.282-7.094-1.628-.211-1.3,2.74-1.756,4.816-2.121,1.1-.193,2.565-.963,2.416-1.675-.261-1.239-3.1-.689-5.012-.084-3.708,1.169-8.845,3.619-10.473,1.505-.616-.8.522-1.746,2.059-2.58-2.382.84-4.848,1.414-5.565.553a1.126,1.126,0,0,1,.091-1.547,1.523,1.523,0,0,1-1.565-.613c-.522-.861.047-1.826,1.031-2.742a.835.835,0,0,1-.522-.543c-.937-2.513,7.673-7.188,10.283-7.217a56.613,56.613,0,0,1,15.344,2.283C188.572,396.555,186.99,408.815,186.985,408.82Z" transform="translate(-159.882 -345.489)" fill="#ffc4c0"/>
        <path id="Path_42368" data-name="Path 42368" d="M197.505,423.224a12.746,12.746,0,0,0-5.3.783,36.055,36.055,0,0,0-5.563,3.058.044.044,0,0,0,.044.076c.895-.522,4.545-2.408,5.479-2.815a12.133,12.133,0,0,1,5.346-1.072C197.526,423.258,197.526,423.226,197.505,423.224Z" transform="translate(-179.649 -369.042)" fill="#263238"/>
        <path id="Path_42369" data-name="Path 42369" d="M182.3,410.23a30.5,30.5,0,0,0-6.118.694,19.9,19.9,0,0,0-5.923,3.061q-1.667,1.1-3.288,2.278c-.044.034,0,.11.044.078q2.828-1.907,5.771-3.64a16,16,0,0,1,5.92-2.1c1.195-.172,2.4-.261,3.6-.334C182.317,410.267,182.32,410.23,182.3,410.23Z" transform="translate(-165.106 -359.458)" fill="#263238"/>
        <path id="Path_42370" data-name="Path 42370" d="M178.987,398.015a15.553,15.553,0,0,0-5.537.558,27.233,27.233,0,0,0-6.019,3.217c-1.018.689-2.009,1.414-2.99,2.153-.039.031.013.1.055.07a63.669,63.669,0,0,1,6.964-4.365,12.7,12.7,0,0,1,3.653-1.357,22.69,22.69,0,0,1,3.877-.261Z" transform="translate(-163.241 -350.418)" fill="#263238"/>
        <path id="Path_42371" data-name="Path 42371" d="M318.694,337.959,308.38,327.851s6.142-8.72,10.285-12.524c2.322-2.137,4.01-.36,4,2.492C322.615,327.8,318.694,337.959,318.694,337.959Z" transform="translate(-269.635 -288.619)" fill="#077dbb"/>
        <path id="Path_42372" data-name="Path 42372" d="M318.694,337.959,308.38,327.851s6.142-8.72,10.285-12.524c2.322-2.137,4.01-.36,4,2.492C322.615,327.8,318.694,337.959,318.694,337.959Z" transform="translate(-269.635 -288.619)" fill="#077dbb"/>
        <path id="Path_42373" data-name="Path 42373" d="M319.354,324.4a9.359,9.359,0,0,1,.911-.8c-.209.17-.41.352-.611.522Zm3.254-4.529c-.219-.1-.449-.183-.684-.261v.05a.034.034,0,0,1,0,.016.577.577,0,0,1,.013.065c.029.162.057.321.083.483a11.652,11.652,0,0,0,.4,1.871h0q-.037.358-.078.712a6.38,6.38,0,0,1-.569-1.952,21.04,21.04,0,0,1-1.944,7.793.128.128,0,0,1,.026.05,6.038,6.038,0,0,1-2.424,6.948.285.285,0,0,1-.021.081c-.021.073-.128.039-.123-.031.2-2.463-.425-5.3,2.126-6.625a38.437,38.437,0,0,0,1.362-4.678,8.476,8.476,0,0,1-5.27,4.5.086.086,0,0,1-.157,0,.047.047,0,0,1,0-.044h0a8.764,8.764,0,0,1,2.327-4.832,3.95,3.95,0,0,1,3.392-1.078,24.8,24.8,0,0,0,.029-8.425c-3.421,4.282-5.612,9.325-7.9,14.288v.029a15.59,15.59,0,0,1,.146,3.914l-.344-.337a12.891,12.891,0,0,0-.073-3.168,20.889,20.889,0,0,1-.35,2.753l-.065-.065a25.389,25.389,0,0,0,.342-2.622c-.344.658-.673,1.32-.984,1.993l-.023-.021c.326-.678.665-1.349,1.012-2.017l.016-.13c-.076.1-.151.2-.23.295q-.543.814-.994,1.659l-.065-.063c.222-.4.459-.8.71-1.19-.3.337-.611.66-.9,1l-.3-.3a14.919,14.919,0,0,1,1.826-1.761.059.059,0,0,0,0-.021.029.029,0,0,1,.044-.018l.162-.141q.65-1.839,1.419-3.653a11.682,11.682,0,0,1-2.841,2.5,11.216,11.216,0,0,1-2.943.8l-.2-.193a11.779,11.779,0,0,0,2.609-.757,13.121,13.121,0,0,0,3.288-2.567,14.631,14.631,0,0,1-1.863,1.3v-.013c.671-.451,1.3-.937,1.928-1.451a27.148,27.148,0,0,0-3.875,1.385,15.652,15.652,0,0,0-1.565.934l.078-.107a14.406,14.406,0,0,1,1.464-.892,19.621,19.621,0,0,1,4.01-1.412,6.784,6.784,0,0,0-3.963.746,6.986,6.986,0,0,0-.7.451l.117-.157h0a5.86,5.86,0,0,1,.806-.462,6.567,6.567,0,0,1,3.752-.59l.065-.055a4.947,4.947,0,0,0-4.229.561c.162-.219.337-.451.522-.689a3.83,3.83,0,0,1,3.8.057h0a44.707,44.707,0,0,1,5.9-9.946,1.506,1.506,0,0,1,.723.237,26.213,26.213,0,0,1,.4,4.55c.013.057.023.117.037.175a3.714,3.714,0,0,1,.751.117C322.623,319.61,322.615,319.741,322.607,319.869Zm-2.961,9.333v-.037l-.052.037h-.016a.972.972,0,0,0-.123.089.259.259,0,0,0-.047.034,4.269,4.269,0,0,0-1.727,3.514c-.013.36,0,.718-.021,1.07a7.122,7.122,0,0,1-.151,1.5h0c.783-.984,1.712-1.709,2.087-2.98A6.864,6.864,0,0,0,319.646,329.2Zm-3.982-.738c.694-1.3,1.088-2.758,2.194-3.82a5.419,5.419,0,0,1,2.513-1.38,3.863,3.863,0,0,0-3.267,2A13.766,13.766,0,0,0,315.664,328.463Zm0,.125a18.321,18.321,0,0,1,2.453-3.021c.4-.407.814-.783,1.239-1.169-.42.41-.811.845-1.185,1.226a23.9,23.9,0,0,0-2.348,2.823,31.326,31.326,0,0,0,2.787-2.239,20.14,20.14,0,0,0,2.27-2.974h-.068a5.482,5.482,0,0,0-.545.363,4.844,4.844,0,0,1,.475-.35,5.55,5.55,0,0,0-3.021,1.641c-1.01,1.072-1.357,2.5-2.087,3.734Zm5.32-5.357h-.047a21.516,21.516,0,0,1-2.2,2.954,17.425,17.425,0,0,1-2.982,2.364l-.039.055a19.844,19.844,0,0,0,2.792-1.652,11.066,11.066,0,0,0,2.471-3.721Zm-8.712,3.016a12.668,12.668,0,0,1-3.781,1.719l-.1-.1h0a13.339,13.339,0,0,0,3.872-1.615Zm7.415,2.87-.039.089c-.029.06-.057.12-.083.183a9.93,9.93,0,0,1-.459,2.987,14.369,14.369,0,0,1-1.592,2.974.6.6,0,0,1-.016.073.375.375,0,0,1,0,.057c0,.018-.031.013-.029,0a.51.51,0,0,0,0-.063.024.024,0,0,1-.029-.026.016.016,0,0,1,0-.018c.018-.068.042-.136.06-.206.042-.412.091-.824.157-1.234a10.315,10.315,0,0,1,1.748-4.584c.055-.081.115-.159.177-.237v-.167h.013v.151c.047-.06.091-.12.141-.18h.016c-.055.065-.107.133-.159.2v.112l.016-.029c.021-.037.042-.076.063-.11s.023,0,.013.023Zm-.138.3c-.811,1.826-1.3,3.747-1.973,5.623a.688.688,0,0,1-.031.159,17.225,17.225,0,0,0,1.5-2.847,10.09,10.09,0,0,0,.5-2.927Zm.013-.2v-.086c-.044.057-.089.117-.128.175a7.694,7.694,0,0,0-1.325,2.724c-.211.843-.31,1.706-.454,2.56.261-.877.564-1.748.851-2.622a14.947,14.947,0,0,1,1.044-2.727.083.083,0,0,0,.01-.029Zm2.374-9.552h-.021a.036.036,0,0,1,0,.016l.029.06q.277.595.595,1.164a.661.661,0,0,0,0,.07c-.2-.363-.381-.728-.553-1.1.164.488.331.981.522,1.466h0l-.016.185a12.4,12.4,0,0,1-.459-1.3c-.06-.193-.112-.386-.159-.577l-.172-.073h0l.17.068v-.026c0-.029-.023-.055-.034-.081s0-.016.013,0h0s.018-.016.021,0,.034.094.05.141h.023a6.2,6.2,0,0,1,.671.337.128.128,0,0,1,0,.031,5.362,5.362,0,0,0-.681-.381Z" transform="translate(-269.642 -288.632)" opacity="0.1"/>
        <path id="Path_42374" data-name="Path 42374" d="M312.18,331.154l9.322,9.132s3.914-10.157,3.968-20.137a4.793,4.793,0,0,0-.642-2.609Z" transform="translate(-272.444 -290.952)" opacity="0.1"/>
        <path id="Path_42375" data-name="Path 42375" d="M315.58,361.126a95.1,95.1,0,0,1,8.871,8.4c.016.018-.044.083-.063.07-2.547-2.153-7.306-6.8-8.9-8.37C315.46,361.2,315.549,361.087,315.58,361.126Z" transform="translate(-274.886 -323.16)" fill="#263238"/>
        <path id="Path_42376" data-name="Path 42376" d="M351.63,350.028l-35.484-.091,2.147-13.364s-3.068-3.728-2.489-7.775c.637-4.436,8.61-15.655,9.291-16.3,2.708-2.539,5.542-3.217,8.117-1.886C342.065,315.178,351.63,350.028,351.63,350.028Z" transform="translate(-275.068 -285.339)" fill="#077dbb"/>
        <path id="Path_42377" data-name="Path 42377" d="M338.508,337.175a9.511,9.511,0,0,1,.089,1.208c0-.261-.037-.537-.057-.8Zm2.526,15.994H340.6a5.1,5.1,0,0,0-.556-.35,5.82,5.82,0,0,0-3.572-.41h0l-.235.013.141.149v.016c.183.2.35.389.522.571h-.373a2.845,2.845,0,0,1-.522-.924,6.061,6.061,0,0,1,3.812.185A5.663,5.663,0,0,1,341.033,353.169Zm1.065,0h-.4a18.279,18.279,0,0,1-.931-2.651h-.023a5.627,5.627,0,0,1-2.943-2.348c-.564-1.161-.35-2.818-.219-4.068a.065.065,0,0,1,.065-.063.06.06,0,0,1,.052.026c1.954,1.641,3.588,3.462,3.175,6.108a19.436,19.436,0,0,0,1.229,3Zm-1.5-2.993.078.037a.07.07,0,0,1,0-.063.089.089,0,0,1,.039-.037,5.324,5.324,0,0,0-1-3.548c-.569-.725-1.19-1.417-1.826-2.087l-.1-.1-.052-.057-.016-.016-.023-.026v.031a.2.2,0,0,1,0,.039,14.265,14.265,0,0,0,.261,3.272A4.426,4.426,0,0,0,340.6,350.176Zm1.641-23.542a12.123,12.123,0,0,0-.944,3.783h0a12.135,12.135,0,0,1,.866-3.953,1.128,1.128,0,0,1,.078.159Zm7.647,20.565c-.282.089-.566.164-.848.232h-.016a13.549,13.549,0,0,1-2.348,5.357,3.56,3.56,0,0,1-.016.4H346.2a27.994,27.994,0,0,0-.444-6.87c-.091-.475-.2-.944-.31-1.412a.164.164,0,0,1-.076-.016,26.492,26.492,0,0,1-4.2-2.586l-.162-.078c-2.061,2.421-5.218.843-7.5-.339h0a.12.12,0,0,1,0-.224h.018l.037-.016c1.357-.582,2.583-1.341,4.115-1.14a6.184,6.184,0,0,1,2.207.783,21.071,21.071,0,0,1-5.041-6.249.138.138,0,0,1-.055,0,6.038,6.038,0,0,1-4.089-6.118l-.052-.065c-.044-.063.047-.128.1-.081,1.847,1.644,4.488,2.849,4.008,5.688a38.94,38.94,0,0,0,2.917,3.914,8.461,8.461,0,0,1-.423-6.919.086.086,0,0,1,.091-.125.063.063,0,0,1,.044.016h0a8.743,8.743,0,0,1,2.45,4.759,3.971,3.971,0,0,1-1.187,3.366,24.808,24.808,0,0,0,6.711,5.1c-1.359-5.31-4.07-10.092-6.659-14.9a.033.033,0,0,1-.026-.013c-1.208-.822-2.82-1.44-3.593-2.763-.835-1.432-.707-3.415-.7-5.01,0,0,.076-.044.078-.026A12.855,12.855,0,0,1,338,325.418a9.115,9.115,0,0,1,.9,4.052l.016.016a.029.029,0,0,1,0,.047,1.147,1.147,0,0,0,.013.211q1.08,1.628,2.059,3.332a11.678,11.678,0,0,1-.287-3.775,12.8,12.8,0,0,1,1.3-3.175l.117.261a11.836,11.836,0,0,0-.991,2.583,13.219,13.219,0,0,0,.07,4.175,14.775,14.775,0,0,1,.073-2.28h.016a23.261,23.261,0,0,0,0,2.413,27.377,27.377,0,0,0,1.229-3.927,15.415,15.415,0,0,0,.193-1.675l.039.089a13.087,13.087,0,0,1-.162,1.6,19.553,19.553,0,0,1-1.289,4.055,6.784,6.784,0,0,0,1.792-3.614,6.638,6.638,0,0,0,.055-1.138c.023.055.05.112.073.17a6.33,6.33,0,0,1-.128,1.252,6.583,6.583,0,0,1-1.8,3.358v.083a4.9,4.9,0,0,0,2.106-4.263c.1.227.193.451.287.681a3.864,3.864,0,0,1-2.387,3.7h0c3.272,5.85,5.479,12.284,5.4,18.786a23.771,23.771,0,0,0,2.28-8.088c.128.386.261.764.368,1.132q-.078.767-.219,1.524c.117-.4.219-.783.329-1.179.034.1.065.209.1.31-.089.274-.183.545-.292.817v.013c-.031.081-.065.159-.1.237l.037-.013c.214-.068.423-.136.629-.211a1.446,1.446,0,0,0,.06.219Zm-15.2-25.1a18.464,18.464,0,0,1,3.726,6.2,9.233,9.233,0,0,0-.869-2.985,13.255,13.255,0,0,0-2.857-3.225Zm3.817,7.06a12.671,12.671,0,0,1-2.745-3.032,16.819,16.819,0,0,1-1.292-4.175,13.384,13.384,0,0,0,.968,4.681c.66,1.164,1.967,1.792,3.068,2.515Zm-2.737-3.173a12.317,12.317,0,0,0,2.729,3.074,66.723,66.723,0,0,0-3.966-7.032,20.089,20.089,0,0,0,1.237,3.948Zm2.857,3.194c-.034-.117-.068-.237-.1-.357a20.936,20.936,0,0,0-3.854-6.627,52.139,52.139,0,0,1,3.856,6.9Zm-4.128,5.344.034.016a.511.511,0,0,0,0-.063.053.053,0,0,0,0-.018v-.013a1.389,1.389,0,0,0,0-.146.486.486,0,0,0,0-.06,4.28,4.28,0,0,0-1.766-3.5c-.284-.23-.571-.444-.848-.663a7.427,7.427,0,0,1-1.093-1.031h0c.321,1.213.337,2.4,1.125,3.454A6.9,6.9,0,0,0,334.495,334.521Zm2.987-2.737c.631,1.346,1.547,2.531,1.727,4.055a5.388,5.388,0,0,1-.4,2.833,3.864,3.864,0,0,0,.373-3.809,14.015,14.015,0,0,0-1.7-3.081Zm1,7.36a21.471,21.471,0,0,1-1.044-3.533,17.511,17.511,0,0,1-.094-3.807.284.284,0,0,0-.018-.063,19.951,19.951,0,0,0-.363,3.222,11.008,11.008,0,0,0,1.482,4.216Zm.1-.17a5.56,5.56,0,0,0,.509-3.392c-.248-1.453-1.177-2.591-1.717-3.914v.055a18.485,18.485,0,0,1,.937,3.778c.084.561.138,1.125.188,1.691-.078-.579-.188-1.156-.261-1.683a24.138,24.138,0,0,0-.848-3.6,30.3,30.3,0,0,0,.11,3.574,20.2,20.2,0,0,0,1.007,3.6l.044-.063a5.424,5.424,0,0,0,.039-.655,4.94,4.94,0,0,1-.008.6Zm2.2,3.144-.047-.023h-.013l-.055-.029c-.143-.07-.284-.144-.423-.217a7.8,7.8,0,0,0-2.646-1.018,6.13,6.13,0,0,0-3.131.728h0c-.188.073-.376.146-.569.211l.029.016.047.023.613.331a7.351,7.351,0,0,0,2.87,1.044,5.129,5.129,0,0,0,3.324-1.07Zm-6.043-7.493h0l-.115-.1c.018.076.039.149.057.222,0,0-.016.018-.018,0-.018-.083-.039-.167-.063-.248l-.068-.06-.016-.013.013.031a1.081,1.081,0,0,1,.05.115c0,.026-.026.039-.039.016l-.047-.083-.094-.177a9.833,9.833,0,0,1-2.111-2.166,14.484,14.484,0,0,1-1.417-3.06l-.05-.057L330.79,329c0-.013,0-.031.021-.021l.047.044a.023.023,0,0,1,.039,0h.018l.125.172q.457.42.89.866a10.236,10.236,0,0,1,2.609,4.175c.031.091.057.185.081.279Zm-.363-.313c-.96-1.74-2.2-3.3-3.3-4.957l-.11-.12a17.2,17.2,0,0,0,1.372,2.907,10.138,10.138,0,0,0,2.038,2.168Zm.214.185c-.018-.068-.037-.133-.06-.2a7.7,7.7,0,0,0-1.383-2.711c-.545-.678-1.174-1.276-1.769-1.907.537.744,1.044,1.505,1.581,2.257a15.161,15.161,0,0,1,1.542,2.484l.026.023Zm6.319,7.611c.013,0,0,.023,0,.021l-.143-.047h-.023a5.927,5.927,0,0,1-3.259.8,6.71,6.71,0,0,1-1.8-.363c-.35-.117-.741-.237-1.1-.394a3.212,3.212,0,0,1-.613-.331l-.042-.026h0l-.279.089c-.034,0-.052-.042-.018-.052l.19-.063a.018.018,0,0,1,.013,0h.008l-.039-.029h0l.06.031c.185-.06.373-.12.564-.175h0a8.433,8.433,0,0,1,2.753-.415,10.161,10.161,0,0,1,3.032.7c.183.065.363.138.537.211l.164-.094h0l-.157.094.026.013.086.018v.018ZM334.2,341.7a19.046,19.046,0,0,1,6.34.31,12.408,12.408,0,0,0-3.324-.783,8.871,8.871,0,0,0-3.016.47Zm6.549.381h-.016l-.06-.013a21.657,21.657,0,0,0-6.679-.3h-.029a6.97,6.97,0,0,0,6.763.321Zm.086,8.287-.141-.12v.154a.026.026,0,0,1-.05,0,1.95,1.95,0,0,0-.023-.211h0a.252.252,0,0,1,0,.034s-.013.016-.016,0l-.016-.052h0a8.229,8.229,0,0,1-2.087-2.434,9.3,9.3,0,0,1-.77-3.363l-.029-.034a.512.512,0,0,1-.034-.042c-.01-.016,0-.023.018-.016l.013.018.026.029a.147.147,0,0,0,0-.034h0v.057l.089.1-.042-.076-.068-.128h.013c.052.081.1.162.154.243.024.034.044.07.068.107a9.541,9.541,0,0,1,2.711,5.57v.039l.17.154c.055-.01.031.021.013,0Zm-.209-.24a9.468,9.468,0,0,0-.866-2.969,11.462,11.462,0,0,0-1.654-2.364c.386.65.72,1.325,1.057,2.006h0c-.381-.754-.814-1.482-1.224-2.22-.052-.065-.107-.128-.159-.19a12.558,12.558,0,0,0,.731,3.131,7.681,7.681,0,0,0,2.074,2.567,14.2,14.2,0,0,0-1.044-2.5h0a12.631,12.631,0,0,1,1.057,2.52Zm-.472,3.045h-.2a5.545,5.545,0,0,0-.548-.214,10.716,10.716,0,0,0-2.5-.428,20.172,20.172,0,0,1,2.223.642h-.376c-.744-.261-1.5-.475-2.278-.676h-.151a10.227,10.227,0,0,0,.856.684h-.112c-.24-.183-.47-.373-.686-.574v-.016l-.107-.1h-.083c-.037,0-.037-.042-.013-.06a.021.021,0,0,1,0-.031l-.044-.047a.014.014,0,1,1,.018-.021l.081.073.123.023h.125a11.106,11.106,0,0,1,2.972.464,5.334,5.334,0,0,1,.7.277Zm9.635-6.291a4.636,4.636,0,0,1-.587.214l-.026.044a.336.336,0,0,1-.023.042c-.018.029-.068,0-.05-.023l.023-.042-.065.018-.042.034c-.016,0-.029,0-.031-.016-.094.023-.188.047-.282.063s-.065-.078,0-.089c.143-.026.287-.063.428-.1l.1-.089a.092.092,0,0,1,.013-.021s0,0,0-.013c.12-.217.235-.436.347-.655l.031.1c-.086.159-.172.316-.261.47l.318-.287a.3.3,0,0,0,.021.068c-.138.125-.277.243-.417.357l-.016.026a4.389,4.389,0,0,0,.491-.2.338.338,0,0,0,.026.091Zm-24.667-22.872c.2-.177.4-.36.611-.522a9.363,9.363,0,0,0-.911.8Zm-6.439,4.7c.068,1.461.548,3.131-.044,4.532a7.076,7.076,0,0,1-2.364,2.669c-.029-.083-.055-.172-.081-.261a8.958,8.958,0,0,0,2.048-2.567c.543-1.234.261-2.656.17-3.971a12.366,12.366,0,0,1-.764,4.015,11.111,11.111,0,0,1-1.519,2.306.485.485,0,0,0-.026-.1,11.274,11.274,0,0,0,1.425-2.129,12.283,12.283,0,0,0,.811-4.031,58.085,58.085,0,0,0-2.424,5.351l-.023-.128c.72-1.792,1.565-3.535,2.453-5.255l.016-.13c-.076.1-.151.2-.23.295a19.7,19.7,0,0,0-2.3,4.683,2.728,2.728,0,0,0-.031-.29,19.375,19.375,0,0,1,1.978-3.987,9.232,9.232,0,0,0-1.86,2.492c-.047.11-.089.217-.13.326a4.013,4.013,0,0,1,.057-.553,7.156,7.156,0,0,1,.154-.736,10.683,10.683,0,0,1,2.4-2.583.058.058,0,0,0,0-.021.029.029,0,0,1,.044-.018l.162-.141q.65-1.839,1.419-3.653a16.122,16.122,0,0,1-2.179,2.087c.136-.261.279-.522.423-.783.59-.472,1.148-1.01,1.665-1.511a14.433,14.433,0,0,1-1.391,1.023l.05-.091c.48-.342.944-.7,1.4-1.08-.316.107-.634.206-.952.308.023-.044.05-.086.076-.13.329-.094.658-.183.981-.261-.261-.023-.537-.036-.8-.034l.026-.044a5.531,5.531,0,0,1,.8.065l.065-.055a7.414,7.414,0,0,0-.783-.157c.044-.073.086-.149.133-.222a5.349,5.349,0,0,1,.736.308h0a46.568,46.568,0,0,1,4.8-8.511.935.935,0,0,1,.068-.07,12.389,12.389,0,0,1,1.218-1.012c-3.3,4.214-5.445,9.171-7.681,14.024Zm12.727-3.131h-.018a.086.086,0,0,1-.034-.018c-1.281-.733-2.627-1.255-3.392-2.609a6.154,6.154,0,0,1-.712-2.226,21.04,21.04,0,0,1-1.952,7.8.127.127,0,0,1,.026.05,6.038,6.038,0,0,1-2.424,6.948.284.284,0,0,1-.021.081c-.021.073-.128.039-.123-.031.2-2.463-.425-5.3,2.126-6.625a38.443,38.443,0,0,0,1.362-4.678,8.476,8.476,0,0,1-5.27,4.5.086.086,0,0,1-.157,0,.047.047,0,0,1,0-.044h0a8.764,8.764,0,0,1,2.327-4.832,3.949,3.949,0,0,1,3.392-1.078,24.836,24.836,0,0,0,.047-8.318c.094-.068.19-.13.287-.19a26.268,26.268,0,0,1,.438,4.756c.013.057.023.117.037.175,3.175.19,3.812,3.653,4.24,6.191v.016a.117.117,0,0,1-.18.136Zm-6.3,3.5v-.037l-.052.037h-.016a.969.969,0,0,0-.123.089.261.261,0,0,0-.047.034,4.269,4.269,0,0,0-1.727,3.514c-.013.36,0,.718-.021,1.07a7.123,7.123,0,0,1-.151,1.5h0c.783-.984,1.712-1.709,2.087-2.98a6.865,6.865,0,0,0,.05-3.22Zm-3.982-.738c.694-1.3,1.088-2.758,2.194-3.82a5.418,5.418,0,0,1,2.513-1.38,3.863,3.863,0,0,0-3.267,2,13.969,13.969,0,0,0-1.44,3.212Zm0,.125a18.322,18.322,0,0,1,2.453-3.021c.4-.407.814-.783,1.239-1.169-.42.41-.811.845-1.185,1.226a23.9,23.9,0,0,0-2.348,2.823,31.322,31.322,0,0,0,2.787-2.239,20.137,20.137,0,0,0,2.27-2.974h-.068a5.477,5.477,0,0,0-.545.363,4.831,4.831,0,0,1,.475-.35,5.55,5.55,0,0,0-3.021,1.641c-1.01,1.072-1.357,2.5-2.087,3.734Zm5.32-5.357h-.047a21.512,21.512,0,0,1-2.2,2.954,17.423,17.423,0,0,1-2.982,2.364l-.039.055a19.848,19.848,0,0,0,2.792-1.652,10.957,10.957,0,0,0,2.471-3.713Zm4.323,1.777c.164.1.329.2.488.31v-.057c-.042-.248-.078-.5-.115-.749a7.251,7.251,0,0,0-.882-2.87,5.087,5.087,0,0,0-2.87-2.033v.05a.035.035,0,0,1,0,.016.579.579,0,0,1,.013.065c.029.162.057.321.083.483a7.635,7.635,0,0,0,.783,2.706,6.224,6.224,0,0,0,2.5,2.087Zm3.256-6.664c-.592,1.164-2.038,1.975-3.118,2.625a.063.063,0,0,1-.1-.052.058.058,0,0,1,0-.021c.13-2.549.6-4.957,2.964-6.212l.224-.321c.057.037.115.078.172.123l-.06.078a.2.2,0,0,1,0,.023,5.6,5.6,0,0,1-.086,3.765Zm-.1-3.441a.481.481,0,0,0-.018-.083.073.073,0,0,1-.05.031.094.094,0,0,1-.06,0,5.314,5.314,0,0,0-2.228,2.935c-.24.89-.417,1.806-.579,2.716l-.023.141a.7.7,0,0,0-.013.073v.021a.158.158,0,0,1,0,.034l.026-.021.029-.023a15.3,15.3,0,0,0,2.46-2.171,4.411,4.411,0,0,0,.454-3.645Zm-8.78,14.209-.039.089c-.029.06-.057.12-.083.183a9.931,9.931,0,0,1-.459,2.987,14.369,14.369,0,0,1-1.592,2.974.6.6,0,0,1-.016.073.376.376,0,0,1,0,.057c0,.018-.031.013-.029,0a.51.51,0,0,0,0-.063.023.023,0,0,1-.029-.026.016.016,0,0,1,0-.018c.018-.068.042-.136.06-.206.042-.412.091-.824.157-1.234a10.315,10.315,0,0,1,1.748-4.584c.055-.081.115-.159.177-.237v-.167h.013v.151c.047-.06.091-.12.141-.18h.016c-.055.065-.107.133-.159.2v.112l.016-.029c.021-.036.042-.076.063-.11s.023.013.013.037Zm-.138.3c-.811,1.826-1.3,3.747-1.972,5.623a.689.689,0,0,1-.031.159,17.219,17.219,0,0,0,1.5-2.847,10.088,10.088,0,0,0,.5-2.914Zm.013-.2V329c-.044.057-.089.117-.128.175a7.694,7.694,0,0,0-1.325,2.737c-.211.843-.31,1.706-.454,2.56.261-.877.564-1.748.851-2.622a14.949,14.949,0,0,1,1.044-2.727.083.083,0,0,0,.01-.029Zm6.437-3.7-.167-.115h-.013l-.023-.023h0v.05h-.013v-.065c-.154-.107-.308-.217-.459-.329a8.535,8.535,0,0,1-2.014-1.967,10.129,10.129,0,0,1-1.26-2.826c-.06-.193-.112-.386-.159-.577l-.172-.073h0l.17.068v-.026c0-.029-.023-.055-.034-.081s0-.016.013,0h0s.018-.016.021,0,.034.094.05.141h.023a5.97,5.97,0,0,1,2.609,2.121,6.724,6.724,0,0,1,.783,1.657c.112.339.248.71.344,1.083a3.621,3.621,0,0,1,.115.749v.023h0l.24.167C331.528,325.35,331.5,325.389,331.468,325.389Zm-4.052-5.769a21.514,21.514,0,0,0,3.781,5.508l.023.018a6.987,6.987,0,0,0-3.817-5.594h-.021a.037.037,0,0,1,0,.016Zm3.606,5.385a19.085,19.085,0,0,1-3.569-5.252,12.852,12.852,0,0,0,1.367,3.131,8.871,8.871,0,0,0,2.2,2.108Zm2.909-10.254v.016l.018-.029h.016l-.031.042h0a8.126,8.126,0,0,1-.691,3.131,9.38,9.38,0,0,1-2.22,2.64v.044a.466.466,0,0,0,0,.052H331a.078.078,0,0,1,0-.023.179.179,0,0,1,0-.037l-.026.023h0l.016-.016a.245.245,0,0,1,.026-.026l.023-.13-.037.084c-.021.042-.039.086-.06.128s-.018,0-.016,0c.031-.089.065-.175.1-.261l.047-.125a9.548,9.548,0,0,1,2.82-5.518l.023-.023a.847.847,0,0,1,.021-.23.021.021,0,0,1,.039,0,.91.91,0,0,1-.013.188l.115-.1c.026-.021.06.018.037.039Zm-.05.047a9.393,9.393,0,0,0-1.85,2.481,11.512,11.512,0,0,0-.892,2.742c.287-.7.629-1.372.968-2.051h0c-.376.759-.694,1.542-1.044,2.314-.018.081-.039.162-.057.243a12.17,12.17,0,0,0,2.051-2.463,7.711,7.711,0,0,0,.8-3.2,14.118,14.118,0,0,0-1.37,2.333h0a12.689,12.689,0,0,1,1.375-2.348.431.431,0,0,0,.016-.063Zm-14.812,35.45c-.2.183-.394.365-.6.54a9.7,9.7,0,0,0,.9-.814Zm-2.163,2.87h-.36a6.93,6.93,0,0,0-.23-.783l.1-.642a5.962,5.962,0,0,1,.485,1.412Zm6.4-7.642h0a8.732,8.732,0,0,1-2.244,4.858,3.981,3.981,0,0,1-3.392,1.135c-.083.548-.151,1.093-.2,1.644h-.451a20.809,20.809,0,0,1,1.8-7.373.149.149,0,0,1-.026-.05,6.042,6.042,0,0,1,2.306-6.99.337.337,0,0,1,.021-.081c.018-.07.128-.039.123.029-.159,2.468.522,5.294-2.017,6.661a38.432,38.432,0,0,0-1.281,4.7,8.407,8.407,0,0,1,5.192-4.589.086.086,0,0,1,.157,0,.057.057,0,0,1,.013.047Zm-4.31-.282v.034l.052-.039h.016a1.465,1.465,0,0,0,.125-.094.162.162,0,0,0,.05-.037,4.273,4.273,0,0,0,1.665-3.538v-1.08a7.135,7.135,0,0,1,.125-1.485h0c-.759,1-1.683,1.738-2.033,3.014a6.917,6.917,0,0,0,0,3.212Zm-1.19,5.985a21.675,21.675,0,0,1,2.15-2.987,17.479,17.479,0,0,1,2.935-2.429.629.629,0,0,1,.037-.052,19.781,19.781,0,0,0-2.763,1.7,11.088,11.088,0,0,0-2.413,3.762Zm5.187-5.317c-.673,1.328-1.044,2.776-2.134,3.856a5.39,5.39,0,0,1-2.489,1.422,3.861,3.861,0,0,0,3.233-2.051,14.14,14.14,0,0,0,1.391-3.241Zm.039-.162-.042.037a18.425,18.425,0,0,1-2.4,3.063c-.389.412-.8.8-1.216,1.187.41-.417.8-.856,1.161-1.247a23.881,23.881,0,0,0,2.293-2.87,31.963,31.963,0,0,0-2.747,2.286,19.916,19.916,0,0,0-2.22,3.011h.076a5.588,5.588,0,0,0,.543-.373,5.218,5.218,0,0,1-.472.357,5.56,5.56,0,0,0,3-1.691c.989-1.093,1.312-2.526,2.033-3.773Zm8.563.037h0c-.021.026-.091.128-.1.133-1.97,2.567-3.914,5.844-7.566,4.083h0c-.451,1.072-.934,2.129-1.456,3.167h-.5c1.26-2.5,2.364-5.085,3.494-7.65a.077.077,0,0,1,0-.029c-.094-1.458-.6-3.11-.031-4.532.616-1.539,2.259-2.659,3.522-3.632,0,0,.081.034.068.047a12.759,12.759,0,0,1-.637,4.957,9.114,9.114,0,0,1-2.64,3.2.05.05,0,0,0,0,.021.029.029,0,0,1-.044.018l-.159.143q-.618,1.853-1.359,3.671a11.711,11.711,0,0,1,2.8-2.549,17.409,17.409,0,0,1,4.639-1.1c.01.01-.013.026-.029.034Zm-5.617-.882a20.855,20.855,0,0,0,2.852-7.115,51.622,51.622,0,0,1-3.068,7.269v.13c.065-.1.141-.2.217-.3Zm2.9-7.332a20.945,20.945,0,0,0-2.361,3.413,12.406,12.406,0,0,0-.751,4.021,66.71,66.71,0,0,0,3.113-7.446Zm.042.17a18.494,18.494,0,0,1-2.6,6.742,9.464,9.464,0,0,0,1.826-2.523,13.736,13.736,0,0,0,.77-4.232Zm-3.217,7.353a12.357,12.357,0,0,1,.7-4.028,17.03,17.03,0,0,1,2.5-3.59,13.258,13.258,0,0,0-3.092,3.653c-.522,1.221-.214,2.64-.1,3.953Zm4.321,2.434a7.929,7.929,0,0,1-2.2,1.7,6.567,6.567,0,0,1-3.755.652l-.063.052a4.9,4.9,0,0,0,4.84-1.122,11.919,11.919,0,0,0,1.179-1.294Zm.838-1.044c-.339.282-.71.535-1.062.783a15.66,15.66,0,0,1-1.717,1.109,19.735,19.735,0,0,1-3.989,1.477,6.763,6.763,0,0,0,3.95-.811,12.2,12.2,0,0,0,2.818-2.567Zm.522-.613a25.971,25.971,0,0,0-3.877,1.125,13.1,13.1,0,0,0-3.246,2.622,15,15,0,0,1,1.842-1.346h0c-.663.464-1.289.96-1.9,1.482a25.491,25.491,0,0,0,3.851-1.448,14.155,14.155,0,0,0,3.162-2.278c-1.618.665-3.329.952-4.78,2.027h0a16.043,16.043,0,0,1,4.905-2.15Zm-10.256-6.839c-.018.07-.039.138-.057.209-.031.407-.076.814-.133,1.218a10.325,10.325,0,0,1-1.665,4.618c-.057.083-.117.164-.18.245v.167h0v-.151c-.047.06-.091.123-.141.183h-.016c.055-.065.107-.133.157-.2v-.112l-.016.029-.06.112c-.013.023-.047,0-.037-.023a.8.8,0,0,0,.037-.083c.029-.063.057-.125.083-.188a9.955,9.955,0,0,1,.407-3,14.5,14.5,0,0,1,1.542-3,.6.6,0,0,1,.016-.073.368.368,0,0,1,0-.057c0-.018.029-.013.029,0a.5.5,0,0,0,0,.063.023.023,0,0,1,.029.026l0,.005Zm-.214.783c-.261.882-.537,1.759-.809,2.635a14.946,14.946,0,0,1-1.007,2.742v.12c.044-.06.089-.12.128-.18a7.713,7.713,0,0,0,1.278-2.75c.185-.866.271-1.732.4-2.6Zm.07-.438a.878.878,0,0,1,.029-.162,17.13,17.13,0,0,0-1.448,2.87,10.035,10.035,0,0,0-.467,2.92c.78-1.826,1.247-3.765,1.879-5.649Zm-4.61,13.774h-.094c-.016-.047-.037-.091-.055-.138l.023-.157C316.286,352.908,316.327,353,316.367,353.1Z" transform="translate(-275.112 -288.506)" opacity="0.1"/>
        <path id="Path_42378" data-name="Path 42378" d="M348.867,408.088a32.679,32.679,0,0,1,4.712.783c.767.2,1.521.431,2.273.678.376.123.754.235,1.132.342a5.06,5.06,0,0,0,1.213.23.029.029,0,1,1,0,.057,8.734,8.734,0,0,1-1.169-.021,8.471,8.471,0,0,1-1.114-.211c-.783-.193-1.565-.42-2.33-.621-1.565-.4-3.131-.809-4.736-1.1a.07.07,0,0,1,.018-.138Z" transform="translate(-299.5 -357.875)" fill="#263238"/>
        <path id="Path_42379" data-name="Path 42379" d="M333.909,412.947a34.747,34.747,0,0,1,3.935-.19c.66,0,1.3.055,1.967.117.313.031.624.065.937.107s.678.133,1.023.172c.036,0,.036.06,0,.057-.326-.029-.658,0-.984,0l-.981-.026c-.655-.016-1.3-.026-1.967-.047-1.3-.044-2.609-.076-3.932-.076A.058.058,0,0,1,333.909,412.947Z" transform="translate(-288.464 -361.325)" fill="#263238"/>
        <path id="Path_42380" data-name="Path 42380" d="M382.787,316.352c8.848,11.274,18.89,32.231,16.059,36.29-3.154,4.522-15.712-9.654-15.2-10.309.436-.561-3.321-14.123-5.97-23.97S380.6,313.563,382.787,316.352Z" transform="translate(-320.336 -287.268)" fill="#ffc4c0"/>
        <path id="Path_42381" data-name="Path 42381" d="M392.434,329.881l-14.374,1.185s-2.565-10.363-2.729-15.994c-.091-3.157,1.751-3.11,3.9-1.231C386.722,320.423,392.434,329.881,392.434,329.881Z" transform="translate(-319.115 -287.258)" fill="#077dbb"/>
        <path id="Path_42382" data-name="Path 42382" d="M386.938,325.008s-.034-.128-.042-.162h0c0-.016,0-.021-.026,0a17.252,17.252,0,0,0-1.983,4.334,8.119,8.119,0,0,0,.073,2.52l.29-.023a9.764,9.764,0,0,1,.078-2.839,24.808,24.808,0,0,1,1.5-3.749v.063a16.019,16.019,0,0,0-1.323,5.19h0c.044-1.808.871-3.332,1.344-5.017a14.3,14.3,0,0,1-.149,3.9,14.071,14.071,0,0,1-.684,2.393h.112a14.537,14.537,0,0,0,.642-2.374,15.158,15.158,0,0,0,.183-2.035c.018-.433.044-.882.031-1.325a12.24,12.24,0,0,1,.29,3.8,6.1,6.1,0,0,1-.592,1.886h.05a7.226,7.226,0,0,0,.543-1.6,7.981,7.981,0,0,0,.016-2.784,12,12,0,0,1,.284,1.719,4.772,4.772,0,0,1-.483,2.633l.462-.036C388.36,329.61,387.51,327.2,386.938,325.008Zm-1.469,5.706c-.034.31-.057.621-.07.934h.057c0-.308.013-.616.029-.926,0-.016-.013-.018-.013-.008Zm-2.348-1.106a1.152,1.152,0,0,0-.013-.211.029.029,0,0,0,0-.047l-.016-.016a9.114,9.114,0,0,0-.9-4.052,12.891,12.891,0,0,0-3.525-3.559c0-.018-.083.021-.078.026,0,1.594-.138,3.577.7,5.01.783,1.323,2.385,1.941,3.593,2.763a.033.033,0,0,1,.026.013l1.2,2.22.35-.029q-.644-1.075-1.336-2.119Zm-1.354-4.389a9.233,9.233,0,0,1,.869,2.985,18.464,18.464,0,0,0-3.726-6.2,13.493,13.493,0,0,1,2.852,3.214Zm-2.108,1.3a13.384,13.384,0,0,1-.968-4.681,16.75,16.75,0,0,0,1.292,4.175,12.4,12.4,0,0,0,2.745,3.032c-1.106-.707-2.413-1.336-3.074-2.513Zm-.905-4.6a66.728,66.728,0,0,1,3.961,7.039,12.526,12.526,0,0,1-2.729-3.074,19.321,19.321,0,0,1-1.237-3.953Zm4,7.063a52.142,52.142,0,0,0-3.856-6.9,20.935,20.935,0,0,1,3.854,6.627c.029.12.063.24.1.357Zm-.522,2.912a6.684,6.684,0,0,0-.634-.691h0a.063.063,0,0,0-.044-.016.086.086,0,0,0-.091.125c-.078.224-.146.446-.206.665l.261-.021c.016-.1.029-.206.042-.31a.283.283,0,0,0,.018.063,1.512,1.512,0,0,1-.013.243h.055v-.117a.478.478,0,0,0,.034.115h.07c-.036-.11-.076-.219-.117-.326v-.055c.052.128.107.261.167.378h.055c-.042-.081-.081-.162-.12-.243l.159.24Zm-4.175-.624c.083.357.149.626.188.783.031.052.06.1.086.159l.35-.029a4.275,4.275,0,0,0-.631-.9Zm.3-16.9a.2.2,0,0,0,0-.023c.029-.037.06-.076.086-.115-.06-.039-.123-.076-.183-.11l-.24.344a4.986,4.986,0,0,0-2.4,2.828c.018.261.039.522.065.783.042-.172.084-.342.13-.522a5.3,5.3,0,0,1,2.228-2.935.093.093,0,0,0,.06,0,.073.073,0,0,0,.05-.031.479.479,0,0,0,.018.083,4.386,4.386,0,0,1-.467,3.653,9.249,9.249,0,0,1-1.8,1.644c.013.1.026.2.042.3a6.155,6.155,0,0,0,2.325-2.147,5.7,5.7,0,0,0,.078-3.739Zm-.039.133c.023-.021,0-.06-.037-.039l-.115.1a.91.91,0,0,1,.013-.188.021.021,0,0,0-.039,0c0,.076-.013.151-.021.23l-.023.023a8.568,8.568,0,0,0-2.385,3.8v.1a8.2,8.2,0,0,1,.54-1.365,9.393,9.393,0,0,1,1.85-2.481v.042a12.688,12.688,0,0,0-1.375,2.348h0a14.12,14.12,0,0,1,1.37-2.333,7.72,7.72,0,0,1-.8,3.2,9.284,9.284,0,0,1-1.432,1.826.662.662,0,0,0,0,.07,7.777,7.777,0,0,0,1.586-2.048,8.063,8.063,0,0,0,.691-3.131h0l.031-.042s0-.018-.016,0l-.018.029v-.016Zm-1.98,3.363c-.19.381-.381.759-.564,1.143v.091c.18-.412.363-.824.564-1.229.005.008-.005,0-.008.008Z" transform="translate(-319.331 -288.425)" opacity="0.1"/>
        <path id="Path_42383" data-name="Path 42383" d="M386.934,371.281a95.386,95.386,0,0,1,12.14-1.211c.023,0,.034.091,0,.094-3.29.522-9.915,1.078-12.135,1.25C386.91,371.419,386.895,371.286,386.934,371.281Z" transform="translate(-327.676 -329.777)" fill="#263238"/>
        <path id="Path_42384" data-name="Path 42384" d="M381.727,356.785q-.879,0-1.759.037l.112.083c-.261-1.584-.592-3.152-.947-4.715s-.746-3.131-1.213-4.66c.219,1.592.522,3.167.843,4.738s.694,3.131,1.109,4.683l.023.1.089-.013C380.566,356.962,381.148,356.881,381.727,356.785Z" transform="translate(-321.031 -313.118)" fill="#263238"/>
        <path id="Path_42385" data-name="Path 42385" d="M377.668,354.475a4.393,4.393,0,0,0-.4-.939,6.424,6.424,0,0,0-.561-.856,1.827,1.827,0,0,0,.12.5,2.994,2.994,0,0,0,.214.464A3.27,3.27,0,0,0,377.668,354.475Z" transform="translate(-320.137 -316.924)" fill="#263238"/>
        <path id="Path_42386" data-name="Path 42386" d="M350.559,286.347c-.076.681-2.727,5.354-5.766,5.57-.991.068-1.607-5.328-1.607-5.328l-.138-.389-1.907-5.432,6.051-4.978.879-.671s.423,1.521.931,3.421c.026.089.05.175.073.261s.063.206.089.308c.078.282.159.571.232.861.057.219.115.433.164.665s.11.462.167.694A39.45,39.45,0,0,1,350.559,286.347Z" transform="translate(-293.847 -259.6)" fill="#ffc4c0"/>
        <path id="Path_42387" data-name="Path 42387" d="M349,278.541a11.532,11.532,0,0,1-5.954,7.66l-1.907-5.432,6.051-4.978.879-.671S348.493,276.654,349,278.541Z" transform="translate(-293.847 -259.6)" fill="#263238"/>
        <path id="Path_42388" data-name="Path 42388" d="M363.761,278.975a2.128,2.128,0,0,1,.4.725,4.04,4.04,0,0,1-.835,3.434c-.728,1.044-1.751,2-2.1,3.259a2.108,2.108,0,0,0,.063,1.5,1.986,1.986,0,0,0,1.318.937c.535.154,1.271.23,1.657.733a1.649,1.649,0,0,1,.162,1.485c-.386,1.25-1.732,1.9-2.533,2.87a6.638,6.638,0,0,0-1.529,3.608,6.442,6.442,0,0,0,.718,3.6,6.316,6.316,0,0,0,1.057,1.479c.472.485,1.044.861,1.537,1.323a2.271,2.271,0,0,1,.871,1.67c0,.509-1.044,2.087-3.207,2.87-.154.055-.044.331.133.331a8.325,8.325,0,0,0,1.02-.044,8.871,8.871,0,0,0,6.784-4.4,9.239,9.239,0,0,0,1.179-4.305,14.964,14.964,0,0,1,.136-2.513,4.647,4.647,0,0,1,.958-1.97,24.388,24.388,0,0,0,2.7-3.256,7.775,7.775,0,0,0,.9-3.692,9.192,9.192,0,0,0-3.261-6.925C369.883,279.964,363.662,278.855,363.761,278.975Z" transform="translate(-308.034 -262.443)" fill="#263238"/>
        <path id="Path_42389" data-name="Path 42389" d="M362.252,279.217a3.59,3.59,0,0,1,.629,1.505,2.977,2.977,0,0,1-.214,1.461,8.272,8.272,0,0,1-1.965,2.609,5.094,5.094,0,0,0-1.594,2.622,2.435,2.435,0,0,0,.141,1.344,1.894,1.894,0,0,0,1.078.968c.856.347,2.048.522,2.377,1.532s-.5,1.933-1.088,2.622c-1.432,1.683-3.541,3.653-2.972,6.113a8.189,8.189,0,0,0,1.939,3.355c.6.684,1.367,1.539,1.205,2.523,0,.036-.06.018-.055-.016.154-1.044-.762-1.769-1.406-2.44a8.681,8.681,0,0,1-1.826-2.74,4.216,4.216,0,0,1,.065-3.194,9.818,9.818,0,0,1,1.894-2.784c.386-.433.783-.858,1.153-1.3a3.567,3.567,0,0,0,.806-1.349,1.232,1.232,0,0,0-.522-1.365,6.622,6.622,0,0,0-1.492-.618,2.476,2.476,0,0,1-1.169-.8,2.273,2.273,0,0,1-.417-1.08,3.58,3.58,0,0,1,.712-2.484c.725-1.018,1.769-1.766,2.476-2.8a3.59,3.59,0,0,0,.689-1.782,3.653,3.653,0,0,0-.553-1.842.068.068,0,0,1,.11-.065Z" transform="translate(-306.469 -262.617)" fill="#263238"/>
        <path id="Path_42390" data-name="Path 42390" d="M384.116,282.419a7.522,7.522,0,0,1,2.4,7.123,9.27,9.27,0,0,1-1.811,3.955,19.685,19.685,0,0,0-2.421,3.337c-.65,1.388-.423,2.886-.42,4.365a8.258,8.258,0,0,1-.746,3.462,8.814,8.814,0,0,1-4.926,4.569,7.774,7.774,0,0,1-.838.261.029.029,0,1,1-.013-.055,8.477,8.477,0,0,0,5.177-4.269,8.283,8.283,0,0,0,.944-3.225,31.8,31.8,0,0,1,.091-4.175,7.835,7.835,0,0,1,1.944-3.353,12.274,12.274,0,0,0,2.3-3.494,7.554,7.554,0,0,0-1.111-7.465c-1.926-2.309-4.976-3-7.827-3.288l-1.145-.112c-.042,0-.044-.07,0-.068C378.624,280.138,381.781,280.488,384.116,282.419Z" transform="translate(-319.105 -263.2)" fill="#263238"/>
        <path id="Path_42391" data-name="Path 42391" d="M370.237,273.3c.444.1.929.556.937.861s-1.427,2.186-2.014,2.233-.83-1.015-.83-1.015Z" transform="translate(-313.943 -258.255)" fill="#077dbb"/>
        <path id="Path_42392" data-name="Path 42392" d="M306.109,230.72c1.062,10.048,7.2,10.551,9.359,10.322,1.965-.209,8.628-1.166,8.61-11.271s-5.02-12.785-9.539-12.55S305.048,220.675,306.109,230.72Z" transform="translate(-267.85 -216.797)" fill="#ffc4c0"/>
        <path id="Path_42393" data-name="Path 42393" d="M309.4,261.431a6.269,6.269,0,0,0,.65-.245,1.1,1.1,0,0,0,.613-.373.357.357,0,0,0-.065-.431.884.884,0,0,0-.895-.073,1.3,1.3,0,0,0-.738.577.381.381,0,0,0,.436.545Z" transform="translate(-270.036 -248.589)" fill="#263238"/>
        <path id="Path_42394" data-name="Path 42394" d="M332.586,257.988a6.821,6.821,0,0,1-.694-.039,1.13,1.13,0,0,1-.7-.175.36.36,0,0,1-.063-.433.887.887,0,0,1,.83-.337,1.3,1.3,0,0,1,.877.334.381.381,0,0,1-.25.65Z" transform="translate(-286.416 -246.204)" fill="#263238"/>
        <path id="Path_42395" data-name="Path 42395" d="M332.214,271.03c0-.026.057.026.06.055.065.681.261,1.448.9,1.594.021,0,.023.039,0,.039C332.415,272.71,332.167,271.687,332.214,271.03Z" transform="translate(-287.247 -256.572)" fill="#263238"/>
        <path id="Path_42396" data-name="Path 42396" d="M332.72,267.954c1.08-.224,1.448,1.952.446,2.16S331.814,268.152,332.72,267.954Z" transform="translate(-287.238 -254.292)" fill="#263238"/>
        <path id="Path_42397" data-name="Path 42397" d="M335.6,267.43c.211.091.436.279.668.261s.431-.279.569-.522c.013-.026.034,0,.039.018.078.417,0,.871-.446,1.01s-.754-.2-.929-.6C335.471,267.521,335.518,267.393,335.6,267.43Z" transform="translate(-289.674 -253.716)" fill="#263238"/>
        <path id="Path_42398" data-name="Path 42398" d="M316.56,272.916c0-.023-.047.042-.042.068.141.671.188,1.461-.381,1.792-.018,0,0,.044,0,.037C316.878,274.575,316.8,273.529,316.56,272.916Z" transform="translate(-275.362 -257.968)" fill="#263238"/>
        <path id="Path_42399" data-name="Path 42399" d="M313.029,270.632c-1.1.11-.8,2.3.217,2.2S313.947,270.541,313.029,270.632Z" transform="translate(-272.556 -256.281)" fill="#263238"/>
        <path id="Path_42400" data-name="Path 42400" d="M310.025,271.388c-.159.141-.3.373-.506.417s-.446-.164-.629-.37c-.018-.021-.034,0-.031.029.047.417.245.835.657.861s.595-.373.637-.8C310.164,271.443,310.088,271.333,310.025,271.388Z" transform="translate(-269.989 -256.831)" fill="#263238"/>
        <path id="Path_42401" data-name="Path 42401" d="M334.662,289.951c-.11.2-.2.462-.431.556a1.826,1.826,0,0,1-.754.052c-.021,0-.037.029-.016.042a.918.918,0,0,0,.937.1.728.728,0,0,0,.334-.738C334.733,289.925,334.678,289.927,334.662,289.951Z" transform="translate(-288.166 -270.549)" fill="#263238"/>
        <path id="Path_42402" data-name="Path 42402" d="M321.118,265.686s.11,1.025.227,1.492c0,.044.128.037.29,0h.018a2.293,2.293,0,0,0,1.952-1.37c.021-.055-.052-.086-.086-.047a3.465,3.465,0,0,1-1.884,1.088c-.065-.123-.13-1.761-.206-1.748a4.2,4.2,0,0,0-1,.5c-.292-2.126-.24-4.284-.561-6.4a.065.065,0,1,0-.13,0,34.767,34.767,0,0,0,.313,6.919C320.077,266.409,320.951,265.812,321.118,265.686Z" transform="translate(-277.971 -247.79)" fill="#263238"/>
        <path id="Path_42403" data-name="Path 42403" d="M309.939,219.74a4.536,4.536,0,0,0,.84,2.513c1.665,1.9,4.135.577,5.281,1.19,1.072.574,1.255,2.348,2.249,2.943,1.378.827,2.693-.018,3.081.691s1.545,2.3,2.6,2.348,1.349-16.816-11.592-13.307a8.851,8.851,0,0,0-4.175,2.113c-2.492,2.377-2.372,8.148-2.372,8.148s.042-.086.365-.59c.457-.71.551-1.273.895-1.748.545-.746.989-.647,1.565-1.388A8.968,8.968,0,0,0,309.939,219.74Z" transform="translate(-267.763 -215.638)" fill="#263238"/>
        <path id="Path_42404" data-name="Path 42404" d="M321.351,228.47a8.87,8.87,0,0,0,.18,2.038,3.673,3.673,0,0,0,.8,1.8,2.706,2.706,0,0,0,1.759.733c.66.052,1.338-.07,2.056,0a2.03,2.03,0,0,1,1.023.4,2.761,2.761,0,0,1,.644.869A3.651,3.651,0,0,0,329,235.862a2.254,2.254,0,0,0,1.889.232,4.82,4.82,0,0,1,1.983-.451,4.8,4.8,0,0,0-1.936.6,2.447,2.447,0,0,1-2.061-.17,3.664,3.664,0,0,1-1.323-1.625,2.455,2.455,0,0,0-.582-.767,1.724,1.724,0,0,0-.869-.318c-.647-.081-1.336.031-2.04-.031a3.5,3.5,0,0,1-1.044-.24,2.134,2.134,0,0,1-.89-.605,3.877,3.877,0,0,1-.77-1.946A8.811,8.811,0,0,1,321.351,228.47Z" transform="translate(-279.181 -225.122)" fill="#263238"/>
        <path id="Path_42405" data-name="Path 42405" d="M311.794,230.94a7.172,7.172,0,0,1-.117,1.915,3.358,3.358,0,0,1-.869,1.751,4.7,4.7,0,0,1-.783.587,1.542,1.542,0,0,0-.551.65,4.957,4.957,0,0,1-.337.9,2.126,2.126,0,0,1-.668.694,2.348,2.348,0,0,0,.522-.764,4.717,4.717,0,0,0,.243-.908,1.644,1.644,0,0,1,.605-.817,5.422,5.422,0,0,0,.728-.569,3.588,3.588,0,0,0,.843-1.589A13.94,13.94,0,0,0,311.794,230.94Z" transform="translate(-269.702 -226.947)" fill="#263238"/>
        <path id="Path_42406" data-name="Path 42406" d="M368.687,260.325s1.565-3.514,3.115-3.014.8,5.3-.731,6.236a1.706,1.706,0,0,1-2.421-.467Z" transform="translate(-314.18 -246.402)" fill="#ffc4c0"/>
        <path id="Path_42407" data-name="Path 42407" d="M373.965,262.68c.026,0,.037.029.016.042a4.3,4.3,0,0,0-1.672,3.076.94.94,0,0,1,1.333-.522c.034.016.016.068-.018.068a1.044,1.044,0,0,0-1.065.579,5.05,5.05,0,0,0-.36,1.015c-.034.112-.232.094-.214-.034v-.026C371.677,265.42,372.413,263.134,373.965,262.68Z" transform="translate(-316.594 -250.406)" fill="#263238"/>
        <path id="Path_42408" data-name="Path 42408" d="M373.424,418.043c-3.392,2.046-14.807.715-30.078-2.758-2.113-.48,2.927-15.133,5.218-14.729,2.87.5,13.925,3.066,14.71,3.355C369.883,406.354,375.717,416.655,373.424,418.043Z" transform="translate(-295.103 -352.303)" fill="#ffc4c0"/>
        <path id="Path_42409" data-name="Path 42409" d="M302.159,392.34a58.171,58.171,0,0,1-5.479-2.92,18.3,18.3,0,0,0-19.871,2.306c-3.027,2.463-2.622,5.659.976,3.653,2.533-1.409,4.175-2.609,5.124-2.828,0,0-1.693,4.1-.324,6.278a47.837,47.837,0,0,0,4,5.443,10.1,10.1,0,0,0,1.083-.655,5.409,5.409,0,0,0,5.383,2.014Z" transform="translate(-244.806 -342.656)" fill="#ffc4c0"/>
        <path id="Path_42410" data-name="Path 42410" d="M299.2,390.19a28.657,28.657,0,0,0-8.751,3.081c-3.293,2.035-9.085,6.849-7.566,9.262,1.119,1.772,3.494.128,3.494.128s-1.975,2.494-.613,3.872c1.242,1.258,3-.125,3-.125s-.939,1.719.491,2.7c1.717,1.179,3.392-2.609,6.173-2.927C296.066,406.119,299.2,390.19,299.2,390.19Z" transform="translate(-250.608 -344.647)" fill="#ffc4c0"/>
        <path id="Path_42411" data-name="Path 42411" d="M303.757,414a15.451,15.451,0,0,0-6.8,6.194c-.036.068,0,.136.044.078a38,38,0,0,1,6.784-6.241C303.794,414.018,303.778,414,303.757,414Z" transform="translate(-261.182 -362.245)" fill="#263238"/>
        <path id="Path_42412" data-name="Path 42412" d="M312.356,426.979a17.289,17.289,0,0,0-6.418,6.585c-.036.073,0,.136.047.078a40.492,40.492,0,0,1,6.392-6.632C312.393,426.979,312.372,426.961,312.356,426.979Z" transform="translate(-267.819 -371.832)" fill="#263238"/>
        <path id="Path_42413" data-name="Path 42413" d="M282.545,405.258a3.332,3.332,0,0,1-1.759.613,1.772,1.772,0,0,1-1.581-.911,1.9,1.9,0,0,1-.188-.937,3.572,3.572,0,0,1,.2-.934,5.855,5.855,0,0,1,.926-1.657l.1.112a4.528,4.528,0,0,1-1.654.712,2.156,2.156,0,0,1-.913,0,1.683,1.683,0,0,1-.8-.464,1.952,1.952,0,0,1-.464-.8,2.285,2.285,0,0,1-.052-.921,4.512,4.512,0,0,1,.668-1.675,8.175,8.175,0,0,1,1.122-1.4c.41-.425.832-.84,1.26-1.247a32.709,32.709,0,0,1,2.677-2.348l.128.222a25.944,25.944,0,0,0-2.531,1.3,13.084,13.084,0,0,0-1.185.783,8.454,8.454,0,0,1-1.242.751,5.052,5.052,0,0,1-1.383.464,2.221,2.221,0,0,1-.754,0,1.1,1.1,0,0,1-.663-.4,1.234,1.234,0,0,1-.248-.731,2.088,2.088,0,0,1,.123-.741,4.566,4.566,0,0,1,.717-1.268,9.88,9.88,0,0,1,2.121-1.946,20.57,20.57,0,0,1,2.447-1.492,16.81,16.81,0,0,1,5.422-1.766,16.76,16.76,0,0,0-5.359,1.881,20.439,20.439,0,0,0-2.413,1.513,9.705,9.705,0,0,0-2.053,1.933,4.31,4.31,0,0,0-.671,1.216,1.33,1.33,0,0,0,.094,1.26,1.254,1.254,0,0,0,1.2.321,4.7,4.7,0,0,0,1.3-.449,8.072,8.072,0,0,0,1.2-.733,14.079,14.079,0,0,1,1.2-.8,23.386,23.386,0,0,1,2.557-1.3l1.044-.462-.9.644a33.6,33.6,0,0,0-2.661,2.3q-.642.605-1.258,1.237a7.8,7.8,0,0,0-1.1,1.354,4.266,4.266,0,0,0-.642,1.584,2.088,2.088,0,0,0,.036.832,1.717,1.717,0,0,0,.4.72,1.5,1.5,0,0,0,.7.42,1.98,1.98,0,0,0,.84.018,4.363,4.363,0,0,0,1.592-.655l.4-.261-.3.371a5.861,5.861,0,0,0-.921,1.6,3.539,3.539,0,0,0-.211.9,1.793,1.793,0,0,0,.159.89,1.709,1.709,0,0,0,1.5.908,3.316,3.316,0,0,0,1.756-.569Z" transform="translate(-244.379 -343.457)" fill="#263238"/>
        <path id="Path_42414" data-name="Path 42414" d="M410.058,413.42a14.618,14.618,0,0,0-4.436-3.653,23.119,23.119,0,0,0-6.656-1.8c-.039,0-.057.039-.018.052a48.2,48.2,0,0,1,6.34,2.129,19.847,19.847,0,0,1,4.728,3.306C410.042,413.48,410.081,413.457,410.058,413.42Z" transform="translate(-336.557 -357.788)" fill="#263238"/>
      </g>
      <g id="freepik--Device--inject-5" transform="translate(64.787 117.946)">
        <rect id="Rectangle_19202" data-name="Rectangle 19202" width="35.033" height="1.571" transform="translate(23.433 21.619)" fill="#455a64"/>
        <rect id="Rectangle_19203" data-name="Rectangle 19203" width="17.632" height="1.571" transform="translate(23.433 21.619)" fill="#37474f"/>
        <path id="Path_42420" data-name="Path 42420" d="M188.255,399.567H154.112L149.65,376.38h34.14Z" transform="translate(-148.259 -376.38)" fill="#37474f"/>
        <path id="Path_42421" data-name="Path 42421" d="M182.927,399.567H148.784L144.32,376.38h34.143Z" transform="translate(-144.32 -376.38)" fill="#455a64"/>
        <path id="Path_42422" data-name="Path 42422" d="M214.461,414.906a1.876,1.876,0,0,1-1.9,2.087,2.312,2.312,0,0,1-2.259-2.087,1.873,1.873,0,0,1,1.9-2.087,2.314,2.314,0,0,1,2.259,2.087Z" transform="translate(-193.08 -403.311)" fill="#fff"/>
      </g>
    </g>
  </g>
</svg>
