<svg xmlns="http://www.w3.org/2000/svg" xmlns:xlink="http://www.w3.org/1999/xlink" width="24" height="24" viewBox="0 0 24 24">
  <defs>
    <clipPath id="clip-path">
      <rect id="Rectangle_19137" data-name="Rectangle 19137" width="24" height="24" transform="translate(225 929)" fill="#f76d41"/>
    </clipPath>
  </defs>
  <g id="Mask_Group_94" data-name="Mask Group 94" transform="translate(-225 -929)" clip-path="url(#clip-path)">
    <g id="Group_56123" data-name="Group 56123" transform="translate(-39.858 0.039)">
      <path id="Path_42162" data-name="Path 42162" d="M422.012,41.794h0a5.2,5.2,0,0,1-1.143-.129,5.12,5.12,0,0,1-3.815-3.907,5.382,5.382,0,0,1,.978-4.477,5.046,5.046,0,0,1,8.937,2.047,5.392,5.392,0,0,1-.981,4.493,5.016,5.016,0,0,1-3.975,1.973Zm0-8.969a3.57,3.57,0,0,0-2.83,1.4,3.841,3.841,0,0,0-.692,3.2,3.667,3.667,0,0,0,2.7,2.764,3.752,3.752,0,0,0,.825.094h0a3.564,3.564,0,0,0,2.825-1.4,3.859,3.859,0,0,0,.7-3.214,3.65,3.65,0,0,0-2.7-2.746,3.766,3.766,0,0,0-.822-.092Z" transform="translate(-145.154 899.645)" fill="#f76d41"/>
      <path id="Path_42163" data-name="Path 42163" d="M389.614,206.3H375.086a.746.746,0,0,1-.736-.756v-3.188a4.524,4.524,0,0,1,4.671-4.35h6.659a4.524,4.524,0,0,1,4.67,4.35v3.188a.746.746,0,0,1-.736.756Zm-13.792-1.512h13.056v-2.431a3.038,3.038,0,0,0-3.2-2.838h-6.659a3.038,3.038,0,0,0-3.2,2.838Z" transform="translate(-105.492 744.663)" fill="#f76d41"/>
    </g>
  </g>
</svg>
