<svg xmlns="http://www.w3.org/2000/svg" xmlns:xlink="http://www.w3.org/1999/xlink" width="24" height="24" viewBox="0 0 24 24">
  <defs>
    <clipPath id="clip-path">
      <rect id="Rectangle_19171" data-name="Rectangle 19171" width="24" height="24" transform="translate(224 398)" fill="#d54390"/>
    </clipPath>
  </defs>
  <g id="Mask_Group_97" data-name="Mask Group 97" transform="translate(-224 -398)" clip-path="url(#clip-path)">
    <g id="Group_56163" data-name="Group 56163" transform="translate(-911.209 398)">
      <path id="Path_42168" data-name="Path 42168" d="M176.088,78.633h-1.939V66.845a1.224,1.224,0,0,0-1.224-1.224H159.863a1.224,1.224,0,0,0-1.224,1.224V82.763a2.857,2.857,0,0,0,2.857,2.857h12.27a2.857,2.857,0,0,0,2.73-2.857V79.041a.408.408,0,0,0-.408-.408Zm-16.633,4.131V66.845a.408.408,0,0,1,.408-.408h13.061a.408.408,0,0,1,.408.408V78.633h-9.388a.408.408,0,0,0-.408.408v3.722a2.041,2.041,0,0,1-4.082,0Zm16.224,0a2.041,2.041,0,0,1-1.992,2.041h-10.2a2.857,2.857,0,0,0,.865-2.041V79.449H175.68Z" transform="translate(979.57 -63.621)" fill="#d54390"/>
      <path id="Path_42169" data-name="Path 42169" d="M194.865,142.967a.408.408,0,1,0,.816,0v-.816h5.306a.408.408,0,1,0,0-.816h-5.306v-5.306a.408.408,0,1,0-.816,0v5.306h-.816a.408.408,0,1,0,0,.816h.816Z" transform="translate(946.202 -130.355)" fill="#d54390"/>
      <path id="Path_42170" data-name="Path 42170" d="M255.3,207.671a.408.408,0,0,0,.408-.408v-1.224a.408.408,0,1,0-.816,0v1.224a.408.408,0,0,0,.408.408Z" transform="translate(887.809 -197.099)" fill="#d54390"/>
      <path id="Path_42171" data-name="Path 42171" d="M325.3,207.671a.408.408,0,0,0,.408-.408v-1.224a.408.408,0,1,0-.816,0v1.224a.408.408,0,0,0,.408.408Z" transform="translate(821.074 -197.099)" fill="#d54390"/>
      <path id="Path_42172" data-name="Path 42172" d="M290.3,182.645a.408.408,0,0,0,.408-.408v-2.449a.408.408,0,0,0-.816,0v2.449a.408.408,0,0,0,.408.408Z" transform="translate(854.442 -172.073)" fill="#d54390"/>
      <path id="Path_42173" data-name="Path 42173" d="M402.993,141.887a.408.408,0,0,0,.579,0l1.224-1.225a.41.41,0,1,0-.579-.579l-.935.939-.118-.122a.41.41,0,0,0-.579.579Z" transform="translate(747.118 -134.495)" fill="#d54390"/>
      <path id="Path_42174" data-name="Path 42174" d="M402.993,185.637a.408.408,0,0,0,.579,0l1.224-1.224a.41.41,0,1,0-.579-.579l-.935.939-.118-.122a.41.41,0,0,0-.579.579Z" transform="translate(747.118 -176.204)" fill="#d54390"/>
      <path id="Path_42175" data-name="Path 42175" d="M402.993,229.387a.408.408,0,0,0,.579,0l1.224-1.224a.41.41,0,0,0-.579-.579l-.935.939-.118-.122a.41.41,0,1,0-.579.579Z" transform="translate(747.118 -217.913)" fill="#d54390"/>
    </g>
  </g>
</svg>
